<?xml version="1.0" encoding="UTF-8"?> <svg xmlns="http://www.w3.org/2000/svg" width="128" height="143" viewBox="0 0 128 143" fill="none"> <path d="M72.9873 97.6645C72.8729 96.1707 72.3616 94.9737 71.9392 93.7529C71.7312 93.3322 71.4105 92.8465 71.1136 92.4496C68.8638 90.0987 66.7681 87.6112 64.6723 85.1237C62.8258 82.8553 61.3349 80.4916 59.6424 78.0866C58.8644 76.9611 58.0214 75.9484 57.2672 74.9118C56.1511 73.591 55.1 72.1576 53.9838 70.8369C53.4981 71.1576 53.5934 71.5132 53.6886 71.8688C53.8031 73.3626 53.6032 74.7502 53.1127 76.1202C52.835 76.8616 52.8478 77.6205 53.0621 78.4206C53.3003 79.3096 53.5386 80.1986 53.7768 81.0876C54.0864 82.2433 54.331 83.5117 54.7296 84.6436C55.152 85.8643 55.1949 87.0915 55.149 88.3425C55.0269 90.3761 54.7271 92.4574 54.0002 94.3673C53.4034 96.0517 52.3557 97.4758 51.1716 98.7459C50.2064 99.7668 49.0397 100.746 47.9142 101.524C46.2378 102.736 44.4964 104.06 42.8201 105.271C41.5406 106.186 39.9881 106.792 38.453 107.109C37.7418 107.299 36.894 107.336 36.1114 107.26C34.6588 107.172 33.2713 106.972 31.7948 106.796C31.2138 106.761 30.6978 106.614 30.093 106.49C26.9798 105.895 24.2571 104.624 21.8772 102.498C20.3578 101.095 19.5258 99.4122 19.3573 97.3611C19.2254 96.1578 19.2063 95.0195 19.2522 93.7686C19.3394 92.316 19.0472 90.8698 18.6899 89.5363C18.4993 88.8251 18.2198 88.1377 18.142 87.4916C17.5877 85.0674 17.7034 82.6544 18.7145 80.3825C18.9922 79.6411 19.3827 78.9648 19.6843 78.3123C20.897 76.0817 22.7924 74.621 24.9608 73.4683C26.199 72.7554 27.5564 72.487 28.9375 72.3075C29.382 72.1884 29.8741 72.2471 30.2948 72.0391C31.5568 71.4151 32.9444 71.615 34.243 71.8387C35.5416 72.0624 36.864 72.3751 38.1865 72.6877C40.7186 73.2479 43.1206 74.0335 45.5703 74.9969C46.6498 75.4699 47.7056 75.854 48.8026 76.0365C49.6091 76.2015 50.3266 76.3904 51.0204 76.4903C51.4632 74.9424 51.5138 72.6421 51.1675 70.6387C50.877 70.6212 50.6516 70.4911 50.3611 70.4736C48.9085 70.3864 47.432 70.2104 45.9492 69.6548C44.2648 69.0581 43.0836 67.8501 41.9913 66.6182C41.6055 66.2452 41.3975 65.8245 41.0767 65.3388C40.6433 64.7879 40.3877 64.1894 40.2209 63.5672C38.9584 58.8555 38.5437 54.1072 38.7989 49.37C38.8273 48.4095 39.0336 47.4014 39.2637 46.4822C39.3463 46.079 39.251 45.7234 39.043 45.3027C37.2075 42.3644 35.1769 39.7641 32.7906 37.2592C31.5855 35.9623 30.4043 34.7543 29.1993 33.4574C27.0146 30.9937 24.9189 28.5063 22.7104 25.9537C22.0277 25.1838 21.4577 24.479 20.775 23.7091C20.205 23.0043 19.7001 22.1868 19.527 21.185C19.6571 20.9596 19.8524 20.6214 20.0476 20.2833C21.1144 19.9974 21.8145 20.4768 22.5623 21.134C23.7197 22.2531 24.901 23.4611 25.9933 24.6929C27.5429 26.5645 29.0036 28.4599 30.4643 30.3553C31.9011 32.1617 33.2253 33.9032 34.6622 35.7096C36.3959 37.913 38.1059 40.0274 39.9524 42.2958C43.0354 42.4226 46.3264 42.97 49.4855 42.3141C51.9096 41.7598 54.1734 40.9627 56.3831 39.6083C57.5324 38.9192 58.8421 38.473 60.039 37.9618C61.2598 37.5394 62.4806 37.117 63.7252 36.7835C66.3683 35.98 68.7703 36.7656 70.8708 38.2037C71.9091 38.8783 72.7283 39.8022 73.5476 40.7261C76.1657 43.7406 77.1185 47.2966 76.9156 51.1622C76.8697 52.4132 76.711 53.5991 76.5762 54.8739C76.4414 56.1487 75.9033 57.341 75.478 58.5983C75.0288 59.7668 74.3304 60.7162 73.3827 61.4465C71.7714 62.5452 70.3205 63.8868 68.8696 65.2284C68.3426 65.7508 67.768 66.0953 67.1044 66.4637C65.4217 67.2957 63.6263 68.0626 61.8959 68.7168C61.0307 69.0439 60.1417 69.2821 59.2527 69.5203C58.7193 69.6633 58.1859 69.8062 57.5636 69.9729C57.6113 70.1507 57.5462 70.2635 57.5938 70.4413C59.7024 73.6876 61.9649 76.7974 63.8305 80.204C64.3354 81.0216 64.8752 81.2581 65.8357 81.2866C67.4661 81.3261 69.0901 80.9862 70.7141 80.6464C73.4938 79.9968 76.202 79.0806 78.9881 78.8105C79.2548 78.739 79.5215 78.6675 79.7882 78.5961C79.9881 77.2086 79.9864 75.7798 79.6942 74.3336C79.3305 72.6207 78.8779 70.9316 78.6031 69.1948C78.114 66.658 77.8915 64.0497 79.1454 61.6175C79.3168 61.1904 79.4882 60.7634 79.6597 60.3363C80.4278 58.2248 81.4691 56.4213 83.4598 55.3162C84.6091 54.6271 85.7346 53.8491 86.795 53.1839C87.6125 52.679 88.5015 52.4408 89.4143 52.2915C91.3527 52.0579 93.3149 51.9133 95.2771 51.7686C96.1248 51.7321 96.9964 51.7844 97.933 51.724C100.097 51.6206 102.137 52.1221 103.964 53.2522C104.326 53.5364 104.753 53.7078 105.18 53.8792C107.073 54.8967 108.592 56.2999 109.827 58.0651C110.397 58.77 110.902 59.5875 111.407 60.405C112.53 62.1052 113.119 63.9482 112.843 66.1184C112.508 68.7807 112.351 71.3954 112.016 74.0577C111.782 76.0263 111.369 78.0425 110.82 79.9047C110.206 81.8797 108.891 83.3752 107.215 84.5867C105.142 86.095 102.789 86.9159 100.252 87.4051C97.6916 87.8054 95.1658 87.6246 92.6099 86.9756C90.9969 86.6455 89.6855 85.6629 88.463 84.6565C86.5404 83.1708 84.5527 81.7977 82.4999 80.5374C81.3727 79.8866 80.3646 79.6803 79.1438 80.1027C77.188 80.6268 75.1195 81.0857 73.1637 81.6098C70.9412 82.2053 68.7362 82.5103 66.5073 82.7264C66.3295 82.774 66.1517 82.8217 65.885 82.8931C66.1819 83.29 66.2772 83.6456 66.5503 83.9536C68.5571 86.4649 70.7418 88.9285 73.1217 91.054C74.7538 92.5223 76.6939 93.7176 78.6514 94.6223C80.6327 95.6159 82.614 96.6096 84.4001 97.9413C85.4622 98.7049 86.4354 99.4922 87.4325 100.368C87.7945 100.653 88.0675 100.961 88.4295 101.245C90.8234 100.222 93.1999 99.49 95.7669 99.4692C98.2213 99.3832 100.699 99.3862 103.184 99.7686C105.087 100.116 106.731 100.914 108.113 102.164C109.36 103.259 110.12 104.675 110.525 106.186C110.995 107.585 111.11 109.079 111.046 110.62C111.018 111.581 110.699 112.524 110.154 113.337C109.456 114.286 108.757 115.235 108.059 116.185C107.296 117.247 106.443 118.333 105.68 119.395C105.176 120.006 104.697 120.706 104.105 121.341C102.418 123.223 100.267 124.085 97.836 124.26C96.52 124.327 95.1801 124.305 93.7926 124.105C93.591 124.063 93.3893 124.022 93.2528 123.868C92.8019 123.608 92.4161 123.235 91.9652 122.974C89.5505 121.43 88.1723 119.131 87.0132 116.583C86.1986 114.61 86.054 112.648 86.0633 110.549C86.0552 108.741 86.3377 106.95 86.6201 105.16C86.7851 104.353 86.9501 103.547 87.6311 102.888C87.3581 102.58 87.1977 102.337 86.9246 102.029C85.4941 100.602 83.8922 99.6019 82.2014 98.6258C79.6327 97.2178 77.0639 95.8099 74.4952 94.402C74.3825 94.3369 74.1808 94.2957 73.9792 94.2544C73.938 94.456 73.8967 94.6576 73.9443 94.8354C74.046 95.5705 74.1715 96.3944 74.2732 97.1294C74.3034 97.5977 74.4875 97.9295 74.8257 98.1247C76.4991 99.3914 77.8883 101.02 79.1886 102.673C80.6731 104.657 82.0926 106.754 83.1802 109.035C83.7804 110.208 84.025 111.477 84.1807 112.769C84.4381 114.796 84.4938 116.782 84.259 118.751C84.0068 121.01 83.3513 123.186 82.3815 125.257C81.8434 126.449 81.0323 127.333 80.1084 128.152C78.6337 129.405 77.0161 130.124 75.0777 130.358C74.3427 130.46 73.6966 130.537 72.9854 130.728C72.8965 130.752 72.8965 130.752 72.8076 130.776C71.6153 130.238 70.5549 130.903 69.3992 131.213C67.7101 131.665 66.0448 132.207 64.2128 132.126C62.0903 132.028 60.0979 131.704 58.4007 130.348C58.2642 130.194 58.0625 130.153 57.8371 130.023C55.8558 129.029 54.5555 127.377 53.652 125.427C52.6596 123.502 51.845 121.529 51.3622 119.371C50.6412 116.325 51.0823 113.348 52.5077 110.489C52.5728 110.376 52.6378 110.263 52.6791 110.062C53.66 107.322 55.7268 105.434 57.9301 103.7C59.5175 102.512 61.4019 101.722 63.31 101.02C65.0467 100.745 66.8898 100.156 68.644 99.5906C68.8218 99.5429 68.9107 99.5191 69.0647 99.3826C69.7282 99.0142 70.3029 98.6696 70.9903 98.3902C71.5887 98.1345 72.2999 97.944 72.9873 97.6645ZM75.8592 79.9347C75.7052 80.0713 75.4385 80.1427 75.2846 80.2793L75.3084 80.3682C75.4624 80.2316 75.7052 80.0713 75.8592 79.9347C76.0196 80.1776 76.0672 80.3554 76.3752 80.0823C76.1497 79.9522 76.0608 79.976 75.8592 79.9347ZM84.6034 99.4114C84.4431 99.1685 84.2589 98.8367 84.0985 98.5938C83.6476 98.3335 83.2206 98.1621 82.7697 97.9018C81.8679 97.3812 80.9662 96.8605 80.0644 96.3399C79.839 96.2097 79.5723 96.2812 79.3706 96.2399C78.9372 95.6891 78.8245 95.624 78.3149 95.8559C78.2911 95.767 78.2673 95.6781 78.3323 95.5653L78.2196 95.5003C78.2434 95.5892 78.2673 95.678 78.4038 95.832C78.7181 95.9384 79.1214 96.0209 79.4357 96.1272C80.8122 96.9971 82.1887 97.8669 83.5413 98.6479C83.654 98.7129 83.8318 98.6653 83.9445 98.7304C84.0985 98.5938 84.1874 98.57 84.1636 98.4811C84.1049 98.9733 84.1764 99.24 84.6034 99.4114C84.7161 99.4765 84.74 99.5654 84.8289 99.5415C84.8527 99.6304 84.9416 99.6066 85.0305 99.5828C85.0067 99.4939 84.9828 99.405 84.8701 99.3399C84.7812 99.3637 84.6923 99.3876 84.6034 99.4114ZM75.7874 94.2463C75.9001 94.3114 75.9478 94.4892 76.0605 94.5543C76.1256 94.4415 76.1256 94.4415 76.1907 94.3288C76.0129 94.3765 75.9001 94.3114 75.7874 94.2463C75.5794 93.8256 75.2413 93.6304 74.7968 93.7495C74.6538 93.2161 74.1617 93.1574 73.7997 92.8733C72.963 92.2399 72.0613 91.7193 71.3135 91.0621C69.7941 89.6589 68.316 88.054 67.1045 86.3777C65.62 84.3934 64.1355 82.4091 62.651 80.4248C61.1427 78.3516 59.7232 76.2546 58.3689 74.0449C57.5671 72.8305 56.6764 71.6399 55.6968 70.4732C55.3999 70.0763 55.0443 70.1716 54.6474 70.4685C54.695 70.6463 54.7189 70.7352 54.7665 70.913C55.3365 71.6178 55.9065 72.3226 56.5003 73.1163C58.5071 75.6276 60.4489 78.2517 62.2367 81.0122C63.3831 82.8013 64.8612 84.4061 66.1853 86.1476C67.0284 87.1603 67.8064 88.2858 68.7384 89.2748C69.6941 90.3526 70.7388 91.4067 71.7597 92.3718C72.6202 93.094 73.6585 93.7686 74.8444 93.9273C75.0937 94.1464 75.3429 94.3654 75.7874 94.2463ZM38.8668 101.185C38.7001 100.563 39.0493 100.088 39.1969 99.5724C39.4682 98.4516 39.9651 97.461 40.2364 96.3401C40.6903 94.1223 40.8536 91.8871 41.1058 89.628C41.1233 89.3375 41.0518 89.0708 40.9565 88.7152C40.0199 88.7756 39.1721 88.8122 38.2831 89.0504C38.1768 89.3647 38.0466 89.5902 38.0054 89.7918C36.723 93.1844 35.6183 96.5295 33.7961 99.6856C32.6247 101.715 31.2278 103.613 29.469 105.228C29.315 105.365 29.0483 105.436 29.2563 105.857C31.3852 106.334 33.5792 106.699 35.8796 106.75C36.3589 106.05 36.8383 105.35 37.1399 104.697C37.5065 103.932 37.7843 103.191 38.062 102.449C38.2747 101.82 38.3096 101.239 38.8668 101.185C38.4478 102.822 37.8273 104.418 37.005 105.972C36.8749 106.197 36.8575 106.488 36.6622 106.826C39.0038 106.675 40.8643 105.795 42.6534 104.649C42.8963 104.489 43.0026 104.174 43.1089 103.86C43.3454 103.32 43.4692 102.715 43.6819 102.087C44.5122 102.341 43.8312 103 44.217 103.373C44.3948 103.325 44.5488 103.188 44.7266 103.141C45.4314 102.571 46.2489 102.066 46.9299 101.407C47.4807 100.974 48.0316 100.54 48.5348 99.9288C48.8189 99.5669 49.103 99.2049 49.2745 98.7778C49.5284 97.9475 49.7823 97.1172 49.7219 96.1806C49.6917 95.7123 49.7266 95.1312 49.6964 94.6629C49.7376 94.4613 49.7789 94.2597 50.0694 94.2771C50.1821 94.3422 50.3187 94.4962 50.3425 94.5851C50.414 94.8518 50.4203 95.2312 50.4029 95.5217C50.4093 95.9011 50.4157 96.2805 50.3982 96.5711C50.4046 96.9505 50.3221 97.3537 50.2221 98.0475C50.5714 97.5728 50.8142 97.4124 50.9682 97.2759C51.927 95.8756 52.257 94.2626 52.7887 92.6909C53.3204 91.1192 53.4076 89.6666 52.9137 88.1791C52.8423 87.9124 52.8597 87.6219 52.8533 87.2425C53.1915 87.4377 53.4408 87.6568 53.6662 87.787C53.7836 86.8027 53.8121 85.8422 53.6628 84.9294C53.3229 83.3054 52.9592 81.5925 52.5305 79.9923C52.4113 79.5478 52.2922 79.1033 51.8414 78.843C51.4985 79.6971 51.2446 80.5274 50.9907 81.3577C51.5432 82.353 52.2085 83.4134 52.2276 84.5517C51.7831 84.6708 51.6228 84.4279 51.4624 84.185C51.2068 83.5866 51.2178 82.9166 50.6066 82.4134C50.4526 82.55 50.2986 82.6865 50.1685 82.912C49.8843 83.2739 49.624 83.7248 49.4288 84.063C49.4764 84.2408 49.524 84.4186 49.5479 84.5075C50.1846 86.5283 50.288 88.6921 50.166 90.7258C50.1485 91.0163 50.0184 91.2417 49.5913 91.0703C49.5849 90.6909 49.4896 90.3353 49.4594 89.867C49.3037 88.5748 49.2131 87.1698 49.0574 85.8776C49.0749 85.587 48.8018 85.2791 48.6827 84.8346C47.4445 85.5475 46.2952 86.2366 45.057 86.9495C45.0395 87.24 45.0459 87.6194 45.1412 87.975C45.47 90.269 45.3305 92.5931 44.9005 94.8999C44.883 95.1904 44.7529 95.4158 44.3258 95.2444C44.3194 94.865 44.3131 94.4856 44.3956 94.0823C44.6542 92.2027 44.6461 90.3945 44.4364 88.545C44.43 88.1656 44.3998 87.6973 43.86 87.4608C43.125 87.5624 42.4376 87.8419 41.8217 88.3881C41.6426 92.3426 40.9476 96.1496 39.535 99.7677C39.3874 100.284 39.4415 100.841 38.8668 101.185ZM62.3931 53.1479C63.271 53.5796 63.8108 53.8161 64.2855 54.1653C64.6475 54.4495 65.0269 54.4431 65.4476 54.2351C66.8223 53.6761 68.2209 53.2061 69.5718 52.5583C71.0117 51.8866 72.5468 51.5706 74.2184 51.4085C74.7756 51.3545 75.3329 51.3005 75.8901 51.2464C76.1789 49.8351 76.0947 48.8096 75.6961 47.6777C75.269 47.5063 74.6293 47.9635 74.1959 47.4127C74.6165 47.2047 75.0372 46.9967 75.5468 46.7649C75.1767 44.6725 74.232 42.9247 72.7777 41.4088C72.4221 41.5041 72.0427 41.5104 71.6871 41.6057C71.4204 41.6772 71.0473 42.063 70.7028 41.4883C71.0996 41.1914 71.4965 40.8945 71.9822 40.5738C71.5726 40.1119 71.2757 39.715 70.9137 39.4309C70.166 38.7737 69.3118 38.4309 68.3339 38.6929C67.7116 38.8596 67.1132 39.1153 66.4258 39.3947C66.1591 39.4662 66.0289 39.6916 65.667 39.4075C65.732 39.2948 65.7495 39.0043 65.8384 38.9804C66.259 38.7724 66.7686 38.5406 67.1893 38.3326C67.3671 38.285 67.61 38.1246 67.8529 37.9643C66.1446 37.2786 65.1603 37.1612 63.7141 37.4534C61.3551 37.895 59.3882 39.0889 57.3976 40.194C55.318 41.323 53.583 43.0265 51.913 44.6174C50.7939 45.7748 49.5383 46.7782 48.1223 47.5388C47.9683 47.6753 47.6127 47.7706 47.7318 48.2151C48.9002 48.6643 50.1814 49.1785 51.3499 49.6277C51.5928 49.4673 51.7706 49.4197 52.0373 49.3482C53.6962 48.4273 55.1947 47.2635 56.5567 45.9457C57.8536 44.7407 59.1743 43.6245 60.6554 42.7513C60.8983 42.5909 61.2062 42.3178 61.8587 42.6194C60.2301 44.0086 58.5712 44.9295 57.2092 46.2473C55.8472 47.5651 54.1232 48.5987 52.6961 50.0292C53.5741 50.4609 54.4044 50.7149 55.3236 50.945C56.0522 50.4639 56.8936 50.0479 57.5984 49.4779C59.0557 48.5157 60.5542 47.3519 62.0115 46.3898C62.6512 45.9325 63.4275 45.6292 64.1799 45.237C64.2688 45.2132 64.4466 45.1656 64.5594 45.2307C64.7435 45.5624 64.5007 45.7228 64.2578 45.8832C62.3973 46.7628 60.7686 48.1521 59.0684 49.2746C58.6716 49.5715 58.2747 49.8684 57.789 50.1891C57.3032 50.5098 56.7936 50.7417 56.4206 51.1275C57.2335 51.6719 59.5942 52.6592 60.1752 52.694C60.5547 52.6876 60.9341 52.6813 61.2659 52.4971C62.9486 51.6651 64.744 50.8981 66.3791 49.8883C67.9252 48.9023 69.5905 48.3608 71.3685 47.8844C71.5463 47.8368 71.7479 47.878 71.867 48.3225C68.7794 49.2452 65.8236 51.3711 62.3931 53.1479ZM71.4637 102.646C70.616 102.683 69.9698 102.761 69.4126 102.815C68.2744 102.834 67.1599 102.942 66.0217 102.961C64.504 102.987 62.9625 102.923 61.3559 102.973C61.1543 102.931 60.9765 102.979 60.7098 103.05C57.7412 104.418 55.4316 106.466 53.7808 109.195C53.13 110.322 52.7284 111.668 52.1904 112.861C52.0602 113.086 52.1317 113.353 52.073 113.845C52.446 113.459 52.6889 113.299 52.9318 113.138C55.0398 111.049 57.5813 109.51 60.0578 108.085C60.4784 107.877 60.9229 107.757 61.3674 107.638C61.4563 107.615 61.6818 107.745 61.7056 107.834C61.7294 107.923 61.6882 108.124 61.5342 108.261C60.296 108.974 59.0578 109.686 57.8434 110.488C55.7225 111.819 53.7621 113.392 52.0747 115.274C51.6366 115.772 51.4652 116.199 51.5192 116.756C51.586 118.072 51.7655 119.454 52.099 120.698C52.1704 120.965 52.307 121.119 52.4261 121.563C52.8816 120.774 53.1832 120.122 53.5975 119.534C54.0118 118.947 54.4023 118.271 54.8404 117.772C55.3436 117.161 55.9833 116.704 56.5103 116.181C57.0612 115.748 57.612 115.314 58.2517 114.857C58.8264 114.513 59.3296 113.901 60.1773 113.865C60.1599 114.155 60.2075 114.333 60.2075 114.333C59.8345 114.719 59.4376 115.016 59.0408 115.313C58.182 116.019 57.2343 116.75 56.3517 117.367C54.5214 118.715 53.6167 120.673 52.7357 122.719C53.6328 124.289 54.0203 126.091 55.427 127.429C55.9302 126.818 56.4334 126.207 56.8239 125.53C57.6287 124.266 58.6589 123.133 59.8907 122.041C61.0336 120.972 62.4735 120.3 63.8482 119.741C64.2038 119.646 64.6245 119.438 64.9801 119.343C65.553 117.57 66.1498 115.885 66.7466 114.201C66.9592 113.572 67.1719 112.943 67.3846 112.315C67.4909 112 67.4195 111.734 67.502 111.33C66.3939 111.818 65.4398 112.169 64.5096 112.609C64.2429 112.68 64.0413 112.639 63.946 112.283C65.1127 111.304 66.6479 110.988 68.1766 110.292C68.6019 109.035 69.4543 107.949 69.6304 106.472C69.0494 106.438 68.4922 106.492 68 106.433C67.7984 106.392 67.5968 106.35 67.3952 106.309C67.3063 106.333 67.2586 106.155 67.2348 106.066C67.211 105.977 67.2761 105.865 67.365 105.841C67.6317 105.769 67.8984 105.698 68.0762 105.65C68.7461 105.661 69.416 105.672 69.9733 105.618C70.559 104.604 70.9018 103.75 71.4637 102.646ZM43.2961 47.3074C43.2136 47.7106 43.1724 47.9123 43.1311 48.1139C43.1107 50.8825 42.5982 53.5925 42.1984 56.3675C41.9874 58.425 41.6637 60.4174 41.4527 62.4748C41.4179 63.0559 41.383 63.6369 41.6148 64.1465C43.6821 67.5944 46.5954 69.577 50.6801 69.5306C50.8817 69.5719 51.0357 69.4353 51.3024 69.3639C50.9817 68.8781 50.7498 68.3685 50.5418 67.9479C49.8289 66.7096 49.2938 65.4238 49.1143 64.0426C48.8918 61.4344 48.7582 58.8022 48.8263 56.2114C48.8833 54.2905 48.5847 52.4648 48.44 50.5027C48.4336 50.1232 48.1606 49.8153 47.8462 49.7089C46.4047 48.9518 44.9393 48.1058 43.2961 47.3074ZM84.7079 77.7543C86.7543 78.6352 88.534 79.5875 90.2487 80.6526C92.076 81.7828 93.8383 83.0257 95.6656 84.1558C97.4041 85.3098 99.3139 86.0368 101.436 86.135C101.727 86.1524 102.106 86.1461 102.373 86.0746C104.815 85.2298 107.007 84.166 108.783 82.2608C109.156 81.875 109.505 81.4003 109.629 80.7954C109.517 80.7303 109.404 80.6653 109.315 80.6891C107.134 81.083 104.898 80.9197 102.746 80.3531C99.0451 79.3437 95.4682 77.7295 92.0041 76.1804C90.9245 75.7074 89.8926 75.4122 88.7956 75.2297C88.3035 75.1711 87.8351 75.2013 87.5272 75.4743C86.6033 76.2936 85.6556 77.0239 84.7079 77.7543ZM54.8157 52.6056C51.8676 51.204 50.272 50.5835 49.1989 50.4899C49.1576 50.6915 49.1814 50.7804 49.1402 50.982C49.1546 53.1696 49.2818 55.4223 49.3852 57.5861C49.3805 58.6355 49.4886 59.7499 49.5728 60.7755C49.6332 61.7121 49.7825 62.6249 49.8429 63.5616C49.9463 65.7254 50.6482 67.6335 52.4168 69.2558C53.5963 69.035 54.8647 68.7905 56.157 68.6348C57.4492 68.4791 58.7891 68.5012 60.075 67.9661C59.1366 66.5977 58.311 65.2944 57.5742 63.9673C57.5504 63.8784 57.4377 63.8133 57.4139 63.7244C56.7788 63.1323 56.4517 62.2672 56.2373 61.4671C55.4512 58.5334 54.689 55.6886 54.8157 52.6056ZM25.88 73.6984C24.2624 74.4177 22.4972 75.653 21.5146 76.9644C22.0782 77.2897 22.5529 77.639 23.0927 77.8755C25.6138 79.1056 27.6079 80.858 29.4067 82.9487C30.7721 84.4885 32.0248 85.9632 33.3902 87.503C33.6871 87.8998 34.138 88.1601 34.4111 88.4681C35.6795 88.2235 36.7701 88.0265 37.8131 87.6518C38.945 87.2532 40.1309 87.4119 41.1675 86.6577C40.461 85.7989 39.7132 85.1417 39.1194 84.348C36.9109 81.7955 34.6135 79.2667 32.032 77.1C30.1094 75.6142 28.0392 74.6444 25.88 73.6984ZM90.24 53.5947C90.0384 53.5535 89.9256 53.4884 89.8367 53.5122C89.6589 53.5599 89.4573 53.5186 89.1906 53.5901C87.365 53.8887 85.6823 54.7207 84.1361 55.7067C83.4725 56.075 83.2361 56.6148 83.1361 57.3086C83.0727 58.8501 83.0744 60.2789 83.5683 61.7663C83.9669 62.8982 84.3003 64.1428 84.61 65.2985C85.3833 67.4734 86.3106 69.5117 87.5046 71.4785C87.6888 71.8103 87.9619 72.1183 88.3477 72.4913C89.8224 71.2386 91.3686 70.2526 92.7305 68.9348C91.5302 66.5886 90.9759 64.1645 90.3978 61.6514C89.9214 59.8735 89.7355 58.1129 90.018 56.3221C90.1354 55.3379 90.1877 54.4663 90.24 53.5947ZM69.2736 110.475C70.5025 111.86 71.5059 113.116 72.5982 114.348C74.2367 116.196 75.4783 118.34 76.6311 120.509C77.5996 122.345 78.2364 124.366 78.6954 126.435C78.8145 126.879 78.8685 127.437 79.1654 127.833C79.3432 127.786 79.4321 127.762 79.521 127.738C81.0846 126.462 81.883 124.818 82.521 122.932C82.8813 121.788 82.886 120.738 82.3985 119.63C81.0965 116.549 79.3737 113.676 76.8573 111.396C75.2252 109.928 73.682 108.436 72.0499 106.968C71.8006 106.748 71.4625 106.553 71.1005 106.269C70.6339 107.728 69.9418 109.057 69.2736 110.475ZM93.1306 105.988C94.3531 106.994 95.5518 107.912 96.9933 108.669C97.7458 108.277 98.4744 107.796 99.138 107.427C99.3808 107.267 99.7364 107.172 99.8794 107.705C99.4 108.405 98.4395 108.377 97.984 109.166C98.7079 109.734 99.4319 110.302 100.173 110.58C100.683 110.348 101.104 110.14 101.548 110.021C101.637 109.997 101.75 110.062 101.773 110.151C101.797 110.24 101.821 110.329 101.756 110.442C101.513 110.602 101.205 110.875 100.873 111.059C101.532 111.74 102.209 112.131 102.909 112.61C103.36 112.87 103.787 113.042 104.409 112.875C105.743 112.518 107.195 112.605 108.518 112.918C108.832 113.024 109.122 113.041 109.324 113.083C110.17 111.617 110.294 111.012 110.091 109.542C109.308 109.466 108.525 109.39 107.79 109.492C107.031 109.505 106.344 109.784 105.674 109.773C104.939 109.875 104.299 110.332 103.339 110.303C103.558 110.054 103.623 109.941 103.688 109.829C104.02 109.645 104.464 109.525 104.796 109.341C106.438 108.711 108.157 108.727 110.054 108.695C110.048 108.315 110.065 108.025 109.994 107.758C109.844 106.845 109.695 105.932 109.19 105.115C108.685 104.297 108.347 104.102 107.458 104.34C106.836 104.507 106.326 104.739 105.751 105.083C105.088 105.452 104.537 105.885 103.962 106.23C103.808 106.366 103.607 106.325 103.423 105.993C104.038 105.447 104.654 104.901 105.383 104.42C106.112 103.939 106.888 103.635 107.729 103.219C106.91 102.296 106.008 101.775 105.041 101.367C104.265 101.67 103.578 101.95 102.914 102.318C99.9044 103.887 96.847 105.278 93.3497 105.739C93.3735 105.827 93.2846 105.851 93.1306 105.988ZM47.946 83.5075C46.9251 82.5423 46.0646 81.8201 45.2692 80.9851C44.8834 80.6121 44.5865 80.2152 44.2896 79.8184C42.586 78.0833 40.9475 76.2356 38.8471 74.7975C38.0104 74.1641 37.1975 73.6197 36.1005 73.4372C35.6084 73.3785 35.0924 73.2309 34.5765 73.0833C32.3999 72.4278 30.3076 72.7979 28.1914 73.0791C28.0136 73.1267 27.9485 73.2394 27.7057 73.3998C28.2693 73.7252 28.8329 74.0506 29.2838 74.3109C30.4586 75.1395 31.6985 75.8554 32.8083 76.7967C35.4136 79.0523 37.6872 81.4922 39.8306 84.1575C40.4005 84.8623 41.1245 85.4306 41.7834 86.1115C42.193 86.5735 42.6613 86.5433 43.236 86.1987C44.498 85.5747 45.6712 84.9745 46.9094 84.2616C47.2412 84.0775 47.5491 83.8044 47.946 83.5075ZM111.556 70.5604C110.263 70.7161 109.054 70.4686 107.885 70.0194C106.379 69.375 104.742 68.956 103.129 68.626C101.113 68.2134 99.0314 67.9135 97.0454 67.9693C96.3754 67.9582 95.842 68.1011 95.4039 68.5997C94.5277 69.5967 93.4022 70.3747 92.3894 71.2177C92.2354 71.3543 92.1704 71.467 91.9513 71.7163C92.2656 71.8226 92.3784 71.8877 92.58 71.9289C96.1377 72.4049 99.4589 73.4206 102.828 74.6142C104.625 75.276 106.463 75.7362 108.319 75.9059C109.28 75.9344 110.127 75.8978 111.105 75.6358C111.524 73.999 111.653 72.3448 111.556 70.5604ZM78.2653 128.742C78.2828 128.451 78.3479 128.338 78.3002 128.161C77.9952 125.955 77.5124 123.798 76.5851 121.76C75.4737 119.39 74.1193 117.18 72.4983 115.042C71.7679 114.094 71.0614 113.235 70.2421 112.311C69.9452 111.914 69.6483 111.518 68.9546 111.418C68.4229 112.989 67.8674 114.472 67.4246 116.02C70.1984 120.327 72.4626 124.865 73.5537 130.004C75.1602 129.955 76.8081 129.704 78.2653 128.742ZM33.5459 88.7952C33.3856 88.5523 33.3379 88.3745 33.2014 88.2205C31.6756 86.4379 30.126 84.5663 28.5352 82.8964C27.6032 81.9074 26.5585 80.8534 25.4964 80.0899C24.0961 79.1311 22.4768 78.4216 20.9225 77.5994C19.3717 79.6348 18.5558 81.5684 18.629 83.2639C19.4181 83.7195 20.2071 84.175 20.9311 84.7433C21.8566 85.3528 22.6933 85.9862 23.311 86.8688C24.0175 87.7276 24.8129 88.5626 25.6083 89.3975C26.2434 89.9896 26.9848 90.2674 27.8976 90.1181C29.7232 89.8195 31.5012 89.3431 33.5459 88.7952ZM110.923 76.7328C109.962 76.7043 109.049 76.8536 108.13 76.6235C106.63 76.3585 105.106 76.0046 103.623 75.4491C100.592 74.4508 97.5856 73.5414 94.4486 72.8575C93.9326 72.7099 93.4405 72.6512 92.9484 72.5925C92.1006 72.6291 91.2291 72.5768 90.5417 72.8562C89.8543 73.1357 89.2384 73.6819 88.7352 74.2931C88.8479 74.3582 88.8956 74.536 88.9845 74.5122C90.3958 74.801 91.6119 75.4279 92.828 76.0549C94.2219 76.6342 95.7047 77.1898 97.1224 77.858C99.6197 78.9992 102.111 79.761 104.732 80.2974C106.232 80.5624 107.685 80.6495 109.148 80.0668C109.682 79.9239 110.078 79.627 110.339 79.1761C110.616 78.4347 110.959 77.5806 110.923 76.7328ZM22.3629 102.177C25.3251 100.431 27.8777 98.2224 29.9317 95.5758C31.3524 93.7659 32.346 91.7846 33.5413 89.8445C33.6063 89.7318 33.4936 89.6667 33.4698 89.5778C33.3571 89.5128 33.1555 89.4715 33.0666 89.4953C31.4425 89.8352 29.8662 90.3529 28.331 90.6689C27.2404 90.8659 26.334 91.3946 25.5879 92.1662C24.2498 93.5729 22.5258 94.6065 20.7304 95.3734C20.4637 95.4449 20.2208 95.6053 19.889 95.7894C19.7971 98.2914 20.3688 100.425 22.3629 102.177ZM37.4116 88.9981C36.9433 89.0283 36.5638 89.0346 36.2971 89.1061C35.2065 89.3031 34.3652 89.7191 33.8033 90.8224C32.916 92.4894 32.0287 94.1564 30.8033 95.6282C29.3826 97.4381 27.873 99.2718 26.0427 100.62C25.095 101.35 24.2362 102.057 23.2885 102.787C24.3332 103.841 26.2256 104.858 28.064 105.319C28.7688 104.749 29.3847 104.203 30.0896 103.633C31.5405 102.291 32.6944 100.553 33.6706 98.8617C35.2738 95.9548 36.361 92.9003 37.4243 89.7569C37.3767 89.5791 37.3941 89.2886 37.4116 88.9981ZM97.107 64.999C97.1006 64.6196 97.053 64.4418 97.0054 64.264C96.8624 63.7306 96.7433 63.2861 96.6893 62.7288C95.9683 59.6824 95.9173 56.6471 97.0044 53.5926C97.0457 53.391 97.087 53.1893 97.152 53.0766C95.0708 52.7768 92.4625 52.9992 91.0877 53.5582C90.764 55.5505 90.3753 57.6556 90.7453 59.748C91.0742 62.0419 91.7348 64.1517 92.5081 66.3266C92.6986 67.0377 92.9543 67.6362 93.5004 68.2521C94.8688 67.3138 95.7625 66.0262 97.107 64.999ZM66.1137 65.9669C65.3834 65.0192 64.7245 64.3382 64.1307 63.5445C63.5607 62.8396 63.0558 62.0221 62.5747 61.2935C61.4522 59.5933 60.6615 57.709 60.1136 55.6643C59.8039 54.5086 59.2752 53.6022 57.9766 53.3784C57.4606 53.2308 56.9208 52.9943 56.4049 52.8468C56.2032 52.8055 55.9127 52.7881 55.7111 52.7468C55.1241 57.6682 57.4139 63.7244 61.2306 67.6564C62.7896 67.4293 64.3421 66.8227 66.1137 65.9669ZM82.282 56.9658C81.7375 57.7786 81.3232 58.366 80.9978 58.9296C80.8026 59.2678 80.6074 59.606 80.4359 60.033C80.028 60.9999 79.6201 61.9667 79.3011 62.9097C79.1535 63.4257 79.0059 63.9417 79.0361 64.41C79.0901 64.9672 79.3458 65.5657 79.6014 66.1641C80.4636 68.3152 81.5037 70.4186 82.6976 72.3854C83.3629 73.4458 83.9393 74.5301 84.1839 75.7985C84.2077 75.8874 84.3204 75.9525 84.4331 76.0175C85.8079 75.4586 86.4761 74.0409 87.7794 73.2153C87.1554 71.9532 86.3774 70.8277 85.8423 69.5419C85.3072 68.256 84.6832 66.994 84.237 65.6843C83.7669 64.2857 83.4096 62.9522 83.1174 61.506C82.7125 59.9947 82.5329 58.6136 82.282 56.9658ZM93.7674 108.009C93.4484 108.952 93.2595 109.669 93.0945 110.476C92.3455 113.725 92.3791 117.051 92.6794 120.306C92.7398 121.242 93.0431 122.019 93.4353 122.771C93.6195 123.103 93.8687 123.322 94.272 123.404C95.6833 123.693 97.0883 123.603 98.5345 123.31C96.3145 116.092 96.8241 115.86 97.3808 110.471C96.2298 109.731 95.055 108.902 93.7674 108.009ZM90.0174 105.393C89.7809 105.933 89.5857 106.271 89.4381 106.787C88.6112 109.39 87.9859 112.035 87.1591 114.639C87.0115 115.155 86.9528 115.647 87.2735 116.133C87.761 117.241 88.2246 118.26 88.801 119.344C89.5377 120.671 90.6713 121.701 92.1367 122.547C92.046 121.142 91.9142 119.939 91.895 118.801C91.8521 117.574 91.8091 116.347 91.855 115.096C91.901 113.845 92.1247 112.546 92.3484 111.247C92.5071 110.061 92.8435 108.828 93.0022 107.642C92.0289 106.855 91.0795 106.156 90.0174 105.393ZM67.177 117.23C66.7802 117.527 66.6088 117.954 66.5024 118.268C66.1422 119.413 65.7581 120.468 65.3089 121.637C65.0962 122.266 64.9486 122.782 65.2932 123.356C65.4774 123.688 65.5726 124.044 65.6679 124.399C66.203 125.685 66.6492 126.995 67.1843 128.281C67.5114 129.146 67.7735 130.124 68.1244 131.078C68.9245 130.863 69.523 130.608 70.2342 130.417C70.9454 130.227 71.7693 130.101 72.4805 129.91C72.5136 127.901 71.2401 123.859 69.511 120.606C68.887 119.344 68.263 118.082 67.177 117.23ZM97.2104 67.1628C97.8629 67.4644 98.6217 67.4516 99.2028 67.4865C101.527 67.626 103.81 67.9671 106.034 68.8004C106.977 69.1194 107.92 69.4384 108.863 69.7574C109.806 70.0764 110.743 70.016 111.721 69.754C111.921 68.3664 112.233 67.044 112.231 65.6152C110.341 66.0266 108.745 65.406 107.085 64.8981C105.738 64.4966 104.416 64.184 103.07 63.7824C102.666 63.6999 102.198 63.7301 101.706 63.6714C101.214 63.6127 100.882 63.7969 100.485 64.0938C99.6502 64.8892 98.7264 65.7085 97.8676 66.415C97.5596 66.6881 97.4295 66.9135 97.2104 67.1628ZM71.6687 105.545C72.5769 106.445 73.42 107.458 74.417 108.334C75.5744 109.453 76.9096 110.525 78.067 111.644C78.7259 112.325 79.3848 113.006 79.8659 113.734C81.0535 115.322 82.2649 116.998 82.9668 118.906C83.0144 119.084 83.151 119.238 83.2875 119.392C83.3764 119.368 83.4653 119.345 83.4653 119.345C84.0667 116.611 84.022 113.955 82.3295 111.55C81.8961 110.999 81.4388 110.359 80.9403 109.921C80.0322 109.021 79.2129 108.097 78.2635 107.399C76.614 106.221 75.0295 104.93 73.5752 103.414C73.4386 103.261 73.2132 103.13 72.9639 102.911C72.2179 103.683 72.0116 104.691 71.6687 105.545ZM97.976 52.9511C96.1427 56.7772 96.4494 60.4111 97.6515 64.1861C97.9182 64.1147 98.0071 64.0908 98.1611 63.9543C98.9786 63.4494 99.7485 62.7667 100.59 62.3507C101.431 61.9347 101.845 61.3472 101.874 60.3868C101.891 60.0963 101.933 59.8947 101.95 59.6041C101.996 58.3532 102.244 57.1434 102.693 55.975C102.994 55.3225 103.207 54.6938 103.259 53.8222C101.64 53.1127 99.8492 52.8303 97.976 52.9511ZM64.5547 120.6C63.1974 120.869 62.445 121.261 61.3195 122.039C59.1574 123.571 57.6304 125.695 56.2399 127.974C56.1748 128.086 56.2224 128.264 56.1574 128.377C57.6768 129.78 60.2217 131.099 62.0124 131.381C62.3076 130.35 62.5139 129.341 62.5424 128.381C62.5598 128.09 62.5535 127.711 62.6836 127.486C63.163 126.785 63.328 125.979 63.4042 125.196C63.5279 124.591 63.7644 124.052 63.9771 123.423C64.4088 122.545 64.5501 121.65 64.5547 120.6ZM60.5151 54.318C61.2378 58.7932 63.5607 62.8396 66.7773 65.5985C67.5536 65.2952 68.1219 64.5712 68.7378 64.0251C68.8917 63.8885 68.9981 63.5742 68.9266 63.3075C68.9441 63.017 68.7599 62.6852 68.6884 62.4185C67.8564 60.7358 67.0006 58.9642 66.7909 57.1147C64.7619 55.9433 62.8456 54.837 60.5151 54.318ZM81.633 79.4357C82.2204 79.85 82.6951 80.1992 83.146 80.4596C84.8368 81.4357 86.4626 82.5246 87.9343 83.7501C88.9075 84.5374 90.0347 85.1882 91.1619 85.839C91.5001 86.0343 91.9272 86.2057 92.3304 86.2882C94.507 86.9436 96.7422 87.107 99.0362 86.7782C99.1251 86.7543 99.279 86.6178 99.3441 86.5051C98.49 86.1622 97.547 85.8432 96.7818 85.4766C94.4861 84.3766 92.4746 82.9147 90.3741 81.4765C88.8611 80.4527 87.2418 79.7432 85.6637 78.8321C84.5365 78.1813 83.2855 78.1354 82.16 78.9134C82.1188 79.115 81.941 79.1627 81.633 79.4357ZM98.3064 111.08C97.662 112.587 97.4162 115.225 97.6973 117.341C98.0436 119.345 98.366 121.259 99.4885 122.96C101.208 122.975 102.262 121.931 103.292 120.797C102.757 119.511 101.801 118.433 101.646 117.141C101.49 115.849 101.31 114.468 101.22 113.063C100.294 112.453 99.4749 111.529 98.3064 111.08ZM90.3062 103.981C91.3747 105.124 92.6083 105.461 94.0068 104.991C94.2735 104.919 94.653 104.913 94.9197 104.841C95.9214 104.668 96.8104 104.43 97.7406 103.99C98.4042 103.622 99.0265 103.455 99.7139 103.176C101.089 102.617 102.528 101.945 103.944 101.185C103.606 100.989 103.494 100.924 103.292 100.883C101.922 100.393 100.428 100.507 99.0643 100.396C98.2817 100.32 97.5705 100.51 96.8418 100.992C96.2021 101.449 95.4735 101.93 94.8337 102.387C94.5909 102.547 94.2591 102.732 94.1161 102.198C94.7559 101.741 95.3718 101.195 95.9877 100.649C95.875 100.584 95.7623 100.519 95.6496 100.453C93.6397 100.42 91.7967 101.009 90.0251 101.865C89.6933 102.049 89.4742 102.299 89.1663 102.572C89.0123 102.708 89.1314 103.153 89.333 103.194C89.6473 103.3 90.0268 103.294 90.4062 103.288C90.3887 103.578 90.3475 103.78 90.3062 103.981ZM74.8127 57.5379C75.7 55.8709 76.0173 53.4991 75.7012 51.964C74.4503 51.9181 73.1342 51.9849 71.9134 52.4073C70.0942 53.0853 68.2749 53.7633 66.4557 54.4414C66.2779 54.489 65.9223 54.5843 65.9525 55.0526C66.9019 55.751 67.964 56.5145 69.0023 57.1892C69.2277 57.3193 69.5421 57.4257 69.8326 57.4431C71.617 57.3461 73.2236 57.2967 74.8127 57.5379ZM110.054 59.6241C109.319 59.7257 108.561 59.7385 107.849 59.9291C106.806 60.3038 105.876 60.7436 104.833 61.1184C104.744 61.1422 104.679 61.2549 104.59 61.2788C104.087 61.89 103.489 62.1456 102.825 62.514C102.671 62.6505 102.404 62.722 102.589 63.0538C103.306 63.2426 104.136 63.4966 104.854 63.6854C106.402 64.1282 107.926 64.4821 109.474 64.9249C110.393 65.155 111.33 65.0946 112.26 64.6548C112.317 62.7339 111.331 61.1877 110.054 59.6241ZM40.6908 45.0517C39.8512 46.8965 39.4496 48.2428 39.4514 49.6716C39.3072 53.0451 39.5424 56.4122 40.0682 59.7968C40.0984 60.2651 40.3302 60.7747 40.5446 61.5748C40.7334 60.8572 40.816 60.454 40.8985 60.0507C41.2222 58.0583 41.4331 56.0009 41.8457 53.9847C42.4297 51.5414 42.2549 49.1109 42.5484 46.6502C41.9371 46.147 41.3259 45.6438 40.6908 45.0517ZM18.4227 84.272C18.253 86.1279 18.7422 88.6647 19.8426 91.7047C20.0442 91.746 20.3348 91.7634 20.6015 91.692C22.2905 91.2394 23.8907 90.8106 25.6926 90.4231C25.5322 90.1802 25.3956 90.0262 25.2591 89.8722C24.3271 88.8833 23.4841 87.8705 22.5759 86.9705C21.282 85.6974 20.0182 84.8926 18.4227 84.272ZM48.6031 82.7597C49.4381 81.9643 49.8698 81.0863 50.2778 80.1195C49.2807 79.2433 48.3726 78.3432 47.3755 77.467C46.9008 77.1177 46.4023 76.6796 45.8625 76.4431C44.6052 76.0178 43.2827 75.7052 42.0254 75.2798C41.6221 75.1973 41.2427 75.2037 40.8633 75.2101C40.9109 75.3879 40.9109 75.3879 40.9347 75.4768C42.6859 77.3896 44.4372 79.3024 46.2773 81.1914C46.96 81.9613 47.6839 82.5296 48.6031 82.7597ZM104.007 54.4794C103.15 56.6147 102.495 58.7913 102.557 61.1567C103.487 60.7169 104.239 60.3247 105.04 60.1103C106.195 59.8006 107.464 59.556 108.619 59.2464C108.797 59.1987 109.064 59.1273 109.307 58.9669C108.29 56.9524 106.071 55.0698 104.007 54.4794ZM81.7642 109.796C81.472 108.349 80.6051 107.248 79.7144 106.057C78.8237 104.867 77.933 103.676 76.9772 102.598C76.0452 101.609 75.1545 100.419 73.9559 99.5012C73.7432 100.13 73.5067 100.67 73.3591 101.186C73.1877 101.613 73.283 101.968 73.5799 102.365C73.8529 102.673 74.0371 103.005 74.3991 103.289C75.42 104.254 76.4408 105.219 77.503 105.983C78.9271 107.03 80.2623 108.102 81.4673 109.399C81.515 109.577 81.6277 109.642 81.7642 109.796ZM62.9078 131.523C64.4081 131.788 65.7892 131.608 67.1465 131.34C66.9304 129.111 65.6871 125.537 64.636 124.104C64.2455 124.78 63.9439 125.433 63.844 126.127C63.5377 127.828 63.2315 129.53 62.9078 131.523ZM39.0302 44.5439C39.362 44.3597 39.3794 44.0692 39.2191 43.8263C38.6014 42.9437 37.9838 42.0611 37.2773 41.2023C34.8846 38.3179 32.5158 35.5225 30.1231 32.6382C29.8501 32.3302 29.577 32.0222 29.3039 31.7143C28.2116 30.4825 27.1843 29.1379 26.092 27.9061C24.4773 26.1472 22.8627 24.3884 21.2718 22.7184C21.0225 22.4994 20.9034 22.0549 20.3462 22.1089C20.5368 22.8201 20.9702 23.3709 21.4926 23.8979C23.0183 25.6806 24.5203 27.3744 26.0461 29.157C28.3673 31.7747 30.6234 34.505 33.0096 37.01C34.5767 38.591 36.1024 40.3737 37.2726 42.2516C37.8664 43.0453 38.4602 43.8391 39.0302 44.5439ZM46.5157 47.5881C49.4668 46.5115 51.486 44.446 53.6829 42.3328C53.3924 42.3153 53.1908 42.2741 53.1019 42.2979C51.816 42.833 50.4413 43.3919 48.9712 43.5953C48.7934 43.6429 48.7046 43.6667 48.5268 43.7144C47.7092 44.2193 46.9568 44.6114 46.1392 45.1164C45.8074 45.3005 45.363 45.4196 45.0312 45.6038C44.6994 45.788 44.4327 45.8595 44.012 46.0675C44.8074 46.9024 45.7028 47.0437 46.5157 47.5881ZM80.9916 78.4642C81.9044 78.3149 82.4488 77.502 83.1537 76.9321C83.2187 76.8193 83.3727 76.6828 83.3251 76.505C83.2472 75.8589 83.2583 75.1889 83.0915 74.5666C82.9724 74.1221 82.7406 73.6126 82.5326 73.1919C82.3008 72.6823 81.9801 72.1966 81.7482 71.687C80.9639 70.1821 80.1795 68.6772 79.3713 67.0833C79.3777 67.4628 79.2475 67.6882 79.2952 67.866C79.4857 68.5772 79.6112 69.4011 79.8018 70.1123C80.5164 72.7793 81.1421 75.4701 80.855 78.3102C80.8789 78.3991 80.8789 78.3991 80.9916 78.4642ZM103.837 119.984C104.63 119.39 105.832 117.83 106.435 116.525C105.373 115.761 104.198 114.933 103.047 114.193C102.822 114.063 102.531 114.045 102.217 113.939C102.13 115.392 102.292 117.063 102.666 118.106C102.946 118.794 103.225 119.481 103.837 119.984ZM72.935 98.5361C72.4016 98.679 72.1111 98.6616 71.7555 98.7568C71.4888 98.8283 71.2221 98.8998 71.0681 99.0363C69.1012 100.23 66.9915 100.891 64.7928 101.575C64.5261 101.647 64.3721 101.783 64.0165 101.879C64.1531 102.033 64.2658 102.098 64.3547 102.074C66.2994 102.22 68.1965 102.188 70.1349 101.954C71.8065 101.792 72.0256 101.543 72.5335 99.8823C72.7287 99.5442 72.8112 99.1409 72.935 98.5361ZM88.1773 103.504C87.555 103.67 87.4487 103.985 87.2773 104.412C87.1297 104.928 87.0059 105.533 86.8583 106.049C86.3806 108.178 86.4189 110.454 86.5223 112.618C86.5699 112.796 86.5938 112.885 86.7779 113.216C87.6223 110.322 88.4491 107.719 89.3173 104.913C88.9076 104.451 88.5869 103.966 88.1773 103.504ZM67.5625 57.8608C67.9976 59.8404 68.7169 61.4581 69.7029 63.0042C70.4077 62.4342 71.1125 61.8643 71.8173 61.2943C70.8314 59.7481 69.6501 58.5401 67.5625 57.8608ZM25.1243 91.147C24.2115 91.2964 23.2748 91.3568 22.4509 91.4822C21.4254 91.5665 20.584 91.9825 19.903 92.6414C19.7682 93.9162 19.7682 93.9162 20.0715 94.6924C21.4939 94.3113 23.3956 93.23 24.5386 92.1615C24.7576 91.9123 25.2021 91.7932 25.1243 91.147ZM70.2248 58.1955C71.1806 59.2734 71.9522 60.0195 72.6349 60.7894C73.3048 60.8004 73.5413 60.2606 73.7365 59.9225C74.0858 59.4478 74.435 58.9731 74.5349 58.2793C73.2299 57.6762 71.8726 57.9446 70.2248 58.1955ZM46.4821 44.2622C46.3693 44.1972 46.2328 44.0432 46.2328 44.0432C44.8755 44.3116 43.6007 44.1768 42.237 44.0657C41.8576 44.0721 41.4543 43.9896 40.986 44.0198C40.8082 44.0675 40.6304 44.1151 40.2986 44.2993C41.2893 44.7961 42.0545 45.1627 42.8197 45.5294C44.0643 45.1959 45.5169 45.2831 46.4821 44.2622ZM104.576 113.497C105.549 114.285 106.386 114.918 107.335 115.617C107.951 115.07 108.478 114.548 108.643 113.742C107.048 113.121 106.265 113.045 104.576 113.497ZM51.6903 76.5014C52.4887 74.8582 52.3917 73.0738 52.3186 71.3784C52.3598 71.1767 52.1106 70.9577 52.0391 70.691C51.8851 70.8275 51.8851 70.8275 51.8851 70.8275C51.7567 72.4817 51.741 74.201 51.6125 75.8552C51.684 76.1219 51.6427 76.3236 51.6903 76.5014ZM50.419 79.2241C50.5666 78.7081 50.6729 78.3938 50.7792 78.0795C50.014 77.7128 49.3139 77.2334 48.2883 77.3177C48.9472 77.9987 49.4934 78.6146 50.419 79.2241ZM78.2008 79.7837C78.177 79.6948 78.2421 79.5821 78.2182 79.4932C77.9515 79.5646 77.6848 79.6361 77.3292 79.7314L77.3531 79.8203C77.6436 79.8377 77.9103 79.7663 78.2008 79.7837ZM77.0035 94.8733C76.9384 94.986 77.0512 95.0511 77.0512 95.0511C77.1401 95.0273 77.1162 94.9384 77.0035 94.8733C77.0924 94.8495 77.1162 94.9384 77.0035 94.8733ZM86.9118 101.27L86.888 101.181L86.9118 101.27Z" fill="#D9A35A"></path> <path d="M62.3929 53.1482C65.8234 51.3715 68.6903 49.2693 72.1812 48.4292C72.0383 47.8958 71.8605 47.9435 71.6827 47.9911C69.9047 48.4675 68.2395 49.009 66.6933 49.995C65.0582 51.0048 63.3517 51.7479 61.5801 52.6038C61.2483 52.7879 60.8689 52.7943 60.4895 52.8007C59.9084 52.7658 57.5477 51.7786 56.7348 51.2341C57.1078 50.8483 57.6174 50.6165 58.1032 50.2958C58.5 49.9989 58.8969 49.702 59.3826 49.3813C61.0828 48.2587 62.7353 46.9584 64.572 45.9899C64.8149 45.8295 64.9689 45.693 64.8736 45.3374C64.7847 45.3612 64.5831 45.3199 64.4942 45.3437C63.7417 45.7359 62.9654 46.0392 62.3257 46.4965C60.7795 47.4825 59.3461 48.5335 57.9126 49.5846C57.184 50.0657 56.3664 50.5706 55.6378 51.0517C54.7186 50.8216 53.9121 50.6565 53.0104 50.1359C54.4374 48.7054 56.1614 47.6718 57.5234 46.354C58.8854 45.0362 60.5204 44.0264 62.173 42.7261C61.5205 42.4245 61.2125 42.6976 60.9696 42.858C59.5123 43.8201 58.1916 44.9363 56.8709 46.0524C55.5089 47.3702 54.0104 48.534 52.3515 49.4549C52.1737 49.5025 52.0197 49.6391 51.6641 49.7344C50.4956 49.2852 49.2145 48.7709 48.046 48.3218C47.9269 47.8773 48.2825 47.782 48.4365 47.6454C49.8525 46.8849 51.0843 45.7926 52.2272 44.7241C53.8734 43.0443 55.6322 41.4297 57.7118 40.3007C59.7025 39.1956 61.7582 37.9778 64.0283 37.5601C65.4745 37.2679 66.4588 37.3853 68.1671 38.0709C67.9242 38.2313 67.7464 38.2789 67.5035 38.4393C67.0828 38.6473 66.5733 38.8791 66.1526 39.0871C66.0637 39.111 66.0462 39.4015 65.9812 39.5142C66.3431 39.7983 66.5622 39.5491 66.74 39.5014C67.3385 39.2458 67.937 38.9901 68.6482 38.7996C69.6261 38.5376 70.4802 38.8804 71.228 39.5376C71.6138 39.9106 71.9107 40.3075 72.2965 40.6805C71.8107 41.0012 71.4139 41.2981 71.017 41.595C71.3615 42.1697 71.6457 41.8077 72.0013 41.7124C72.3569 41.6171 72.7125 41.5218 73.0919 41.5155C74.4573 43.0552 75.402 44.803 75.861 46.8716C75.4403 47.0796 75.0197 47.2876 74.5101 47.5194C74.9673 48.1591 75.5832 47.613 76.0103 47.7844C76.4089 48.9162 76.4931 49.9418 76.2043 51.3531C75.6471 51.4071 75.0899 51.4612 74.5326 51.5152C72.9499 51.6534 71.4148 51.9695 69.886 52.665C68.5351 53.3128 67.1365 53.7828 65.7618 54.3418C65.3411 54.5498 64.9379 54.4672 64.5997 54.272C63.8107 53.8164 63.2709 53.58 62.3929 53.1482ZM66.6737 43.5211C66.099 43.8656 65.8387 44.3165 66.0641 44.4467C66.515 44.707 66.6864 44.2799 67.042 44.1846C67.1309 44.1608 67.2611 43.9354 67.3262 43.8226C67.3913 43.7099 67.3674 43.621 67.2547 43.5559C67.2309 43.467 67.1182 43.402 67.0293 43.4258C66.9404 43.4496 66.7626 43.4972 66.6737 43.5211ZM65.2049 39.8175C64.4048 40.0319 63.8476 40.0859 63.7953 40.9575C64.4414 40.8796 64.7732 40.6954 65.2049 39.8175ZM69.7486 41.8396C69.5708 41.8873 69.393 41.9349 69.1263 42.0064C69.0374 42.0302 68.9723 42.1429 68.8834 42.1667C68.8183 42.2794 68.8421 42.3683 68.866 42.4572C68.8898 42.5461 69.0025 42.6112 69.0914 42.5874C69.5835 42.6461 69.7375 42.5096 69.7486 41.8396ZM62.8237 41.5989C62.9365 41.664 63.0492 41.7291 63.1619 41.7941C63.227 41.6814 63.2921 41.5687 63.3571 41.456L63.1317 41.3258C62.9539 41.3735 62.8888 41.4862 62.8237 41.5989ZM73.6513 48.2259C73.5322 47.7814 73.5973 47.6687 73.5734 47.5798C73.4845 47.6036 73.3067 47.6512 73.2178 47.6751C73.2178 47.6751 73.1766 47.8767 73.2655 47.8529C73.2893 47.9418 73.402 48.0069 73.6513 48.2259Z" fill="white"></path> <path d="M71.4653 102.646C70.9273 103.838 70.5844 104.692 70.0876 105.683C69.4177 105.672 68.8367 105.637 68.1905 105.715C67.9 105.698 67.7222 105.745 67.4793 105.906C67.3904 105.929 67.3254 106.042 67.3492 106.131C67.373 106.22 67.4206 106.398 67.5095 106.374C67.7112 106.415 67.9128 106.456 68.1144 106.498C68.6065 106.556 69.1638 106.502 69.7448 106.537C69.5925 108.103 68.7401 109.189 68.2909 110.357C66.8273 110.94 65.2922 111.256 64.0603 112.348C64.0905 112.816 64.3811 112.834 64.6239 112.673C65.578 112.323 66.5083 111.883 67.6163 111.395C67.6227 111.775 67.6053 112.065 67.4989 112.38C67.2863 113.008 67.0736 113.637 66.8609 114.266C66.2641 115.95 65.6674 117.634 65.0944 119.408C64.7388 119.503 64.4071 119.687 63.9626 119.806C62.4989 120.389 61.148 121.037 60.005 122.105C58.8621 123.174 57.8081 124.219 56.9382 125.595C56.5478 126.271 56.0207 126.794 55.5414 127.494C54.1347 126.156 53.7472 124.354 52.8501 122.784C53.731 120.737 54.6357 118.78 56.466 117.432C57.3248 116.725 58.2963 116.084 59.1551 115.378C59.552 115.081 59.925 114.695 60.3219 114.398C60.4108 114.374 60.3393 114.107 60.2917 113.93C59.4678 114.055 58.9408 114.577 58.3661 114.922C57.8153 115.355 57.1517 115.724 56.6247 116.246C55.9849 116.703 55.4579 117.226 54.9547 117.837C54.4277 118.359 54.1261 119.012 53.7119 119.599C53.2976 120.187 52.996 120.839 52.5404 121.628C52.3324 121.208 52.2848 121.03 52.2133 120.763C51.856 119.43 51.7003 118.137 51.6335 116.821C51.5795 116.264 51.7271 115.748 52.189 115.338C53.8764 113.457 55.8369 111.884 57.9577 110.553C59.1721 109.751 60.4341 109.127 61.6485 108.325C61.7374 108.302 61.8676 108.076 61.82 107.898C61.7961 107.81 61.5707 107.679 61.4818 107.703C61.0373 107.822 60.5928 107.941 60.1721 108.149C57.6068 109.599 55.1542 111.114 53.0461 113.203C52.8271 113.452 52.5842 113.613 52.1873 113.91C52.246 113.418 52.1746 113.151 52.3047 112.925C52.819 111.644 53.2443 110.387 53.8951 109.26C55.5459 106.531 57.8556 104.482 60.8242 103.115C61.002 103.068 61.1798 103.02 61.4703 103.037C62.988 103.012 64.5295 103.075 66.136 103.026C67.2743 103.007 68.4126 102.988 69.527 102.88C69.9715 102.76 70.6176 102.683 71.4653 102.646ZM62.8089 106.966C63.3074 107.405 63.7996 107.463 64.3504 107.03C64.4393 107.006 64.4806 106.804 64.4806 106.804C64.4567 106.715 64.2964 106.473 64.2075 106.496C63.6026 106.373 63.1343 106.403 62.8089 106.966ZM61.9744 113.098C62.176 113.139 62.4015 113.269 62.5793 113.221C62.846 113.15 62.9523 112.836 62.7919 112.593C62.7681 112.504 62.4538 112.397 62.276 112.445C62.0982 112.493 61.8553 112.653 61.9744 113.098ZM65.6601 106.584C65.9506 106.601 66.0395 106.577 66.2411 106.619C66.2173 106.53 66.2586 106.328 66.2347 106.239C66.2109 106.15 66.0093 106.109 65.9204 106.133C65.7426 106.18 65.7013 106.382 65.6601 106.584Z" fill="white"></path> <path d="M38.8675 101.185C39.3771 100.953 39.4119 100.372 39.5595 99.8563C40.9721 96.2382 41.5782 92.4551 41.8462 88.4767C42.4859 88.0194 43.1733 87.74 43.8845 87.5494C44.3354 87.8097 44.3418 88.1891 44.4609 88.6336C44.6706 90.4831 44.6787 92.2913 44.4201 94.1709C44.3376 94.5742 44.3439 94.9536 44.3503 95.333C44.7774 95.5044 44.9075 95.279 44.925 94.9885C45.355 92.6817 45.4056 90.3814 45.1657 88.0636C45.1593 87.6842 45.0878 87.4175 45.0815 87.0381C46.3197 86.3252 47.469 85.6361 48.7072 84.9232C48.9152 85.3439 49.0756 85.5868 49.0819 85.9662C49.2376 87.2584 49.3282 88.6634 49.4839 89.9556C49.4903 90.335 49.6094 90.7795 49.6158 91.1589C50.019 91.2415 50.1492 91.016 50.1905 90.8144C50.2887 88.6919 50.2091 86.617 49.5724 84.5961C49.5247 84.4183 49.5009 84.3294 49.4533 84.1516C49.7374 83.7896 49.9088 83.3626 50.193 83.0006C50.3469 82.864 50.5009 82.7275 50.6311 82.502C51.2423 83.0052 51.2313 83.6752 51.4869 84.2737C51.5584 84.5404 51.7426 84.8721 52.2521 84.6403C52.2092 83.4132 51.5677 82.4416 51.0152 81.4463C51.2691 80.616 51.523 79.7857 51.8659 78.9316C52.3167 79.1919 52.4359 79.6364 52.555 80.0809C52.8948 81.7049 53.3474 83.394 53.6873 85.018C53.8366 85.9308 53.897 86.8675 53.6907 87.8756C53.4414 87.6565 53.216 87.5264 52.8778 87.3311C52.8842 87.7105 52.8017 88.1138 52.9383 88.2678C53.5448 89.8203 53.3687 91.2967 52.8132 92.7795C52.2815 94.3512 51.9515 95.9642 50.9927 97.3645C50.8626 97.5899 50.7086 97.7265 50.2466 98.1361C50.3466 97.4423 50.4291 97.0391 50.4227 96.6597C50.4164 96.2802 50.4338 95.9897 50.4274 95.6103C50.4448 95.3198 50.4623 95.0293 50.367 94.6737C50.3432 94.5848 50.2066 94.4308 50.0939 94.3657C49.8923 94.3244 49.7383 94.461 49.7209 94.7515C49.6622 95.2437 49.7162 95.8009 49.7464 96.2692C49.783 97.1169 49.5529 98.0361 49.299 98.8664C49.1275 99.2935 48.8434 99.6555 48.5593 100.017C48.0323 100.54 47.4814 100.973 46.9544 101.496C46.2496 102.066 45.4559 102.659 44.7511 103.229C44.5971 103.366 44.4193 103.414 44.2415 103.461C43.8557 103.088 44.6017 102.317 43.7064 102.175C43.4937 102.804 43.3699 103.409 43.1334 103.949C43.0271 104.263 42.9208 104.577 42.6779 104.738C40.9126 105.973 39.0283 106.764 36.6867 106.915C36.7931 106.6 36.8994 106.286 37.0295 106.061C37.8279 104.417 38.5374 102.798 38.8675 101.185ZM52.8174 86.3945C52.9889 85.9674 53.0063 85.6769 52.6443 85.3928C52.5316 85.3277 52.2887 85.488 52.2887 85.488C52.1411 86.004 52.3253 86.3358 52.8174 86.3945ZM44.0841 100.74C44.4571 100.354 44.4507 99.9749 44.2427 99.5543C43.6919 99.9877 43.6919 99.9877 44.0841 100.74ZM44.3712 97.9001C44.4363 97.7873 44.6141 97.7397 44.6553 97.5381C44.7204 97.4253 44.6728 97.2475 44.6489 97.1586C44.4711 97.2063 44.2457 97.0761 44.0917 97.2127C43.8965 97.5508 44.033 97.7048 44.3712 97.9001ZM49.897 93.2751L49.9859 93.2513C50.0271 93.0497 50.0446 92.7591 50.0858 92.5575C50.0858 92.5575 49.7715 92.4512 49.6826 92.475C49.4397 92.6354 49.4223 92.9259 49.5826 93.1688C49.6954 93.2338 49.7843 93.21 49.897 93.2751Z" fill="white"></path> <path d="M43.2965 47.308C44.9634 48.1953 46.405 48.9525 47.9354 49.6858C48.2736 49.881 48.5229 50.1001 48.5292 50.4795C48.6501 52.3528 48.8836 54.2911 48.9155 56.1882C48.8475 58.7791 48.981 61.4112 49.2035 64.0195C49.2941 65.4244 49.8292 66.7103 50.631 67.9247C50.9279 68.3215 51.1598 68.8311 51.3916 69.3407C51.2138 69.3883 50.9471 69.4598 50.7693 69.5074C46.6846 69.5538 43.7713 67.5712 41.704 64.1233C41.3833 63.6375 41.4182 63.0565 41.542 62.4517C41.7529 60.3942 42.0766 58.4018 42.2876 56.3444C42.5985 53.5931 43.1999 50.8594 43.2203 48.0907C43.06 47.8478 43.2139 47.7113 43.2965 47.308Z" fill="white"></path> <path d="M84.7081 77.7534C85.7209 76.9104 86.6035 76.2927 87.4623 75.5862C87.8591 75.2893 88.3036 75.1702 88.7307 75.3416C89.8277 75.5241 90.9485 75.7955 91.9392 76.2923C95.4922 77.8176 98.9802 79.4556 102.681 80.465C104.834 81.0315 107.004 81.3076 109.25 80.801C109.339 80.7771 109.452 80.8422 109.564 80.9073C109.441 81.5122 109.068 81.898 108.718 82.3727C106.942 84.2779 104.774 85.4306 102.308 86.1865C102.041 86.2579 101.662 86.2643 101.372 86.2469C99.249 86.1486 97.3392 85.4217 95.6007 84.2677C93.7495 83.0487 92.0111 81.8947 90.1838 80.7645C88.5342 79.5867 86.6656 78.6582 84.7081 77.7534Z" fill="white"></path> <path d="M54.8159 52.6058C54.5764 55.6237 55.3387 58.4685 56.1899 61.2894C56.4042 62.0895 56.7314 62.9547 57.3664 63.5468C57.4791 63.6119 57.503 63.7008 57.5268 63.7897C58.1746 65.1406 59.0002 66.4439 60.0275 67.7885C58.6527 68.3474 57.4017 68.3015 56.1095 68.4571C54.8173 68.6128 53.5489 68.8574 52.3693 69.0782C50.6245 67.5448 49.9227 65.6366 49.7955 63.3839C49.7351 62.4473 49.5858 61.5345 49.5253 60.5978C49.4173 59.4834 49.3331 58.4579 49.3377 57.4085C49.2344 55.2447 49.1961 52.9682 49.0927 50.8044C49.045 50.6266 49.1101 50.5139 49.1514 50.3123C50.2722 50.5836 51.8677 51.2042 54.8159 52.6058Z" fill="white"></path> <path d="M25.8805 73.6979C28.0158 74.555 30.1099 75.6137 31.9436 77.1233C34.614 79.2663 36.8225 81.8188 39.031 84.3714C39.7137 85.1413 40.3964 85.9112 41.0791 86.6811C40.0425 87.4352 38.7677 87.3004 37.7247 87.6751C36.6817 88.0499 35.4784 88.1818 34.3227 88.4914C34.0496 88.1835 33.5749 87.8342 33.3018 87.5263C31.9602 86.0754 30.6837 84.5118 29.3183 82.972C27.5195 80.8814 25.5254 79.1289 23.0043 77.8988C22.4645 77.6623 21.9898 77.3131 21.4262 76.9877C22.5866 75.6287 24.2629 74.4172 25.8805 73.6979Z" fill="white"></path> <path d="M90.2401 53.5953C90.1878 54.4668 90.1593 55.4273 90.0181 56.3227C89.7357 58.1134 90.0343 59.9391 90.398 61.652C90.9523 64.0761 91.6192 66.5653 92.7307 68.9354C91.3687 70.2532 89.8226 71.2391 88.3478 72.4918C87.9382 72.0299 87.689 71.8108 87.5048 71.4791C86.3997 69.4884 85.3835 67.4739 84.6102 65.2991C84.2116 64.1672 83.8781 62.9226 83.5685 61.7669C83.0984 60.3683 83.0729 58.8506 83.1363 57.3091C83.1473 56.6392 83.4727 56.0756 84.1363 55.7072C85.6824 54.7212 87.389 53.9781 89.1908 53.5906C89.3686 53.543 89.5702 53.5842 89.8369 53.5128C89.9258 53.489 90.0385 53.554 90.2401 53.5953Z" fill="white"></path> <path d="M69.2738 110.475C69.942 109.057 70.5452 107.752 71.3023 106.311C71.6643 106.595 72.0024 106.79 72.2517 107.009C73.8838 108.477 75.427 109.97 77.0591 111.438C79.5756 113.717 81.2983 116.591 82.6003 119.672C83.0878 120.78 83.0831 121.829 82.7228 122.974C82.061 124.771 81.2864 126.503 79.7228 127.78C79.6339 127.803 79.545 127.827 79.3672 127.875C79.0703 127.478 79.0163 126.921 78.8972 126.476C78.4382 124.408 77.8015 122.387 76.8329 120.55C75.6802 118.382 74.4385 116.237 72.8 114.389C71.5061 113.116 70.5027 111.861 69.2738 110.475Z" fill="white"></path> <path d="M93.1312 105.988C93.3741 105.827 93.3503 105.738 93.4392 105.714C96.8476 105.278 99.905 103.887 103.004 102.294C103.667 101.926 104.355 101.646 105.131 101.343C106.098 101.751 107 102.272 107.819 103.195C106.977 103.611 106.201 103.915 105.473 104.396C104.744 104.877 104.128 105.423 103.512 105.969C103.607 106.325 103.809 106.366 104.052 106.206C104.627 105.861 105.266 105.404 105.841 105.059C106.327 104.739 106.925 104.483 107.547 104.316C108.525 104.054 108.864 104.249 109.28 105.091C109.784 105.908 109.934 106.821 110.083 107.734C110.155 108.001 110.137 108.291 110.143 108.671C108.359 108.768 106.527 108.687 104.886 109.317C104.53 109.412 104.109 109.62 103.778 109.805C103.689 109.828 103.647 110.03 103.428 110.279C104.3 110.332 105.029 109.851 105.764 109.749C106.499 109.647 107.21 109.457 107.88 109.468C108.639 109.455 109.421 109.531 110.18 109.518C110.383 110.988 110.283 111.682 109.414 113.059C109.123 113.041 108.898 112.911 108.607 112.894C107.285 112.581 105.832 112.494 104.499 112.851C103.965 112.994 103.473 112.935 102.998 112.586C102.322 112.196 101.622 111.716 100.963 111.035C101.295 110.851 101.603 110.578 101.846 110.418C101.934 110.394 101.887 110.216 101.863 110.127C101.839 110.038 101.726 109.973 101.638 109.997C101.193 110.116 100.772 110.324 100.263 110.556C99.5214 110.278 98.8864 109.686 98.0735 109.142C98.529 108.353 99.5784 108.357 99.9689 107.681C99.8498 107.236 99.5831 107.308 99.2275 107.403C98.475 107.795 97.8115 108.164 97.0828 108.645C95.5762 108 94.3775 107.083 93.1312 105.988ZM101.19 107.258L101.302 107.324C101.617 107.43 101.948 107.246 102.144 106.908C102.209 106.795 102.185 106.706 102.072 106.641C101.912 106.398 101.645 106.469 101.337 106.743C101.248 106.766 101.183 106.879 101.207 106.968C101.142 107.081 101.166 107.17 101.19 107.258Z" fill="white"></path> <path d="M47.9462 83.5071C47.5493 83.804 47.2413 84.0771 46.9096 84.2613C45.6713 84.9742 44.4982 85.5744 43.2362 86.1984C42.7266 86.4302 42.2583 86.4604 41.7836 86.1112C41.1247 85.4302 40.4007 84.8619 39.8308 84.1571C37.6223 81.6045 35.3249 79.0758 32.8085 76.7963C31.6987 75.855 30.4588 75.1392 29.2839 74.3106C28.8092 73.9613 28.3584 73.701 27.7059 73.3995C27.9487 73.2391 28.1027 73.1025 28.1916 73.0787C30.3078 72.7976 32.489 72.4037 34.5767 73.0829C35.0926 73.2305 35.5848 73.2892 36.1007 73.4368C37.1088 73.6431 37.9217 74.1876 38.8473 74.7971C40.8588 76.2591 42.5624 77.9941 44.2898 79.818C44.6756 80.191 44.9725 80.5879 45.2694 80.9848C46.0648 81.8197 46.9253 82.542 47.9462 83.5071Z" fill="white"></path> <path d="M111.555 70.5603C111.563 72.3685 111.524 73.9989 111.129 75.7246C110.24 75.9628 109.327 76.1121 108.343 75.9947C106.398 75.8488 104.625 75.2759 102.851 74.7029C99.4823 73.5094 96.0722 72.5175 92.6034 72.0177C92.4018 71.9764 92.2891 71.9113 91.9748 71.805C92.1938 71.5557 92.2351 71.3541 92.4129 71.3065C93.4256 70.4634 94.5511 69.6854 95.4274 68.6884C95.8655 68.1899 96.3989 68.0469 97.0688 68.058C99.1437 67.9784 101.136 68.3021 103.152 68.7147C104.765 69.0448 106.313 69.4876 107.909 70.1082C109.053 70.4684 110.263 70.716 111.555 70.5603Z" fill="white"></path> <path d="M78.2657 128.742C76.8084 129.704 75.1606 129.955 73.4651 130.028C72.4629 124.866 70.1987 120.327 67.336 116.044C67.8915 114.562 68.4232 112.99 68.866 111.442C69.5598 111.542 69.8567 111.939 70.1536 112.336C70.9728 113.259 71.6793 114.118 72.4097 115.066C74.0958 117.092 75.3851 119.414 76.4966 121.784C77.4239 123.822 77.9956 125.956 78.2117 128.185C78.3244 128.25 78.2831 128.452 78.2657 128.742Z" fill="white"></path> <path d="M33.5459 88.7963C31.5901 89.3204 29.7471 89.9095 27.8976 90.1192C26.9848 90.2685 26.2672 90.0797 25.6083 89.3987C24.8129 88.5637 24.0413 87.8176 23.311 86.8699C22.6044 86.0112 21.7678 85.3778 20.9311 84.7444C20.2071 84.1762 19.4181 83.7206 18.629 83.2651C18.5559 81.5696 19.3479 79.547 20.9225 77.6006C22.4768 78.4228 24.0961 79.1323 25.4964 80.091C26.6474 80.8307 27.6032 81.9085 28.5352 82.8975C30.1498 84.6563 31.6756 86.439 33.2014 88.2217C33.3379 88.3756 33.3617 88.4645 33.5459 88.7963Z" fill="white"></path> <path d="M38.9325 101.072C38.4229 101.303 38.2753 101.819 38.1039 102.246C37.7373 103.012 37.5722 103.818 37.1817 104.494C36.8151 105.26 36.3119 105.871 35.9214 106.547C33.6449 106.585 31.4271 106.132 29.2982 105.654C29.114 105.322 29.3569 105.162 29.5108 105.025C31.2697 103.411 32.6666 101.512 33.838 99.4828C35.6602 96.3267 36.741 92.8927 38.0473 89.589C38.1774 89.3635 38.2187 89.1619 38.325 88.8476C39.1251 88.6332 39.9728 88.5966 40.9984 88.5124C41.0937 88.868 41.1651 89.1347 41.1477 89.4252C40.8955 91.6843 40.821 93.8957 40.2783 96.1374C40.0069 97.2582 39.6228 98.3139 39.2387 99.3697C39.0499 100.087 38.7007 100.562 38.9325 101.072C38.9325 101.072 38.8674 101.184 38.9325 101.072Z" fill="white"></path> <path d="M110.923 76.7323C110.984 77.6689 110.73 78.4992 110.363 79.2645C110.103 79.7153 109.706 80.0122 109.172 80.1552C107.685 80.649 106.256 80.6507 104.756 80.3857C102.135 79.8494 99.555 79.1114 97.1466 77.9464C95.7289 77.2781 94.2699 76.8115 92.8522 76.1433C91.571 75.629 90.3311 74.9132 89.0086 74.6005C88.9197 74.6244 88.8721 74.4466 88.7594 74.3815C89.1499 73.7052 89.8785 73.2241 90.5659 72.9446C91.3421 72.6413 92.2137 72.6936 92.9725 72.6809C93.4409 72.6507 93.9568 72.7983 94.4728 72.9459C97.6098 73.6298 100.617 74.5392 103.647 75.5375C105.106 76.0041 106.63 76.358 108.154 76.7119C108.937 76.788 109.874 76.7276 110.923 76.7323Z" fill="white"></path> <path d="M22.3629 102.179C20.3688 100.426 19.7971 98.2928 19.889 95.7908C20.2208 95.6066 20.4636 95.4463 20.7303 95.3748C22.5258 94.6079 24.1608 93.5981 25.5879 92.1676C26.334 91.396 27.2404 90.8673 28.331 90.6703C29.9551 90.3304 31.5553 89.9017 33.0665 89.4967C33.2443 89.4491 33.3571 89.5142 33.4698 89.5792C33.4936 89.6681 33.5413 89.8459 33.5413 89.8459C32.346 91.786 31.3524 93.7673 29.9317 95.5772C27.7888 98.2476 25.3251 100.432 22.3629 102.179Z" fill="white"></path> <path d="M37.4122 88.998C37.3947 89.2885 37.3773 89.579 37.336 89.7806C36.2727 92.924 35.1855 95.9785 33.5823 98.8854C32.6299 100.665 31.4521 102.315 30.0012 103.656C29.3853 104.202 28.6805 104.772 27.9757 105.342C26.25 104.947 24.2449 103.865 23.2002 102.811C24.1479 102.08 24.9828 101.285 25.9544 100.643C27.8736 99.2717 29.2943 97.4618 30.7149 95.6519C31.9404 94.1801 32.8277 92.5132 33.715 90.8462C34.2769 89.7428 35.1182 89.3268 36.2088 89.1298C36.5644 89.0346 36.9438 89.0282 37.4122 88.998Z" fill="white"></path> <path d="M97.1072 64.9978C95.8515 66.0013 94.8928 67.4016 93.5006 68.251C92.9544 67.6351 92.6988 67.0366 92.5082 66.3254C91.8238 64.1267 91.1632 62.017 90.7455 59.7468C90.4643 57.6307 90.7642 55.5494 91.0879 53.557C92.4626 52.9981 95.0709 52.7756 97.1522 53.0755C97.1109 53.2771 97.0697 53.4787 97.0046 53.5914C95.8936 56.557 95.9685 59.6813 96.6895 62.7277C96.8324 63.2611 96.9515 63.7056 97.0055 64.2628C97.0532 64.4406 97.0119 64.6422 97.1072 64.9978Z" fill="white"></path> <path d="M66.1139 65.9687C64.4312 66.8007 62.7897 67.4311 61.1419 67.6821C57.3251 63.7501 55.0354 57.6938 55.6223 52.7724C55.8239 52.8137 56.1145 52.8311 56.3161 52.8724C56.832 53.02 57.3956 53.3454 57.8878 53.4041C59.1864 53.6278 59.7151 54.5343 60.0248 55.69C60.5489 57.6457 61.3396 59.5301 62.486 61.3191C62.9909 62.1367 63.5609 62.8415 64.0419 63.5701C64.7246 64.34 65.3184 65.1337 66.1139 65.9687Z" fill="white"></path> <path d="M82.2824 56.9666C82.5572 58.7033 82.6479 60.1083 82.9813 61.3529C83.2736 62.7991 83.6309 64.1326 84.1009 65.5311C84.5471 66.8408 85.1711 68.1029 85.7062 69.3887C86.2413 70.6746 87.0193 71.8001 87.6433 73.0621C86.34 73.8877 85.6718 75.3054 84.2971 75.8644C84.1843 75.7993 84.0716 75.7342 84.0478 75.6453C83.8032 74.3769 83.2268 73.2927 82.5616 72.2322C81.3676 70.2654 80.3276 68.162 79.4654 66.011C79.2097 65.4125 78.9779 64.9029 78.9 64.2568C78.8698 63.7885 79.0174 63.2725 79.165 62.7566C79.484 61.8135 79.892 60.8467 80.2999 59.8799C80.4713 59.4528 80.6665 59.1146 80.8618 58.7765C81.2999 58.278 81.738 57.7794 82.2824 56.9666Z" fill="white"></path> <path d="M93.7674 108.009C95.055 108.902 96.2299 109.731 97.292 110.494C96.7352 115.884 96.1367 116.14 98.4456 123.334C96.9994 123.626 95.5945 123.717 94.1831 123.428C93.7799 123.346 93.5306 123.127 93.3464 122.795C92.9543 122.042 92.716 121.153 92.5906 120.329C92.2902 117.075 92.2566 113.749 93.0056 110.499C93.2596 109.669 93.4484 108.952 93.7674 108.009Z" fill="white"></path> <path d="M90.0178 105.392C91.0799 106.155 92.0293 106.853 92.9787 107.552C92.7312 108.762 92.4598 109.882 92.325 111.157C92.1012 112.456 91.9664 113.731 91.8316 115.005C91.7856 116.256 91.8286 117.484 91.8716 118.711C91.9146 119.938 92.0464 121.141 92.1132 122.457C90.6478 121.611 89.5143 120.581 88.7775 119.254C88.225 118.259 87.7375 117.151 87.2501 116.042C87.0182 115.533 86.988 115.065 87.1356 114.549C87.8736 111.969 88.4989 109.324 89.4146 106.697C89.5861 106.269 89.7813 105.931 90.0178 105.392Z" fill="white"></path> <path d="M67.1772 117.23C68.2869 118.171 68.8221 119.457 69.5111 120.606C71.2641 123.948 72.5138 127.901 72.4806 129.911C71.7694 130.101 70.9455 130.227 70.2343 130.417C69.5231 130.608 68.9246 130.863 68.1245 131.078C67.7736 130.124 67.5116 129.146 67.1845 128.281C66.7383 126.971 66.2032 125.685 65.6681 124.399C65.5728 124.044 65.4775 123.688 65.2933 123.356C64.9488 122.782 65.0725 122.177 65.309 121.637C65.782 120.557 66.0534 119.437 66.5026 118.268C66.5851 117.865 66.7565 117.438 67.1772 117.23Z" fill="white"></path> <path d="M97.2104 67.1631C97.4295 66.9138 97.5596 66.6884 97.7136 66.5518C98.5486 65.7564 99.4963 65.026 100.331 64.2306C100.704 63.8448 101.06 63.7495 101.552 63.8082C102.044 63.8669 102.512 63.8367 102.916 63.9192C104.238 64.2319 105.584 64.6334 106.931 65.0349C108.591 65.5428 110.211 66.2523 112.078 65.752C112.079 67.1808 111.767 68.5033 111.567 69.8908C110.589 70.1528 109.652 70.2132 108.709 69.8942C107.766 69.5752 106.847 69.3451 105.88 68.9372C103.656 68.1039 101.373 67.7628 99.0488 67.6233C98.6218 67.4519 97.8629 67.4646 97.2104 67.1631Z" fill="white"></path> <path d="M71.6694 105.545C71.9884 104.602 72.2185 103.683 72.8519 102.846C73.1011 103.065 73.3266 103.195 73.4631 103.349C74.9174 104.865 76.4781 106.067 78.1514 107.334C79.1008 108.032 80.009 108.932 80.8282 109.856C81.3506 110.383 81.784 110.934 82.2174 111.485C83.91 113.89 83.9546 116.546 83.3532 119.279C83.3532 119.279 83.2643 119.303 83.1754 119.327C83.0389 119.173 82.9912 118.995 82.8547 118.841C82.1528 116.933 80.9652 115.346 79.7538 113.669C79.2727 112.941 78.6138 112.26 77.9549 111.579C76.7975 110.46 75.4623 109.388 74.3049 108.269C73.4206 107.458 72.6013 106.534 71.6694 105.545Z" fill="white"></path> <path d="M97.9758 52.9515C99.8729 52.9196 101.64 53.1131 103.283 53.9115C103.207 54.6942 103.018 55.4118 102.716 56.0643C102.267 57.2327 102.02 58.4425 101.974 59.6934C101.956 59.9839 101.915 60.1856 101.898 60.4761C101.845 61.3476 101.455 62.024 100.614 62.44C99.7722 62.856 99.0023 63.5387 98.1848 64.0436C98.0959 64.0674 97.9181 64.1151 97.6752 64.2754C96.5382 60.3876 96.1187 56.6887 97.9758 52.9515Z" fill="white"></path> <path d="M64.555 120.601C64.6393 121.627 64.4091 122.546 63.9774 123.424C63.7409 123.964 63.5282 124.592 63.4045 125.197C63.2394 126.004 63.1633 126.786 62.6839 127.486C62.5538 127.712 62.5601 128.091 62.5427 128.382C62.538 129.431 62.3317 130.439 62.0127 131.382C60.222 131.1 57.677 129.781 56.1577 128.377C56.2227 128.265 56.1751 128.087 56.2402 127.974C57.5418 125.72 59.0688 123.596 61.3198 122.04C62.4453 121.262 63.1977 120.869 64.555 120.601Z" fill="white"></path> <path d="M60.5158 54.3186C62.7575 54.8614 64.7626 55.9439 66.7678 57.0264C67.0902 58.9409 67.9222 60.6237 68.6653 62.3302C68.8257 62.5731 68.921 62.9287 68.9035 63.2192C68.975 63.4859 68.8687 63.8002 68.7147 63.9368C68.0988 64.4829 67.5305 65.2069 66.7542 65.5102C63.5853 62.9291 61.2624 58.8827 60.5158 54.3186Z" fill="white"></path> <path d="M81.6331 79.4364C81.9648 79.2522 82.0299 79.1395 82.2077 79.0918C83.3332 78.3139 84.4953 78.3836 85.7114 79.0106C87.2657 79.8328 88.9088 80.6312 90.4218 81.655C92.5223 83.0931 94.5338 84.5551 96.8294 85.655C97.6836 85.9979 98.5377 86.3407 99.3918 86.6835C99.3267 86.7963 99.1728 86.9328 99.0839 86.9566C96.7661 87.1965 94.5546 87.1221 92.3781 86.4666C91.9748 86.3841 91.5478 86.2127 91.2096 86.0175C90.1713 85.3429 89.0441 84.6921 87.982 83.9286C86.4213 82.7269 84.8845 81.6142 83.1937 80.638C82.6714 80.111 82.3094 79.8269 81.6331 79.4364Z" fill="white"></path> <path d="M98.3068 111.081C99.4753 111.53 100.383 112.43 101.22 113.063C101.4 114.444 101.555 115.736 101.646 117.141C101.825 118.523 102.757 119.512 103.293 120.797C102.238 121.842 101.184 122.887 99.489 122.96C98.3664 121.26 98.0202 119.256 97.6978 117.342C97.3277 115.249 97.6624 112.587 98.3068 111.081Z" fill="white"></path> <path d="M90.3066 103.982C90.3479 103.78 90.3891 103.578 90.4066 103.288C90.0271 103.294 89.7366 103.277 89.3334 103.194C89.1318 103.153 89.0127 102.708 89.1666 102.572C89.3857 102.323 89.6937 102.05 90.0254 101.865C91.797 101.01 93.6401 100.42 95.6499 100.454C95.7388 100.43 95.8516 100.495 95.9881 100.649C95.3722 101.195 94.7324 101.652 94.1165 102.198C94.3484 102.708 94.5912 102.548 94.8341 102.387C95.4738 101.93 96.2025 101.449 96.8422 100.992C97.482 100.534 98.1932 100.344 99.0647 100.396C100.517 100.483 101.922 100.393 103.292 100.883C103.494 100.924 103.631 101.078 103.945 101.185C102.44 101.969 101.113 102.706 99.7143 103.176C99.0269 103.455 98.3395 103.735 97.741 103.99C96.8346 104.519 95.9456 104.757 94.92 104.842C94.6533 104.913 94.2739 104.919 94.0072 104.991C92.6087 105.461 91.3751 105.124 90.3066 103.982ZM92.9847 102.597C92.356 102.384 91.8226 102.527 91.3194 103.138C92.0846 103.505 92.4989 102.918 92.9847 102.597Z" fill="white"></path> <path d="M74.8126 57.5383C73.1997 57.2082 71.5931 57.2576 69.9214 57.4196C69.6309 57.4022 69.3404 57.3848 69.0911 57.1657C68.0528 56.4911 66.9907 55.7276 66.0413 55.0291C66.0111 54.5608 66.2778 54.4894 66.5445 54.4179C68.3638 53.7399 70.1592 52.9729 72.0023 52.3838C73.223 51.9614 74.5391 51.8946 75.7901 51.9406C76.1061 53.4757 75.6999 55.8713 74.8126 57.5383Z" fill="white"></path> <path d="M110.054 59.6247C111.331 61.1883 112.317 62.7345 112.284 64.7443C111.353 65.1841 110.417 65.2445 109.498 65.0144C107.95 64.5716 106.402 64.1288 104.878 63.7749C104.071 63.6099 103.33 63.3321 102.612 63.1433C102.517 62.7877 102.671 62.6512 102.849 62.6035C103.423 62.259 104.111 61.9795 104.614 61.3683C104.679 61.2555 104.768 61.2317 104.857 61.2079C105.876 60.7443 106.806 60.3044 107.873 60.0186C108.537 59.6502 109.207 59.6613 110.054 59.6247Z" fill="white"></path> <path d="M40.6905 45.0519C41.3255 45.6439 41.9368 46.1471 42.5719 46.7392C42.2784 49.1999 42.4532 51.6304 41.8692 54.0737C41.4566 56.0899 41.2457 58.1473 40.922 60.1397C40.8395 60.543 40.7331 60.8573 40.5681 61.6638C40.3299 60.7748 40.1219 60.3541 40.0917 59.8858C39.5659 56.5012 39.3307 53.1341 39.4748 49.7606C39.4493 48.2429 39.8508 46.8966 40.6905 45.0519Z" fill="white"></path> <path d="M18.4221 84.2731C20.0415 84.9826 21.3941 85.7636 22.4626 86.9065C23.3708 87.8066 24.3027 88.7955 25.1458 89.8083C25.2823 89.9623 25.4189 90.1163 25.5792 90.3591C23.8012 90.8355 22.1121 91.2881 20.4881 91.628C20.2214 91.6995 20.0198 91.6582 19.7293 91.6408C18.7416 88.6658 18.2524 86.129 18.4221 84.2731Z" fill="white"></path> <path d="M48.6034 82.7603C47.5953 82.554 46.8714 81.9857 46.3014 81.2809C44.5502 79.3681 42.7101 77.4791 40.9589 75.5663C40.9589 75.5663 40.935 75.4774 40.8874 75.2996C41.2668 75.2932 41.6462 75.2868 42.0495 75.3693C43.3719 75.682 44.6055 76.0184 45.8866 76.5327C46.4264 76.7692 46.9011 77.1184 47.3996 77.5565C48.3729 78.3438 49.281 79.2439 50.3019 80.209C49.959 81.0631 49.4384 81.9649 48.6034 82.7603Z" fill="white"></path> <path d="M104.008 54.4791C106.096 55.1584 108.291 56.9522 109.331 59.0555C109.065 59.127 108.911 59.2635 108.644 59.335C107.488 59.6447 106.22 59.8893 105.064 60.1989C104.264 60.4133 103.423 60.8293 102.581 61.2453C102.471 58.7021 103.151 56.6144 104.008 54.4791Z" fill="white"></path> <path d="M81.7642 109.795C81.6277 109.641 81.5149 109.576 81.3784 109.422C80.1733 108.125 78.8381 107.054 77.414 106.006C76.3281 105.154 75.3072 104.188 74.3102 103.312C74.0371 103.004 73.764 102.696 73.4909 102.388C73.2179 102.08 73.0988 101.636 73.2702 101.209C73.4178 100.693 73.6543 100.153 73.8669 99.5244C75.0894 100.531 75.9563 101.633 76.8883 102.621C77.933 103.675 78.7348 104.89 79.6255 106.08C80.5813 107.158 81.472 108.349 81.7642 109.795Z" fill="white"></path> <path d="M62.9085 131.523C63.256 129.62 63.4495 127.853 63.8209 126.038C63.9208 125.344 64.2224 124.692 64.6129 124.016C65.7528 125.425 66.9962 128.999 67.1234 131.251C65.7899 131.609 64.4977 131.764 62.9085 131.523Z" fill="white"></path> <path d="M74.7976 93.7502C73.6117 93.5916 72.5734 92.917 71.7129 92.1947C70.6031 91.2534 69.6474 90.1756 68.6916 89.0977C67.7596 88.1088 67.0054 87.0722 66.1385 85.9705C64.8382 84.318 63.3601 82.7131 62.1899 80.8352C60.4259 78.1635 58.5731 75.5157 56.4535 72.9393C55.8835 72.2345 55.3135 71.5297 54.7197 70.7359C54.607 70.6709 54.6483 70.4692 54.6006 70.2914C54.9975 69.9945 55.3769 69.9882 55.65 70.2961C56.5407 71.4867 57.5203 72.6534 58.3221 73.8678C59.6764 76.0776 61.0959 78.1746 62.6042 80.2478C64.0887 82.232 65.4843 84.2401 67.0577 86.2006C68.3581 87.8531 69.7473 89.4818 71.2667 90.8851C72.0145 91.5422 72.9162 92.0629 73.7529 92.6962C74.1625 93.1581 74.6785 93.3057 74.7976 93.7502Z" fill="white"></path> <path d="M39.0297 44.5431C38.5486 43.8144 37.9548 43.0207 37.4737 42.2921C36.2147 40.438 34.7778 38.6315 33.2108 37.0504C30.7356 34.5693 28.4795 31.839 26.2472 29.1975C24.7214 27.4148 23.2195 25.7211 21.6937 23.9384C21.2602 23.3876 20.7379 22.8606 20.5473 22.1494C21.0157 22.1192 21.2237 22.5398 21.4729 22.7589C23.0876 24.5177 24.6784 26.1877 26.2931 27.9465C27.3854 29.1784 28.3889 30.434 29.505 31.7547C29.7781 32.0627 30.0512 32.3706 30.3243 32.6786C32.7169 35.5629 35.0857 38.3584 37.4784 41.2427C38.1849 42.1015 38.8026 42.9841 39.4202 43.8667C39.3789 44.0684 39.3615 44.3589 39.0297 44.5431Z" fill="white"></path> <path d="M46.5162 47.5899C45.7034 47.0454 44.808 46.9042 44.0126 46.0693C44.4332 45.8613 44.7888 45.766 45.0317 45.6056C45.3635 45.4214 45.808 45.3023 46.1398 45.1181C46.9811 44.7021 47.7098 44.2211 48.5273 43.7162C48.7051 43.6685 48.7702 43.5558 48.9718 43.597C50.418 43.3048 51.7277 42.8586 53.1024 42.2997C53.1913 42.2758 53.393 42.3171 53.6835 42.3346C51.4865 44.4477 49.4912 46.6022 46.5162 47.5899Z" fill="white"></path> <path d="M80.992 78.4642C80.9682 78.3753 80.8555 78.3102 80.8555 78.3102C81.1426 75.4701 80.5168 72.7793 79.8022 70.1123C79.6116 69.4011 79.3973 68.601 79.2956 67.8659C79.248 67.6882 79.3543 67.3738 79.3717 67.0833C80.1799 68.6771 80.9643 70.182 81.7487 71.6869C81.9805 72.1965 82.3012 72.6823 82.533 73.1918C82.741 73.6125 83.0618 74.0983 83.092 74.5666C83.2587 75.1889 83.2476 75.8588 83.3255 76.5049C83.3493 76.5938 83.2192 76.8193 83.1541 76.932C82.4493 77.502 81.9048 78.3149 80.992 78.4642Z" fill="white"></path> <path d="M103.837 119.984C103.226 119.481 102.858 118.818 102.667 118.106C102.292 117.063 102.13 115.392 102.217 113.939C102.532 114.046 102.822 114.063 103.048 114.193C104.199 114.933 105.285 115.785 106.436 116.525C105.921 117.806 104.72 119.367 103.837 119.984Z" fill="white"></path> <path d="M72.9351 98.5364C72.8114 99.1413 72.7288 99.5445 72.6463 99.9478C72.1384 101.608 71.8956 101.769 70.2477 102.02C68.3094 102.253 66.4123 102.285 64.4675 102.139C64.3786 102.163 64.331 101.985 64.1294 101.944C64.3961 101.873 64.639 101.712 64.9057 101.641C67.0154 100.98 69.2141 100.296 71.181 99.1017C71.4238 98.9414 71.6016 98.8937 71.8683 98.8223C72.0223 98.6857 72.4017 98.6793 72.9351 98.5364Z" fill="white"></path> <path d="M88.1767 103.504C88.5863 103.966 88.907 104.451 89.3166 104.913C88.4485 107.719 87.6216 110.322 86.7773 113.216C86.6169 112.974 86.5693 112.796 86.5217 112.618C86.4183 110.454 86.38 108.178 86.8577 106.049C87.0053 105.533 87.0401 104.952 87.2766 104.412C87.448 103.985 87.5306 103.582 88.1767 103.504Z" fill="white"></path> <path d="M67.5624 57.8603C69.6262 58.4507 70.8313 59.7476 71.8172 61.2938C71.1124 61.8638 70.4076 62.4338 69.7028 63.0038C68.7168 61.4576 67.9975 59.8399 67.5624 57.8603Z" fill="white"></path> <path d="M25.1245 91.1484C25.2023 91.7945 24.7578 91.9136 24.4499 92.1867C23.3069 93.2552 21.4052 94.3365 19.9828 94.7176C19.6795 93.9414 19.6795 93.9414 19.8143 92.6666C20.4953 92.0077 21.4256 91.5679 22.3622 91.5074C23.3878 91.4232 24.2117 91.2977 25.1245 91.1484Z" fill="white"></path> <path d="M70.2248 58.1953C71.8726 57.9444 73.141 57.6998 74.5349 58.2791C74.5239 58.949 74.0857 59.4476 73.7365 59.9223C73.4524 60.2842 73.281 60.7113 72.6349 60.7891C71.9521 60.0193 71.2694 59.2494 70.2248 58.1953Z" fill="white"></path> <path d="M46.483 44.2625C45.5178 45.2834 44.0652 45.1962 42.8445 45.6186C42.0792 45.2519 41.2902 44.7964 40.3234 44.3885C40.679 44.2932 40.8329 44.1566 41.0107 44.109C41.3902 44.1026 41.8585 44.0724 42.2617 44.1549C43.6016 44.177 44.9002 44.4008 46.2575 44.1324C46.3226 44.0196 46.3464 44.1085 46.483 44.2625Z" fill="white"></path> <path d="M104.576 113.499C106.265 113.046 107.024 113.033 108.554 113.767C108.389 114.573 107.838 115.006 107.246 115.642C106.409 115.008 105.549 114.286 104.576 113.499Z" fill="white"></path> <path d="M51.6907 76.5023C51.6431 76.3245 51.5954 76.1467 51.6367 75.9451C51.6762 74.3147 51.7809 72.5716 51.9093 70.9173C51.9093 70.9173 51.9744 70.8046 52.0633 70.7808C52.2236 71.0237 52.384 71.2666 52.3427 71.4682C52.4159 73.1636 52.4891 74.8591 51.6907 76.5023Z" fill="white"></path> <path d="M84.0987 98.5929C84.0336 98.7057 83.9447 98.7295 83.8796 98.8422C83.7907 98.866 83.5891 98.8248 83.4764 98.7597C82.0999 97.8898 80.7234 97.02 79.3708 96.2391C79.5724 96.2803 79.8391 96.2088 80.0646 96.339C80.9663 96.8596 81.8681 97.3803 82.7698 97.9009C83.2207 98.1612 83.6478 98.3326 84.0987 98.5929Z" fill="white"></path> <path d="M50.4188 79.2236C49.5171 78.703 48.9471 77.9982 48.2882 77.3172C49.3137 77.233 50.0139 77.7123 50.7791 78.079C50.6728 78.3933 50.5664 78.7077 50.4188 79.2236Z" fill="white"></path> <path d="M78.2014 79.7841C77.9109 79.7666 77.6442 79.8381 77.3536 79.8207L77.3298 79.7318C77.5965 79.6603 77.8632 79.5888 78.2188 79.4936C78.2426 79.5825 78.2665 79.6714 78.2014 79.7841Z" fill="white"></path> <path d="M79.3704 96.2402C79.056 96.1339 78.6528 96.0514 78.3384 95.945C78.7353 95.6481 78.9369 95.6894 79.3704 96.2402Z" fill="white"></path> <path d="M74.7965 93.7493C75.241 93.6302 75.6681 93.8016 75.7872 94.2461C75.3427 94.3652 75.0934 94.1461 74.7965 93.7493Z" fill="white"></path> <path d="M84.6045 99.4108C84.6934 99.387 84.7823 99.3632 84.8951 99.4283C85.0078 99.4933 85.0316 99.5822 85.0554 99.6711C84.9665 99.695 84.8538 99.6299 84.8538 99.6299C84.7173 99.4759 84.6934 99.387 84.6045 99.4108C84.6045 99.4108 84.5807 99.3219 84.6045 99.4108Z" fill="white"></path> <path d="M75.8599 79.9346C76.0616 79.9759 76.1743 80.041 76.3759 80.0822C76.0679 80.3553 76.0203 80.1775 75.8599 79.9346Z" fill="white"></path> <path d="M75.8599 79.9357C75.7059 80.0722 75.463 80.2326 75.309 80.3691L75.2852 80.2802C75.4392 80.1437 75.6821 79.9833 75.8599 79.9357Z" fill="white"></path> <path d="M77.0034 94.874C77.0923 94.8502 77.1161 94.9391 77.0034 94.874C77.1161 94.9391 77.0511 95.0518 77.0511 95.0518C77.0511 95.0518 77.0272 94.9629 77.0034 94.874Z" fill="white"></path> <path d="M86.9106 101.272L86.8866 101.182L86.9762 101.158L86.9106 101.272Z" fill="white"></path> <path d="M86.2536 100.588L86.1401 100.523L86.2296 100.499L86.2536 100.588Z" fill="white"></path> <path d="M84.0985 98.5946C84.2588 98.8375 84.443 99.1692 84.6034 99.4121C84.1763 99.2407 84.1049 98.974 84.0985 98.5946Z" fill="white"></path> <path d="M78.3151 95.8562C78.2912 95.7673 78.2674 95.6784 78.1309 95.5244L78.2436 95.5895C78.2674 95.6784 78.2912 95.7673 78.3151 95.8562Z" fill="white"></path> <path d="M75.7876 94.2459C75.9003 94.311 75.9892 94.2872 76.102 94.3522C76.0369 94.465 76.0369 94.465 75.9718 94.5777C75.948 94.4888 75.9003 94.311 75.7876 94.2459Z" fill="white"></path> <path d="M66.6736 43.5206C66.7625 43.4967 66.8514 43.4729 67.0292 43.4253C67.1181 43.4015 67.2308 43.4665 67.2546 43.5554C67.2784 43.6443 67.3022 43.7332 67.3261 43.8221C67.261 43.9349 67.107 44.0714 67.0419 44.1841C66.799 44.3445 66.5149 44.7065 66.064 44.4462C65.8386 44.316 66.0989 43.8651 66.6736 43.5206Z" fill="#D9A35A"></path> <path d="M65.206 39.8163C64.7743 40.6942 64.4425 40.8784 63.7964 40.9562C63.8726 40.1736 64.4298 40.1195 65.206 39.8163Z" fill="#D9A35A"></path> <path d="M69.7483 41.8402C69.6484 42.534 69.5833 42.6467 69.115 42.6769C69.0261 42.7007 68.9134 42.6356 68.8896 42.5467C68.8657 42.4578 68.8419 42.3689 68.907 42.2562C68.9721 42.1435 69.061 42.1197 69.1499 42.0958C69.3927 41.9355 69.5705 41.8878 69.7483 41.8402Z" fill="#D9A35A"></path> <path d="M62.8249 41.5975C62.89 41.4848 62.955 41.3721 63.0201 41.2594L63.2456 41.3895C63.1805 41.5023 63.1154 41.615 63.0503 41.7277C63.0503 41.7277 62.9376 41.6626 62.8249 41.5975Z" fill="#D9A35A"></path> <path d="M73.6515 48.2268C73.4022 48.0077 73.2895 47.9427 73.1768 47.8776C73.153 47.7887 73.1292 47.6998 73.1292 47.6998C73.2181 47.676 73.3958 47.6283 73.4847 47.6045C73.5086 47.6934 73.5324 47.7823 73.6515 48.2268Z" fill="#D9A35A"></path> <path d="M62.8072 106.967C63.1326 106.403 63.6898 106.349 64.2058 106.497C64.3185 106.562 64.455 106.716 64.4788 106.805C64.5027 106.894 64.4376 107.006 64.3487 107.03C63.774 107.375 63.2819 107.316 62.8072 106.967Z" fill="#D9A35A"></path> <path d="M61.9727 113.098C61.8536 112.654 62.0965 112.493 62.3632 112.422C62.541 112.374 62.8554 112.481 62.8792 112.569C63.0395 112.812 62.9332 113.127 62.6665 113.198C62.3998 113.27 62.1744 113.139 61.9727 113.098Z" fill="#D9A35A"></path> <path d="M65.6582 106.586C65.6994 106.384 65.7407 106.182 65.8296 106.159C65.9185 106.135 66.1201 106.176 66.1439 106.265C66.1677 106.354 66.2154 106.532 66.1503 106.644C66.0376 106.579 65.8598 106.627 65.6582 106.586Z" fill="#D9A35A"></path> <path d="M52.817 86.3961C52.301 86.2485 52.1406 86.0056 52.2882 85.4896C52.2644 85.4007 52.5311 85.3293 52.6438 85.3944C53.0058 85.6785 53.0122 86.0579 52.817 86.3961Z" fill="#D9A35A"></path> <path d="M44.0838 100.742C43.6027 100.013 43.6027 100.013 44.2424 99.5556C44.4504 99.9763 44.5457 100.332 44.0838 100.742Z" fill="#D9A35A"></path> <path d="M44.371 97.9005C43.9677 97.818 43.8963 97.5513 44.2042 97.2782C44.2693 97.1655 44.5836 97.2718 44.7614 97.2242C44.7853 97.3131 44.744 97.5147 44.7678 97.6036C44.59 97.6512 44.436 97.7878 44.371 97.9005Z" fill="#D9A35A"></path> <path d="M49.8969 93.2751C49.7842 93.21 49.6953 93.2339 49.6715 93.145C49.5111 92.9021 49.5524 92.7005 49.7714 92.4512C49.8603 92.4274 50.1509 92.4448 50.1747 92.5337C50.1334 92.7353 50.116 93.0258 50.0747 93.2275C49.9858 93.2513 49.9858 93.2513 49.8969 93.2751Z" fill="#D9A35A"></path> <path d="M101.189 107.258C101.165 107.169 101.141 107.08 101.118 106.992C101.183 106.879 101.248 106.766 101.248 106.766C101.556 106.493 101.935 106.487 101.983 106.664C102.007 106.753 102.03 106.842 102.054 106.931C101.948 107.245 101.616 107.43 101.213 107.347L101.189 107.258Z" fill="#D9A35A"></path> <path d="M92.9848 102.597C92.499 102.918 92.0847 103.506 91.3195 103.139C91.8227 102.528 92.3323 102.296 92.9848 102.597Z" fill="#D9A35A"></path> </svg> 