<?xml version="1.0" encoding="UTF-8"?> <svg xmlns="http://www.w3.org/2000/svg" width="50" height="50" viewBox="0 0 50 50" fill="none"> <path d="M25.0133 20.6829C22.6147 20.6829 20.6628 22.6062 20.6628 24.9706C20.6628 27.3347 22.6144 29.258 25.0133 29.258C27.4119 29.258 29.3638 27.3347 29.3638 24.9706C29.3638 22.6062 27.4119 20.6829 25.0133 20.6829ZM25.0133 27.6795C23.4881 27.6795 22.2475 26.4641 22.2475 24.9706C22.2475 23.4768 23.4881 22.2616 25.0133 22.2616C26.5382 22.2616 27.7791 23.4768 27.7791 24.9706C27.7791 26.4644 26.5385 27.6795 25.0133 27.6795Z" fill="#D9A35A"></path> <path d="M28.5356 16.6677H21.4634C18.8183 16.6677 16.6661 18.8113 16.6661 21.4464V28.5557C16.6661 31.1906 18.8181 33.3344 21.4634 33.3344H28.5356C31.1809 33.3344 33.3329 31.1906 33.3329 28.5557V21.4464C33.3329 18.8116 31.1809 16.6677 28.5356 16.6677ZM31.7452 28.5557C31.7452 30.3186 30.3053 31.7529 28.5356 31.7529H21.4634C19.6937 31.7529 18.2538 30.3186 18.2538 28.5557V21.4464C18.2538 19.6835 19.6937 18.2492 21.4634 18.2492H28.5356C30.3053 18.2492 31.7452 19.6835 31.7452 21.4464V28.5557Z" fill="#D9A35A"></path> <path d="M29.4416 21.5273C30.007 21.5273 30.4653 21.0708 30.4653 20.5077C30.4653 19.9446 30.007 19.488 29.4416 19.488C28.8763 19.488 28.418 19.9446 28.418 20.5077C28.418 21.0708 28.8763 21.5273 29.4416 21.5273Z" fill="#D9A35A"></path> <circle cx="25" cy="25" r="24.25" stroke="#D9A35A" stroke-width="1.5"></circle> </svg> 