<?xml version="1.0" encoding="UTF-8"?> <svg xmlns="http://www.w3.org/2000/svg" width="21" height="31" viewBox="0 0 21 31" fill="none"> <path d="M7.41576 3.57183L7.76041 0.194265C7.76041 0.0564054 7.62255 -0.0469896 7.48469 0.0219404L5.72697 1.02143C4.4173 3.08932 5.72697 6.29457 5.72697 6.29457L7.41576 3.57183Z" fill="#D9A35A"></path> <path d="M13.7586 6.5016C13.7586 6.5016 15.4819 3.29636 14.1722 1.22846L12.4145 0.228972C12.2767 0.160042 12.1388 0.263437 12.1388 0.401297L12.4834 3.77887L13.7586 6.5016Z" fill="#D9A35A"></path> <path d="M9.58861 11.6365C9.45075 13.0841 9.45075 15.1175 9.48521 16.7374C9.48521 16.7029 9.48521 16.6684 9.48521 16.634C9.48521 16.565 9.45075 16.4961 9.38182 16.4616L9.1061 16.1859C9.03717 16.117 8.93377 16.0825 8.86484 16.117C7.55517 14.9452 4.79797 13.3598 4.79797 13.3598V15.3243C5.28048 15.4966 7.0382 16.8063 8.03768 17.5645C7.96875 17.7024 8.00322 17.8402 8.14108 17.9092L8.58912 18.2194L8.14108 24.94C8.14108 25.009 8.17554 25.0779 8.24447 25.1123L8.89931 25.3191C9.0027 25.3536 9.1061 25.2847 9.1061 25.1813V18.116C9.14056 18.0815 9.17503 18.047 9.17503 18.0126L9.65754 23.2857C9.692 23.4925 9.86433 23.6648 10.0711 23.6648H10.657C10.8983 23.6648 11.0706 23.458 11.0706 23.2168C10.9672 22.2518 10.6915 19.8737 10.1745 18.1849L10.209 17.8747L15.3787 15.2209V13.601L10.3468 16.3238L10.5192 13.3598L13.4487 6.77697L12.139 4.01978C12.139 4.01978 10.4847 8.2245 9.82986 10.2924C9.82986 10.3613 9.7954 10.3958 9.7954 10.4647L7.79643 4.01978L6.03871 6.57018L9.58861 11.6365ZM9.45075 17.2199C9.45075 17.1854 9.45075 17.1165 9.45075 17.082C9.48521 17.1165 9.48521 17.1854 9.45075 17.2199C9.48521 17.2199 9.48521 17.2199 9.45075 17.2199Z" fill="#D9A35A"></path> <path d="M9.79425 8.77648C10.518 6.67412 11.5864 3.98585 11.6554 3.84799L11.9311 3.15869L11.6898 0.815068C11.6898 0.746138 11.6898 0.642743 11.6898 0.573813C11.2418 0.746138 10.4491 0.952928 9.75979 0.952928C9.17389 0.952928 8.62245 0.711673 8.24333 0.504883L8.00208 2.91743L8.2778 3.84799L9.79425 8.77648Z" fill="#D9A35A"></path> <path d="M0.868331 17.4611L4.17697 17.8402C4.41823 17.8746 4.62502 17.6334 4.59055 17.3921C4.48716 16.9441 4.34929 16.2893 4.38376 16.1169C4.41822 15.9101 4.3493 11.671 4.31483 9.05161L4.69394 12.7394L5.03859 12.9462C5.14199 13.0151 7.589 14.4281 8.9676 15.5655C8.9676 14.3248 8.9676 12.8772 9.071 11.7743L5.65896 6.88032L5.45217 6.6046V6.57013C5.34878 6.5012 5.24539 6.39781 5.17646 6.25995C4.9352 5.60511 4.31483 3.60614 4.83181 1.81396C4.03911 2.33094 3.03963 3.02024 2.79837 3.57168C2.41926 4.46777 0.833866 14.9451 0.523682 17.0475C0.523682 17.2543 0.661542 17.4266 0.868331 17.4611Z" fill="#D9A35A"></path> <path d="M14.378 6.36343C14.3091 6.53575 14.1368 6.67361 13.9644 6.74254V6.77701L13.861 6.98379L10.966 13.4632L10.8281 15.4277L15.2741 13.0841L15.4464 12.9807L15.6877 9.18955C15.6532 11.8089 15.6877 15.9792 15.7222 16.1515C15.7566 16.3238 15.7911 16.8408 15.8255 17.1854C15.8255 17.3922 15.8945 17.5301 16.1013 17.5301L19.5478 17.1165C19.7546 17.082 19.8924 16.9097 19.858 16.7029C19.5133 14.8763 17.9968 6.8804 17.3765 4.32999C17.2731 3.88195 17.0318 3.50283 16.6872 3.19265L15.3775 1.98637C15.2396 1.88298 15.1018 1.81405 14.9639 1.74512C15.5498 3.4339 14.7916 5.5018 14.378 6.36343Z" fill="#D9A35A"></path> <path d="M20.4093 18.7363L20.2025 17.7024C20.1681 17.5645 20.0647 17.4956 19.9268 17.4956L16.1012 18.0126C15.9633 18.0126 15.8944 18.1504 15.8944 18.2883L16.0323 19.4256C16.0323 19.5635 16.1701 19.6669 16.308 19.6324L20.2025 19.0121C20.3404 18.9776 20.4093 18.8742 20.4093 18.7363Z" fill="#D9A35A"></path> <path d="M4.38373 19.7701L4.52159 18.6328C4.52159 18.4949 4.45266 18.3915 4.3148 18.3571L0.48919 17.8401C0.35133 17.8401 0.247935 17.909 0.21347 18.0469L0.00667982 19.0808C-0.0277852 19.2187 0.0756099 19.3565 0.21347 19.3565L4.10801 19.9769C4.24587 19.9769 4.38373 19.908 4.38373 19.7701Z" fill="#D9A35A"></path> <path d="M15.2057 16.3925L15.2402 15.8755L10.7253 18.1846C11.2423 19.9424 11.518 22.2515 11.5869 23.1821C11.6214 23.5956 11.3801 24.0092 10.9321 24.1471C10.8632 24.1815 10.7253 24.1815 10.6564 24.1815H10.0705C9.89814 24.1815 9.76028 24.1471 9.62242 24.0437V25.1466C9.62242 25.4568 9.4501 25.7325 9.13991 25.8014C9.00205 25.8359 8.86419 25.8359 8.7608 25.8014L8.41615 25.698C8.38168 26.5941 8.24382 29.2824 8.48508 29.7304C8.72633 30.144 11.7937 30.6954 13.3446 30.9712C14.4131 31.0401 15.5849 31.0056 16.3431 30.6265C16.5844 30.5231 16.6877 30.2474 16.6877 30.0061L15.2057 16.3925Z" fill="#D9A35A"></path> <path d="M9.48489 30.6271C8.6922 30.4892 8.07183 30.3169 7.93397 30.1101C7.55486 29.5587 7.86504 26.4568 7.96843 25.5263C7.76164 25.3884 7.62378 25.1816 7.65825 24.9059L8.03736 18.4609L7.79611 18.3231C7.62378 18.1852 7.48592 18.0129 7.48592 17.7716C6.27965 16.8411 5.48696 16.2896 5.03891 16.0139L5.10784 16.8411L3.35013 29.7654C3.31566 29.9722 3.45352 30.179 3.66031 30.248C4.5564 30.5237 7.07235 31.1785 9.48489 30.8339C9.58829 30.7994 9.58829 30.6615 9.48489 30.6271Z" fill="#D9A35A"></path> </svg> 