<?xml version="1.0" encoding="UTF-8"?> <svg xmlns="http://www.w3.org/2000/svg" width="43" height="36" viewBox="0 0 43 36" fill="none"> <path d="M20.1921 32.2368H19.3997H1.83994H1.0481V32.3037H20.1921V32.2368Z" fill="#D9A35A"></path> <path d="M21.8828 32.6772H20.3788H0.860867H0V35.9998H42.8694V32.6772H41.7732H21.8828ZM28.1946 34.1587C28.1946 34.262 28.1111 34.3465 28.0073 34.3465H27.979H23.6757C23.5724 34.3465 23.4884 34.2625 23.4884 34.1587V32.8902C23.4884 32.7869 23.5719 32.7029 23.6757 32.7029H27.979C27.9838 32.7029 27.9886 32.7051 27.9929 32.7056C27.9982 32.7051 28.0025 32.7029 28.0068 32.7029C28.1101 32.7029 28.1941 32.7864 28.1941 32.8902V34.1587H28.1946Z" fill="#D9A35A"></path> <path d="M19.3778 20.7993V18.9668H13.439C13.4422 18.978 13.447 18.9871 13.4481 18.9984L13.4753 19.3156C13.4759 19.3188 13.4743 19.321 13.4743 19.3242C13.4743 19.3274 13.4759 19.3295 13.4759 19.3317V20.7998H19.3778V20.7993Z" fill="#D9A35A"></path> <path d="M27.585 33.2847H24.0833V33.7651H27.585V33.2847Z" fill="#D9A35A"></path> <path d="M39.9588 0.552153H39.7865H39.7041C39.6009 0.552153 39.5169 0.468153 39.5169 0.364357V0H25.2979V2.41942V4.59111H39.9588V0.552153V0.552153Z" fill="#D9A35A"></path> <path d="M19.2954 16.6216H1.94434V18.5921H19.2954V16.6216Z" fill="#D9A35A"></path> <path d="M13.1019 20.9861V19.5186H11.614V20.7657V20.9861V22.1231H13.1019V20.9861Z" fill="#D9A35A"></path> <path d="M12.8508 26.1475L13.0884 22.498H11.593L11.1548 26.1138L12.8508 26.1475Z" fill="#D9A35A"></path> <path d="M10.897 19.2012V20.5789H11.2394V19.3414L11.2276 19.2012H10.897Z" fill="#D9A35A"></path> <path d="M10.5229 20.7656V19.0144C10.5229 18.9978 10.5283 18.9818 10.5325 18.9668H1.86182V20.7993H10.5293C10.5272 20.7875 10.5229 20.7773 10.5229 20.7656Z" fill="#D9A35A"></path> <path d="M19.2131 31.436H2.02734V31.8619H19.2131V31.436Z" fill="#D9A35A"></path> <path d="M19.3777 21.1739H13.4758V22.3108C13.4758 22.3124 13.4747 22.314 13.4747 22.3156C13.4747 22.3188 13.4758 22.321 13.4758 22.3231L13.2136 26.3514C13.2136 26.3541 13.2104 26.3557 13.2098 26.3589C13.205 26.4038 13.1863 26.4445 13.1547 26.4744C13.1531 26.476 13.1515 26.476 13.1499 26.4776C13.1168 26.5076 13.0739 26.5263 13.0263 26.5263C13.0253 26.5263 13.0237 26.5263 13.0226 26.5263L10.9397 26.4851C10.9392 26.4851 10.9386 26.4846 10.9381 26.4846C10.9327 26.4846 10.9269 26.4846 10.921 26.4835C10.9108 26.4825 10.9039 26.4771 10.8942 26.475C10.8825 26.4712 10.8702 26.4686 10.8595 26.4637C10.8482 26.4573 10.8391 26.4504 10.8295 26.4423C10.8199 26.4354 10.8113 26.429 10.8033 26.4199C10.7947 26.4102 10.7894 26.399 10.7829 26.3878C10.7771 26.3776 10.7717 26.3696 10.768 26.3589C10.7637 26.346 10.7626 26.3321 10.7605 26.3182C10.7599 26.3096 10.7562 26.3027 10.7562 26.2941C10.7562 26.2909 10.7578 26.2877 10.7578 26.2845C10.7583 26.2813 10.7567 26.2781 10.7573 26.2749L11.2388 22.2964V21.1733H1.86182V31.0613H19.3777V21.1739V21.1739Z" fill="#D9A35A"></path> <path d="M8.56313 3.69678H3.39258V8.10865H8.56313V3.69678Z" fill="#D9A35A"></path> <path d="M14.5785 1.07568H3.39258V3.32282H8.75039H14.5785V1.07568Z" fill="#D9A35A"></path> <path d="M41.5859 4.96582H40.1461H25.1107H22.0701V9.45474V32.3033H41.5859V4.96582Z" fill="#D9A35A"></path> <path d="M18.2056 3.69678H14.7653H8.93774V8.10865H18.2056V3.69678Z" fill="#D9A35A"></path> <path d="M21.6955 4.77863V2.60693H15.6138V3.32281H18.3922C18.4955 3.32281 18.5795 3.40627 18.5795 3.51007V8.29593C18.5795 8.39919 18.496 8.48373 18.3922 8.48373H15.6138V9.26808H21.6955V4.77863V4.77863Z" fill="#D9A35A"></path> <path d="M24.9239 2.60742H22.0701V4.59186H24.9239V2.60742Z" fill="#D9A35A"></path> <path d="M8.02003 9.71046H9.77118C9.87445 9.71046 9.95845 9.62699 9.95845 9.5232C9.95845 9.4194 9.87498 9.33594 9.77118 9.33594H8.02003C7.91676 9.33594 7.83276 9.4194 7.83276 9.5232C7.83276 9.62699 7.91623 9.71046 8.02003 9.71046Z" fill="#D9A35A"></path> <path d="M8.02003 10.8287H9.77118C9.87445 10.8287 9.95845 10.7447 9.95845 10.6409C9.95845 10.5371 9.87498 10.4536 9.77118 10.4536H8.02003C7.91676 10.4536 7.83276 10.5371 7.83276 10.6409C7.83276 10.7447 7.91623 10.8287 8.02003 10.8287Z" fill="#D9A35A"></path> </svg> 