<?xml version="1.0" encoding="UTF-8"?> <svg xmlns="http://www.w3.org/2000/svg" width="34" height="20" viewBox="0 0 34 20" fill="none"> <path fill-rule="evenodd" clip-rule="evenodd" d="M0 17.6248V2.37516C0 1.06447 1.06447 1.55563e-07 2.37516 1.55563e-07H29.9584C31.2691 1.55563e-07 32.3336 1.06447 32.3336 2.37516V2.83295H33.3336V7.16683H32.3336V12.8332H33.3336V17.167H32.3336V17.6248C32.3336 18.9355 31.2691 20 29.9584 20H2.37516C1.06447 20 0 18.9355 0 17.6248ZM31.0007 17.5906V2.40939C31.0007 1.81915 30.5233 1.33292 29.9309 1.33292H2.40272C1.80937 1.33292 1.33292 1.81915 1.33292 2.40939V17.5906C1.33292 18.1817 1.80937 18.6671 2.40272 18.6671H29.9309C30.5233 18.6671 31.0007 18.1822 31.0007 17.5906ZM1.9996 17.5906V2.40939C1.9996 2.18138 2.18316 1.9996 2.40272 1.9996H29.9309C30.1496 1.9996 30.334 2.18138 30.334 2.40939V17.5906C30.334 17.8191 30.1496 18.0004 29.9309 18.0004H2.40272C2.18316 18.0004 1.9996 17.8195 1.9996 17.5906ZM7.28816 14.4861V8.67575C7.68328 8.32419 7.93173 7.81751 7.93173 7.25438C7.93173 6.19392 7.05082 5.33345 5.96591 5.33345C4.881 5.33345 4.00009 6.19392 4.00009 7.25438C4.00009 7.81751 4.24809 8.32374 4.64277 8.6753L4.64321 14.4861C4.64321 15.2528 5.23612 15.8755 5.96547 15.8755H5.96591C6.6957 15.8755 7.28816 15.2528 7.28816 14.4861ZM12.3341 13.0007V11.0002H10.3336V13.0007H12.3341ZM15.0008 13.0007V11.0002H13.0003V13.0007H15.0008ZM17.6675 13.0007V11.0002H15.667V13.0007H17.6675ZM12.3341 10.334V8.33352H10.3336V10.334H12.3341ZM15.0008 10.334V8.33352H13.0003V10.334H15.0008ZM17.6675 10.334V8.33352H15.667V10.334H17.6675ZM4.74411 7.25438C4.74411 6.59526 5.29167 6.06058 5.96591 6.06058C6.64015 6.06058 7.18772 6.59526 7.18772 7.25438C7.18772 7.91351 6.64015 8.44819 5.96591 8.44819C5.29167 8.44819 4.74411 7.91351 4.74411 7.25438ZM12.3341 7.66728V5.66679H10.3336V7.66728H12.3341ZM15.0008 7.66728V5.66679H13.0003V7.66728H15.0008ZM17.6675 7.66728V5.66679H15.667V7.66728H17.6675Z" fill="#D9A35A"></path> </svg> 