<?xml version="1.0" encoding="UTF-8"?> <svg xmlns="http://www.w3.org/2000/svg" width="29" height="30" viewBox="0 0 29 30" fill="none"> <path d="M26.6903 16.7849H1.57002C1.15362 16.7849 0.754283 16.9503 0.459848 17.2448C0.165412 17.5392 0 17.9385 0 18.3549V25.1583C0 25.5747 0.165412 25.9741 0.459848 26.2685C0.754283 26.5629 1.15362 26.7284 1.57002 26.7284H26.6903C27.1067 26.7284 27.506 26.5629 27.8005 26.2685C28.0949 25.9741 28.2603 25.5747 28.2603 25.1583V18.3549C28.2603 17.9385 28.0949 17.5392 27.8005 17.2448C27.506 16.9503 27.1067 16.7849 26.6903 16.7849V16.7849ZM24.5969 23.065C24.3899 23.065 24.1876 23.0036 24.0154 22.8886C23.8433 22.7736 23.7092 22.6101 23.6299 22.4188C23.5507 22.2276 23.53 22.0171 23.5704 21.8141C23.6108 21.6111 23.7104 21.4246 23.8568 21.2782C24.0032 21.1318 24.1897 21.0321 24.3927 20.9917C24.5958 20.9514 24.8062 20.9721 24.9975 21.0513C25.1887 21.1305 25.3522 21.2647 25.4672 21.4368C25.5822 21.6089 25.6436 21.8113 25.6436 22.0183C25.6436 22.2959 25.5333 22.5621 25.3371 22.7584C25.1408 22.9547 24.8745 23.065 24.5969 23.065ZM20.4102 23.065C20.2032 23.065 20.0008 23.0036 19.8287 22.8886C19.6566 22.7736 19.5224 22.6101 19.4432 22.4188C19.364 22.2276 19.3433 22.0171 19.3837 21.8141C19.424 21.6111 19.5237 21.4246 19.6701 21.2782C19.8165 21.1318 20.003 21.0321 20.206 20.9917C20.4091 20.9514 20.6195 20.9721 20.8108 21.0513C21.002 21.1305 21.1655 21.2647 21.2805 21.4368C21.3955 21.6089 21.4569 21.8113 21.4569 22.0183C21.4569 22.2959 21.3466 22.5621 21.1503 22.7584C20.9541 22.9547 20.6878 23.065 20.4102 23.065ZM16.2235 23.065C16.0165 23.065 15.8141 23.0036 15.642 22.8886C15.4699 22.7736 15.3357 22.6101 15.2565 22.4188C15.1773 22.2276 15.1566 22.0171 15.1969 21.8141C15.2373 21.6111 15.337 21.4246 15.4834 21.2782C15.6298 21.1318 15.8163 21.0321 16.0193 20.9917C16.2224 20.9514 16.4328 20.9721 16.6241 21.0513C16.8153 21.1305 16.9788 21.2647 17.0938 21.4368C17.2088 21.6089 17.2702 21.8113 17.2702 22.0183C17.2702 22.2959 17.1599 22.5621 16.9636 22.7584C16.7673 22.9547 16.5011 23.065 16.2235 23.065ZM12.0368 22.5416H2.09336C1.95456 22.5416 1.82145 22.4865 1.7233 22.3884C1.62515 22.2902 1.57002 22.1571 1.57002 22.0183C1.57002 21.8795 1.62515 21.7464 1.7233 21.6482C1.82145 21.5501 1.95456 21.495 2.09336 21.495H12.0368C12.1756 21.495 12.3087 21.5501 12.4069 21.6482C12.505 21.7464 12.5601 21.8795 12.5601 22.0183C12.5601 22.1571 12.505 22.2902 12.4069 22.3884C12.3087 22.4865 12.1756 22.5416 12.0368 22.5416Z" fill="#D9A35A"></path> <path d="M23.0266 28.8233C23.0266 28.9621 23.0817 29.0952 23.1799 29.1933C23.278 29.2915 23.4112 29.3466 23.55 29.3466H25.6433C25.7821 29.3466 25.9152 29.2915 26.0134 29.1933C26.1115 29.0952 26.1666 28.9621 26.1666 28.8233V27.7766H23.0266V28.8233Z" fill="#D9A35A"></path> <path d="M2.09351 28.8233C2.09351 28.9621 2.14864 29.0952 2.24679 29.1933C2.34493 29.2915 2.47805 29.3466 2.61685 29.3466H4.7102C4.849 29.3466 4.98211 29.2915 5.08026 29.1933C5.1784 29.0952 5.23354 28.9621 5.23354 28.8233V27.7766H2.09351V28.8233Z" fill="#D9A35A"></path> <path d="M19.8872 14.6916C19.8872 14.5528 19.8321 14.4197 19.734 14.3216C19.6358 14.2234 19.5027 14.1683 19.3639 14.1683H14.6538V5.89953C14.6567 5.8647 14.6567 5.8297 14.6538 5.79487C14.6568 5.76704 14.6568 5.73896 14.6538 5.71113V5.71113C15.003 5.58768 15.2973 5.34476 15.4847 5.02531C15.6721 4.70586 15.7405 4.33044 15.6779 3.96541C15.6153 3.60039 15.4256 3.26925 15.1425 3.03053C14.8593 2.79182 14.5009 2.66089 14.1305 2.66089C13.7601 2.66089 13.4017 2.79182 13.1185 3.03053C12.8354 3.26925 12.6457 3.60039 12.5831 3.96541C12.5205 4.33044 12.5889 4.70586 12.7763 5.02531C12.9637 5.34476 13.258 5.58768 13.6072 5.71113H13.6333C13.6215 5.73798 13.6127 5.76607 13.6072 5.79487C13.6043 5.8297 13.6043 5.8647 13.6072 5.89953V14.1683H8.89712C8.75832 14.1683 8.62521 14.2234 8.52706 14.3216C8.42892 14.4197 8.37378 14.5528 8.37378 14.6916V15.7383H19.8872V14.6916Z" fill="#D9A35A"></path> <path d="M15.9816 6.84203C16.0791 6.93871 16.2107 6.99322 16.3479 6.9938C16.4212 6.99778 16.4944 6.98633 16.5629 6.96018C16.6315 6.93404 16.6937 6.89378 16.7457 6.84203C17.0859 6.50185 17.3558 6.09799 17.5399 5.6535C17.724 5.20901 17.8188 4.73261 17.8188 4.2515C17.8188 3.77039 17.724 3.29399 17.5399 2.8495C17.3558 2.40502 17.0859 2.00115 16.7457 1.66097C16.6476 1.5635 16.515 1.50879 16.3767 1.50879C16.2385 1.50879 16.1058 1.5635 16.0078 1.66097C15.9103 1.75903 15.8556 1.89167 15.8556 2.02993C15.8556 2.16818 15.9103 2.30083 16.0078 2.39888C16.2515 2.64195 16.4448 2.9307 16.5767 3.24861C16.7086 3.56651 16.7765 3.90732 16.7765 4.2515C16.7765 4.59569 16.7086 4.93649 16.5767 5.25439C16.4448 5.5723 16.2515 5.86105 16.0078 6.10412C15.9067 6.19867 15.8473 6.32939 15.8424 6.46767C15.8375 6.60596 15.8875 6.74056 15.9816 6.84203Z" fill="#D9A35A"></path> <path d="M11.5389 6.84275C11.5878 6.89125 11.6458 6.92962 11.7096 6.95567C11.7733 6.98171 11.8416 6.99491 11.9105 6.99452C12.0478 6.99394 12.1794 6.93943 12.2768 6.84275C12.3743 6.74469 12.429 6.61205 12.429 6.47379C12.429 6.33553 12.3743 6.20289 12.2768 6.10484C12.0332 5.86177 11.8398 5.57301 11.7079 5.25511C11.576 4.93721 11.5081 4.5964 11.5081 4.25222C11.5081 3.90803 11.576 3.56723 11.7079 3.24932C11.8398 2.93142 12.0332 2.64267 12.2768 2.3996C12.3316 2.35268 12.3761 2.29495 12.4075 2.23002C12.4389 2.16509 12.4566 2.09437 12.4594 2.0223C12.4622 1.95022 12.45 1.87835 12.4237 1.8112C12.3974 1.74404 12.3575 1.68304 12.3065 1.63204C12.2555 1.58104 12.1945 1.54113 12.1273 1.51482C12.0602 1.48851 11.9883 1.47637 11.9162 1.47915C11.8442 1.48193 11.7734 1.49959 11.7085 1.531C11.6436 1.56241 11.5858 1.60691 11.5389 1.66169C11.1987 2.00187 10.9288 2.40573 10.7447 2.85022C10.5606 3.2947 10.4658 3.77111 10.4658 4.25222C10.4658 4.73333 10.5606 5.20973 10.7447 5.65422C10.9288 6.0987 11.1987 6.50257 11.5389 6.84275V6.84275Z" fill="#D9A35A"></path> <path d="M17.4584 7.55392C17.4093 7.60258 17.3704 7.66046 17.3438 7.72423C17.3173 7.788 17.3036 7.85641 17.3036 7.9255C17.3036 7.99458 17.3173 8.06299 17.3438 8.12676C17.3704 8.19053 17.4093 8.24842 17.4584 8.29707C17.5073 8.34557 17.5653 8.38394 17.629 8.40999C17.6928 8.43603 17.7611 8.44923 17.83 8.44883C17.8988 8.44923 17.9671 8.43603 18.0309 8.40999C18.0946 8.38394 18.1526 8.34557 18.2015 8.29707C18.7364 7.76247 19.1607 7.12773 19.4501 6.42912C19.7396 5.7305 19.8886 4.9817 19.8886 4.22549C19.8886 3.46928 19.7396 2.72047 19.4501 2.02186C19.1607 1.32324 18.7364 0.688507 18.2015 0.15391C18.103 0.055363 17.9693 0 17.83 0C17.6906 0 17.5569 0.055363 17.4584 0.15391C17.3598 0.252456 17.3045 0.386114 17.3045 0.52548C17.3045 0.664847 17.3598 0.798504 17.4584 0.897051C18.3404 1.78019 18.8359 2.97732 18.8359 4.22549C18.8359 5.47366 18.3404 6.67079 17.4584 7.55392Z" fill="#D9A35A"></path> <path d="M10.4296 8.44883C10.4985 8.44923 10.5668 8.43603 10.6305 8.40999C10.6943 8.38394 10.7523 8.34557 10.8012 8.29707C10.8502 8.24842 10.8892 8.19053 10.9157 8.12676C10.9423 8.06299 10.956 7.99458 10.956 7.9255C10.956 7.85641 10.9423 7.788 10.9157 7.72423C10.8892 7.66046 10.8502 7.60258 10.8012 7.55392C9.91914 6.67079 9.42371 5.47366 9.42371 4.22549C9.42371 2.97732 9.91914 1.78019 10.8012 0.897051C10.85 0.848256 10.8887 0.790327 10.9151 0.726573C10.9415 0.662819 10.9551 0.594488 10.9551 0.52548C10.9551 0.456473 10.9415 0.388142 10.9151 0.324388C10.8887 0.260634 10.85 0.202705 10.8012 0.15391C10.7524 0.105114 10.6945 0.0664077 10.6307 0.0399998C10.5669 0.013592 10.4986 0 10.4296 0C10.3606 0 10.2923 0.013592 10.2285 0.0399998C10.1648 0.0664077 10.1068 0.105114 10.058 0.15391C9.52319 0.688507 9.09891 1.32324 8.80943 2.02186C8.51996 2.72047 8.37097 3.46928 8.37097 4.22549C8.37097 4.9817 8.51996 5.7305 8.80943 6.42912C9.09891 7.12773 9.52319 7.76247 10.058 8.29707C10.1069 8.34557 10.1649 8.38394 10.2287 8.40999C10.2925 8.43603 10.3607 8.44923 10.4296 8.44883Z" fill="#D9A35A"></path> </svg> 