<?xml version="1.0" encoding="UTF-8"?> <svg xmlns="http://www.w3.org/2000/svg" width="29" height="20" viewBox="0 0 29 20" fill="none"> <path d="M28.7371 14.4634V18.9601C28.7371 19.5368 28.267 20.0002 27.697 20.0002H1.04335C0.466673 20.0002 0 19.5335 0 18.9601V14.4634C0 12.5567 0.836678 10.7834 2.29003 9.57336C2.33337 9.53002 2.38003 9.49336 2.43003 9.45669C3.57005 8.56001 4.9334 8.08667 6.37675 8.08667H22.3603C23.8037 8.08667 25.1703 8.56001 26.307 9.45669C26.3537 9.49336 26.4037 9.53336 26.4504 9.57336C27.907 10.7867 28.7371 12.5601 28.7371 14.4634Z" fill="#D9A35A"></path> <path d="M25.0064 0H3.72282C2.92947 0 2.28613 0.646675 2.28613 1.43669V8.84012C2.32947 8.79679 2.37613 8.76012 2.42613 8.72345C3.56615 7.82677 4.9295 7.35343 6.37285 7.35343H22.3564C23.7998 7.35343 25.1664 7.82677 26.3031 8.72345C26.3498 8.76012 26.3998 8.80012 26.4465 8.84012V1.43669C26.4465 0.643342 25.8031 0 25.0064 0ZM11.7129 6.62009H6.40619V4.39339C6.40619 3.98672 6.73619 3.65672 7.14287 3.65672H10.9729C11.3796 3.65672 11.7096 3.98672 11.7096 4.39339V6.62009H11.7129ZM22.4697 6.62009H17.163V4.39339C17.163 3.98672 17.493 3.65672 17.8997 3.65672H21.7331C22.1397 3.65672 22.4697 3.98672 22.4697 4.39339V6.62009V6.62009Z" fill="#D9A35A"></path> </svg> 