<?xml version="1.0" encoding="UTF-8"?> <svg xmlns="http://www.w3.org/2000/svg" width="223" height="235" viewBox="0 0 223 235" fill="none"> <path d="M135.429 81.9258C134.67 84.0688 133.447 85.6197 132.345 87.2408C131.874 87.7747 131.212 88.3593 130.619 88.823C126.393 91.3761 122.338 94.1902 118.283 97.0042C114.68 99.5961 111.56 102.468 108.129 105.321C106.543 106.662 104.907 107.812 103.392 109.032C101.234 110.524 99.1268 112.208 96.9688 113.701C96.3843 113.039 96.6646 112.555 96.945 112.072C97.7041 109.929 97.9607 107.817 97.7847 105.616C97.6714 104.42 97.9906 103.314 98.6214 102.227C99.3224 101.019 100.023 99.8106 100.724 98.6026C101.635 97.0323 102.496 95.2711 103.528 93.7708C104.63 92.1497 105.179 90.3691 105.607 88.5184C106.233 85.491 106.618 82.3234 106.31 79.2379C106.102 76.5341 105.132 74.0332 103.9 71.7037C102.89 69.8261 101.569 67.9291 100.228 66.3438C98.2522 63.9055 96.2256 61.2762 94.2496 58.8379C92.7374 56.9916 90.7033 55.4883 88.5797 54.4175C87.6133 53.8567 86.3859 53.4675 85.2093 53.2691C83.0469 52.8217 80.9352 52.5652 78.7027 52.2385C77.8377 52.0595 77.0234 52.0715 76.0884 52.0133C71.2923 51.6523 66.8004 52.4367 62.4726 54.608C59.6912 56.0619 57.8061 58.1975 56.7472 61.1354C56.0776 62.8459 55.5989 64.5058 55.1708 66.3565C54.7234 68.5189 53.7227 70.5217 52.6713 72.3337C52.1105 73.3 51.429 74.1963 51.0591 75.112C49.2873 78.4436 48.5014 82.0242 49.0829 85.7525C49.1962 86.9486 49.5005 88.0939 49.6839 89.1692C50.5771 92.9169 52.7753 95.8071 55.4954 98.3543C57.027 99.8889 58.909 100.82 60.8611 101.629C61.4651 101.98 62.2093 102.089 62.7432 102.56C64.3448 103.974 66.4565 104.23 68.4474 104.417C70.4383 104.603 72.4994 104.669 74.5604 104.735C78.4915 104.917 82.3212 104.717 86.2911 104.275C88.0598 104.01 89.7585 103.865 91.4377 104.032C92.6844 104.11 93.8104 104.117 94.8662 104.246C94.902 106.689 94.0653 110.078 92.7648 112.876C92.3323 112.786 91.9506 112.888 91.5181 112.798C89.3557 112.351 87.1232 112.024 84.7311 112.251C82.0273 112.458 79.8186 113.76 77.7308 115.132C77.0179 115.526 76.5466 116.06 75.8845 116.644C75.0314 117.28 74.42 118.055 73.9293 118.901C70.2143 125.303 67.7267 132.094 66.2248 139.135C65.8862 140.553 65.7893 142.111 65.7624 143.549C65.7236 144.172 65.4432 144.656 64.972 145.19C61.1198 148.767 57.1156 151.772 52.6281 154.497C50.3494 155.919 48.1407 157.221 45.8619 158.644C41.6862 161.388 37.6312 164.202 33.3854 167.067C32.0804 167.924 30.9664 168.731 29.6615 169.588C28.5475 170.395 27.4841 171.393 26.8339 172.792C26.9353 173.174 27.0874 173.746 27.2395 174.319C28.6891 175.16 29.9045 174.735 31.2601 174.068C33.3987 172.887 35.6074 171.585 37.6952 170.213C40.7063 168.085 43.5965 165.887 46.4867 163.689C49.3068 161.612 51.9361 159.585 54.7562 157.508C58.1684 154.967 61.5105 152.546 65.1136 149.954C69.68 150.989 74.7177 151.491 79.0857 153.702C82.4173 155.474 85.4178 157.538 88.1185 160.397C89.5293 161.861 91.2712 163.034 92.8221 164.257C94.4432 165.359 96.0642 166.461 97.7554 167.442C101.309 169.666 105.139 169.466 108.785 168.191C110.573 167.614 112.139 166.585 113.705 165.556C118.734 162.177 121.538 157.345 122.771 151.602C123.199 149.751 123.436 147.951 123.744 146.03C124.051 144.109 123.735 142.15 123.609 140.139C123.414 138.25 122.767 136.583 121.668 135.137C119.743 132.89 118.148 130.35 116.554 127.81C115.989 126.837 115.284 126.104 114.457 125.302C112.322 123.417 109.995 121.583 107.72 119.939C106.582 119.117 105.374 118.416 104.166 117.716C103.441 117.295 102.716 116.874 101.871 116.384C102.011 116.142 101.96 115.951 102.1 115.71C106.475 111.789 111.02 108.129 115.102 103.878C116.165 102.88 117.05 102.747 118.468 103.086C120.872 103.673 123.116 104.814 125.361 105.955C129.176 108.007 132.78 110.422 136.754 111.921C137.117 112.131 137.479 112.341 137.842 112.552C137.585 114.663 137.017 116.756 136.016 118.758C134.805 121.124 133.473 123.419 132.383 125.854C130.662 129.377 129.303 133.109 130.177 137.169C130.259 137.862 130.341 138.556 130.423 139.249C130.713 142.646 131.524 145.701 134.002 148.108C135.413 149.572 136.754 151.158 138.044 152.552C139.041 153.615 140.249 154.316 141.527 154.896C144.274 156.006 147.092 156.995 149.909 157.984C151.136 158.373 152.433 158.641 153.782 159.101C156.91 160.109 160.097 160.182 163.222 159.25C163.864 158.977 164.558 158.895 165.251 158.813C168.426 158.072 171.208 156.618 173.716 154.521C174.83 153.714 175.894 152.717 176.957 151.719C179.274 149.673 180.867 147.206 181.322 143.918C181.886 139.885 182.691 135.993 183.255 131.96C183.691 128.984 183.884 125.867 183.817 122.922C183.7 119.785 182.366 117.074 180.391 114.636C177.951 111.605 174.829 109.471 171.307 107.75C167.714 106.15 163.943 105.415 159.942 105.353C157.448 105.198 155.138 106.118 152.949 107.109C149.544 108.524 146.089 109.748 142.583 110.781C140.674 111.289 139.115 111.192 137.494 110.089C134.837 108.547 131.988 107.056 129.331 105.514C126.311 103.762 123.201 102.442 120.022 101.243C119.78 101.102 119.539 100.962 119.176 100.752C119.768 100.288 120.049 99.805 120.571 99.462C124.505 96.5778 128.681 93.8339 133.009 91.6626C135.981 90.1579 139.296 89.1751 142.522 88.6249C145.818 87.9539 149.113 87.2828 152.257 86.0391C154.115 85.3412 155.853 84.5732 157.66 83.6844C158.303 83.4115 158.825 83.0685 159.468 82.7956C162.57 85.2414 165.761 87.2548 169.513 88.3017C173.074 89.3994 176.706 90.3763 180.497 90.7999C183.423 91.0445 186.146 90.5256 188.666 89.2431C190.926 88.1321 192.6 86.3589 193.792 84.3054C195.034 82.4428 195.793 80.2997 196.311 78.0165C196.65 76.5983 196.556 75.0905 196.08 73.6842C195.433 72.0169 194.786 70.3496 194.138 68.6823C193.44 66.8241 192.622 64.8958 191.924 63.0376C191.429 61.943 191.004 60.7275 190.388 59.5628C188.661 56.1387 185.851 54.0239 182.36 52.8055C180.459 52.1865 178.487 51.6884 176.375 51.4318C176.064 51.4125 175.752 51.3931 175.491 51.5646C174.728 51.7674 174.015 52.1611 173.251 52.3639C169.102 53.6702 166.173 56.4917 163.466 59.7651C161.492 62.3332 160.503 65.1503 159.686 68.2283C158.958 70.8739 158.663 73.609 158.367 76.3441C158.29 77.5909 158.212 78.8376 158.949 80.0724C158.427 80.4154 158.096 80.7077 157.574 81.0507C154.913 82.5748 152.171 83.4054 149.307 84.166C144.987 85.2113 140.667 86.2566 136.346 87.302C136.155 87.3527 135.844 87.3333 135.532 87.3139C135.551 87.0022 135.571 86.6905 135.711 86.4489C136.151 85.4125 136.661 84.2552 137.101 83.2188C137.331 82.5447 137.732 82.1316 138.304 81.9795C141.257 80.7865 143.937 78.9507 146.496 77.0448C149.457 74.7259 152.366 72.216 154.863 69.305C156.206 67.8241 157.067 66.0629 157.807 64.2316C158.986 61.3638 159.854 58.4766 160.29 55.4999C160.815 52.0908 160.717 48.6428 160.116 45.2262C159.8 43.2666 158.961 41.65 157.932 40.0841C156.268 37.6651 154.183 35.9709 151.436 34.8613C150.4 34.4214 149.484 34.0515 148.518 33.4908C148.397 33.4207 148.397 33.4207 148.276 33.3506C146.317 33.6667 145.027 32.2723 143.456 31.3611C141.161 30.0293 138.936 28.5767 136.22 27.9697C133.072 27.2732 130.026 26.9585 127.003 28.2723C126.742 28.4438 126.43 28.4244 126.048 28.5258C122.752 29.1968 120.193 31.1027 118.098 33.6006C115.882 36.0284 113.907 38.5965 112.346 41.5657C110.083 45.7428 109.551 50.2779 110.507 55.0308C110.557 55.2217 110.608 55.4126 110.589 55.7243C110.94 60.1267 113.221 63.7104 115.762 67.1225C117.617 69.4908 120.064 71.3953 122.582 73.1789C125.017 74.2691 127.483 75.8619 129.829 77.3846C130.071 77.5248 130.192 77.5949 130.363 77.8558C131.189 78.6582 131.895 79.3904 132.791 80.072C133.566 80.6834 134.533 81.2442 135.429 81.9258ZM132.616 109.035C132.445 108.774 132.082 108.564 131.911 108.303L131.981 108.182C132.152 108.443 132.445 108.774 132.616 109.035C132.947 108.743 133.087 108.501 133.43 109.023C133.049 109.124 132.928 109.054 132.616 109.035ZM153.137 83.9662C152.806 84.2585 152.405 84.6716 152.074 84.9639C151.31 85.1667 150.617 85.2487 149.853 85.4515C148.326 85.8571 146.799 86.2627 145.272 86.6683C144.89 86.7697 144.528 86.5594 144.216 86.54C143.363 87.1753 143.172 87.226 142.517 86.6847C142.447 86.8055 142.377 86.9263 142.428 87.1172L142.237 87.1679C142.307 87.0471 142.377 86.9263 142.638 86.7548C143.141 86.7235 143.764 86.7623 144.267 86.7309C146.627 86.0017 148.988 85.2725 151.279 84.6641C151.47 84.6134 151.711 84.7536 151.902 84.7029C152.074 84.9639 152.195 85.034 152.124 85.1547C152.233 84.4106 152.444 84.0482 153.137 83.9662C153.328 83.9155 153.398 83.7947 153.519 83.8648C153.589 83.744 153.71 83.8141 153.831 83.8842C153.76 84.005 153.69 84.1258 153.499 84.1765C153.379 84.1064 153.258 84.0363 153.137 83.9662ZM138.178 88.0417C138.368 87.991 138.509 87.7494 138.7 87.6987C138.75 87.8896 138.75 87.8896 138.801 88.0805C138.559 87.9403 138.368 87.991 138.178 88.0417C137.706 88.5756 137.134 88.7277 136.53 88.3772C136.109 89.102 135.365 88.9931 134.722 89.266C133.246 89.8625 131.719 90.2682 130.363 90.9348C127.582 92.3887 124.781 94.1544 122.343 96.1304C119.382 98.4494 116.422 100.768 113.462 103.087C110.431 105.527 107.522 108.037 104.663 110.738C103.007 112.199 101.231 113.59 99.3341 114.912C98.742 115.376 98.2588 115.095 97.795 114.503C97.9352 114.261 98.0053 114.141 98.1455 113.899C99.2595 113.092 100.374 112.286 101.558 111.358C105.492 108.474 109.375 105.399 113.087 102.063C115.475 99.8959 118.276 98.1302 120.905 96.1035C122.541 94.9537 124.126 93.6131 125.883 92.5334C127.71 91.3329 129.658 90.2025 131.535 89.1929C133.082 88.4756 134.87 87.8985 136.67 88.1356C137.122 87.9134 137.574 87.6912 138.178 88.0417ZM86.8406 63.258C86.35 64.1036 86.6736 64.9373 86.6855 65.7515C86.6392 67.5009 86.9748 69.1488 86.9285 70.8981C86.7152 74.3266 86.0694 77.6657 85.5444 81.0749C85.4549 81.5073 85.2446 81.8697 84.9642 82.3529C83.6161 81.8936 82.3887 81.5043 81.1808 80.8034C81.1495 80.3008 81.048 79.919 81.0674 79.6073C80.5321 74.1297 80.2384 68.7922 78.8188 63.4473C77.9062 60.0113 76.6118 56.6767 74.6746 53.6149C74.5031 53.3539 74.1407 53.1437 74.612 52.6098C77.9197 52.753 81.2782 53.0871 84.6679 53.9238C85.0929 55.1392 85.5179 56.3547 85.7014 57.4299C85.9355 58.6961 86.0488 59.8921 86.1621 61.0881C86.2247 62.0933 86.0458 62.9583 86.8406 63.258C86.875 60.6945 86.5976 58.1115 86.0086 55.5091C85.9072 55.1273 85.9967 54.6948 85.8446 54.1222C89.215 55.2705 91.5921 57.2958 93.7589 59.6835C94.0512 60.0145 94.0825 60.5171 94.1139 61.0197C94.2466 61.904 94.1884 62.8391 94.251 63.8443C95.5678 63.801 94.8312 62.5662 95.544 62.1725C95.7856 62.3127 95.9571 62.5737 96.1987 62.7139C97.0055 63.8279 98.0032 64.8912 98.7399 66.1261C99.3751 66.9791 100.01 67.8322 100.506 68.9268C100.778 69.5696 101.051 70.2123 101.133 70.9058C101.177 72.2226 101.22 73.5395 100.76 74.8876C100.531 75.5617 100.352 76.4267 100.122 77.1007C100.103 77.4124 100.083 77.7241 100.516 77.8136C100.707 77.7629 100.968 77.5914 101.038 77.4706C101.248 77.1082 101.408 76.5549 101.497 76.1224C101.657 75.5692 101.816 75.0159 101.906 74.5834C102.065 74.0301 102.104 73.4068 102.232 72.3509C102.556 73.1846 102.848 73.5156 103.02 73.7766C103.87 76.2075 103.715 78.701 103.871 81.2139C104.028 83.7268 103.58 85.8892 102.268 87.8726C102.058 88.235 101.968 88.6675 101.809 89.2207C102.381 89.0686 102.833 88.8464 103.215 88.745C102.997 90.2334 102.659 91.6516 102.078 92.9297C100.938 95.1741 99.7266 97.5393 98.4649 99.7136C98.1144 100.318 97.7639 100.922 97.0004 101.124C96.8364 99.7375 96.7931 98.4206 96.7499 97.1038C97.9534 95.8645 99.3478 94.5746 99.8266 92.9147C99.2226 92.5643 98.8915 92.8565 98.5604 93.1488C97.949 93.9243 97.6999 94.9101 96.6053 95.4052C96.4338 95.1442 96.2623 94.8832 96.1609 94.5014C95.888 93.8587 95.6852 93.0951 95.5331 92.5224C95.6732 92.2808 95.8134 92.0392 95.8835 91.9185C97.6165 89.2102 98.6247 86.0815 99.2511 83.0541C99.3406 82.6216 99.2392 82.2398 98.5457 82.3218C98.3861 82.8751 98.1058 83.3583 97.8761 84.0324C97.1364 85.8637 96.4473 87.8859 95.7076 89.7173C95.6181 90.1497 95.0961 90.4927 94.7457 91.0967C93.2141 89.5621 91.8033 88.0976 90.2718 86.563C90.3613 86.1305 90.5208 85.5773 90.8012 85.0941C92.1912 81.8639 92.9071 78.404 93.1905 74.8547C93.28 74.4222 93.1786 74.0404 92.4851 74.1224C92.3255 74.6757 92.1659 75.229 92.1272 75.8524C91.7617 78.7082 91.0339 81.3538 89.9944 83.98C89.8348 84.5333 89.6052 85.2074 88.7208 85.3401C87.6844 84.9001 86.7881 84.2186 86.1021 83.1747C87.4056 77.3108 87.8949 71.4588 87.2582 65.5994C87.2462 64.7852 87.546 63.9903 86.8406 63.258ZM102.283 142.943C103.74 142.658 104.625 142.525 105.458 142.202C106.101 141.929 106.655 142.088 107.188 142.56C108.981 143.923 110.844 145.165 112.566 146.649C114.409 148.203 116.533 149.274 118.918 150.173C119.712 150.473 120.507 150.772 121.302 151.072C121.166 153.254 120.637 154.723 119.605 156.223C118.911 156.305 118.155 155.382 117.302 156.017C117.836 156.489 118.37 156.96 119.025 157.501C117.654 160.42 115.578 162.606 112.848 164.251C112.364 163.971 111.811 163.811 111.328 163.531C110.966 163.32 110.572 162.607 109.84 163.313C110.303 163.905 110.767 164.497 111.352 165.159C110.569 165.674 109.977 166.137 109.334 166.41C107.978 167.077 106.591 167.241 105.263 166.47C104.417 165.979 103.642 165.368 102.745 164.686C102.383 164.476 102.282 164.094 101.639 164.367C101.69 164.558 101.6 164.99 101.721 165.061C102.255 165.532 102.909 166.073 103.443 166.544C103.685 166.685 103.977 167.016 104.269 167.347C101.496 167.675 100.007 167.457 98.0044 166.456C94.7235 164.875 92.3151 162.348 89.8366 159.941C87.2372 157.463 85.3701 154.281 83.5538 151.289C82.3727 149.151 80.9306 147.184 79.1574 145.509C78.9859 145.248 78.5027 144.968 78.8532 144.364C80.7427 144.168 82.8231 143.922 84.7126 143.727C85.0049 144.058 85.2465 144.198 85.6089 144.408C87.6744 146.414 89.4087 148.712 90.8821 151.182C92.3048 153.461 93.7976 155.619 95.6214 157.484C95.9137 157.816 96.2567 158.338 97.332 158.154C95.4962 155.474 93.4308 153.468 91.9574 150.999C90.484 148.529 88.3678 146.332 86.8437 143.672C88.3008 143.387 89.6176 143.344 91.0552 143.371C91.9321 144.364 92.9999 145.306 93.8067 146.42C95.5604 148.407 97.2948 150.705 99.0486 152.691C99.8047 153.615 100.822 154.366 101.769 155.239C101.89 155.309 102.131 155.449 102.322 155.398C102.723 154.985 102.431 154.654 102.139 154.323C99.7614 152.298 97.9257 149.618 95.8796 147.3C95.4158 146.708 94.952 146.116 94.3674 145.454C93.7829 144.792 93.1282 144.25 92.7345 143.538C94.1408 143.062 97.9899 142.55 98.8549 142.729C99.4082 142.889 99.9614 143.049 100.375 143.45C102.51 145.335 104.837 147.169 106.832 149.296C108.706 151.352 110.931 152.805 113.347 154.207C113.589 154.347 113.901 154.366 114.251 153.762C110.093 151.188 106.605 146.904 102.283 142.943ZM135.17 74.0247C133.942 73.6355 133.027 73.2656 132.232 72.9658C130.572 72.4871 128.982 71.8875 127.322 71.4088C125.109 70.7705 122.826 70.2529 120.492 69.5445C120.181 69.5251 119.939 69.3849 119.577 69.1747C115.769 65.9966 113.197 62.0818 111.859 57.4304C111.352 55.5215 111.297 53.3904 110.981 51.4308C110.879 51.049 111.09 50.6866 111.199 49.9424C111.592 50.6553 111.885 50.9864 112.177 51.3174C114.438 55.2128 117.552 58.4729 120.615 61.5421C121.149 62.0134 121.753 62.3638 122.357 62.7143C122.477 62.7844 122.859 62.683 122.929 62.5622C122.999 62.4414 123.019 62.1297 122.847 61.8687C121.316 60.3341 119.784 58.7995 118.323 57.1441C115.743 54.3553 113.494 51.2742 111.767 47.8501C111.322 46.9463 111.24 46.2529 111.54 45.458C112.159 43.5566 112.969 41.6045 113.95 39.9133C114.161 39.5509 114.422 39.3794 114.772 38.7754C115.127 40.1117 115.31 41.1869 115.685 42.2115C116.059 43.236 116.363 44.3814 116.808 45.2851C117.303 46.3798 118.059 47.3029 118.624 48.2767C119.259 49.1298 119.895 49.9828 120.651 50.906C121.356 51.6382 121.851 52.7329 123.078 53.1221C123.168 52.6896 123.308 52.448 123.308 52.448C122.914 51.7352 122.451 51.1431 121.987 50.5511C121.009 49.176 119.91 47.7309 118.861 46.4767C116.714 43.7774 116.163 40.5516 115.683 37.2051C117.619 35.2604 118.9 32.7744 121.491 31.3711C121.986 32.4658 122.481 33.5604 122.785 34.7058C123.464 36.8756 124.524 38.9441 125.896 41.032C127.147 43.0498 128.99 44.6038 130.783 45.9669C131.266 46.2473 131.8 46.7185 132.283 46.9989C132.42 49.8235 132.627 52.5272 132.835 55.231C132.897 56.2362 132.96 57.2413 133.023 58.2465C133.054 58.749 132.844 59.1114 132.805 59.7348C131.375 58.582 130.116 57.6902 128.927 56.6775C128.565 56.4672 128.253 56.4479 127.973 56.931C129.294 58.828 131.418 59.8988 133.382 61.5229C133.507 63.5332 134.326 65.4615 133.999 67.694C133.134 67.515 132.339 67.2153 131.595 67.1064C131.284 67.087 130.972 67.0676 130.66 67.0482C130.539 66.9781 130.399 67.2197 130.329 67.3405C130.259 67.4613 130.31 67.6522 130.43 67.7223C130.793 67.9326 131.155 68.1429 131.397 68.2831C132.383 68.5321 133.368 68.7812 134.163 69.081C134.62 70.799 134.784 72.1859 135.17 74.0247ZM71.9961 143.937C72.0349 143.314 72.0543 143.002 72.0737 142.69C73.1401 138.626 73.4623 134.454 73.9753 130.23C74.481 127.133 74.7957 124.086 75.3013 120.988C75.4803 120.124 75.6592 119.259 76.2006 118.604C80.5941 114.372 85.6467 112.621 91.612 114.306C91.9237 114.326 92.0952 114.587 92.4576 114.797C91.7954 115.381 91.2541 116.036 90.7828 116.57C89.2482 118.102 87.9552 119.773 87.1454 121.725C85.7867 125.458 84.5488 129.261 83.6227 133.083C82.9456 135.92 81.7853 138.476 80.7965 141.293C80.6369 141.846 80.1149 142.189 79.6123 142.221C77.2009 142.759 74.7193 143.418 71.9961 143.937ZM144.715 115.733C148.062 115.253 151.046 114.562 153.979 113.681C157.104 112.749 160.177 111.626 163.301 110.694C166.305 109.692 169.391 109.383 172.539 110.08C172.971 110.169 173.525 110.329 173.887 110.539C177.129 112.743 179.919 115.17 181.767 118.664C182.161 119.377 182.484 120.21 182.426 121.145C182.235 121.196 182.044 121.247 181.923 121.177C178.884 119.736 175.545 119.09 172.167 119.068C166.347 119.081 160.468 120.029 154.78 120.927C153.011 121.193 151.383 121.216 149.703 121.049C148.959 120.941 148.285 120.711 147.942 120.189C146.913 118.623 145.814 117.178 144.715 115.733ZM90.9688 140.737C86.0951 141.623 83.5122 141.9 81.903 141.612C81.9224 141.3 81.9925 141.18 82.0119 140.868C82.8993 137.669 83.9776 134.419 84.9858 131.291C85.3944 129.752 85.994 128.162 86.5234 126.693C86.9828 125.345 87.5629 124.067 88.0223 122.719C89.0304 119.59 90.8141 117.073 94.0473 115.396C95.6878 116.187 97.449 117.047 99.2803 117.787C101.112 118.527 103.083 119.025 104.755 120.318C102.839 121.951 101.113 123.533 99.5084 125.185C99.4383 125.306 99.2474 125.357 99.1773 125.478C98.0126 126.094 97.1908 127.232 96.56 128.319C94.2469 132.305 92.0038 136.17 90.9688 140.737ZM56.933 98.3812C54.8482 96.687 52.7514 94.1786 51.8313 91.8685C52.7858 91.615 53.6194 91.2914 54.5038 91.1587C58.684 90.3549 62.299 88.5773 65.7619 86.2271C68.3717 84.5121 70.7907 82.8478 73.4005 81.1328C73.9926 80.669 74.7561 80.4662 75.2781 80.1232C77.0393 80.9837 78.559 81.7041 79.9385 82.666C81.4387 83.698 83.2387 83.9352 84.4586 85.4504C83.0836 86.4287 81.728 87.0953 80.5438 88.0229C76.298 90.8876 71.9314 93.6823 67.2918 95.8342C63.8871 97.2494 60.4705 97.8504 56.933 98.3812ZM143.253 153.314C142.941 153.295 142.75 153.345 142.63 153.275C142.388 153.135 142.076 153.116 141.714 152.905C139.158 151.745 137.022 149.86 135.148 147.803C134.321 147.001 134.189 146.117 134.317 145.061C134.835 142.778 135.403 140.685 136.715 138.702C137.747 137.202 138.729 135.511 139.64 133.94C141.634 131.061 143.799 128.442 146.327 126.033C146.728 125.62 147.25 125.277 147.963 124.884C149.627 127.302 151.502 129.359 152.975 131.829C150.288 134.79 148.516 138.122 146.674 141.574C145.272 143.99 144.303 146.496 144.008 149.231C143.79 150.719 143.521 152.017 143.253 153.314ZM135.061 61.69C137.41 60.1465 139.377 58.7044 141.465 57.3324C144.597 55.2745 147.265 52.6244 149.812 49.9043C151.958 47.5972 153.691 44.889 155.182 42.0406C155.533 41.4366 155.833 40.6418 156.425 40.178C156.666 40.3182 156.787 40.3883 156.908 40.4584C158.693 42.9474 159.212 45.6706 159.4 48.686C159.474 50.5055 159.066 52.0445 157.913 53.4747C154.785 57.4728 151.124 60.9998 146.535 63.3426C143.563 64.8473 140.712 66.422 137.739 67.9267C137.288 68.1489 136.715 68.301 136.072 68.5739C135.966 66.2519 135.479 64.0314 135.061 61.69ZM168.232 77.7088C170.422 76.7186 172.541 75.8492 174.952 75.3109C175.899 76.1833 176.776 77.1766 177.602 77.9789C177.895 78.31 178.378 78.5904 178.798 77.8656C178.373 76.6502 176.955 76.3116 176.6 74.9754C177.886 74.4296 179.171 73.8838 180.367 73.7705C181.022 74.3118 181.556 74.7831 182.16 75.1336C182.281 75.2037 182.472 75.1529 182.542 75.0322C182.612 74.9114 182.682 74.7906 182.631 74.5997C182.339 74.2686 181.996 73.7466 181.583 73.3454C182.818 72.6088 183.963 72.3045 185.178 71.8795C185.942 71.6767 186.635 71.5947 187.481 72.0854C189.293 73.1368 191.455 73.5842 193.516 73.6499C194.019 73.6186 194.451 73.7081 194.763 73.7275C195.422 76.209 195.364 77.1441 194.484 79.217C193.307 79.0186 192.131 78.8203 191.094 78.3803C189.988 78.0612 189.092 77.3796 188.106 77.1305C187.069 76.6906 186.313 75.7674 184.895 75.4289C185.117 75.8808 185.168 76.0717 185.219 76.2625C185.632 76.6637 186.236 77.0142 186.649 77.4154C188.804 78.9887 191.328 79.6465 194.095 80.4444C193.935 80.9976 193.846 81.4301 193.635 81.7925C193.055 83.0706 192.475 84.3486 191.412 85.3463C190.349 86.344 189.776 86.4961 188.568 85.7951C187.722 85.3045 187.068 84.7631 186.362 84.0309C185.536 83.2285 184.901 82.3755 184.195 81.6432C184.024 81.3822 183.712 81.3628 183.311 81.7759C183.997 82.8199 184.683 83.8638 185.56 84.857C186.437 85.8503 187.454 86.6019 188.522 87.5445C186.956 88.5734 185.429 88.9791 183.851 89.1938C182.834 88.4421 181.937 87.7606 181.111 86.9582C177.323 83.4685 173.395 80.2203 168.455 78.1607C168.525 78.0399 168.404 77.9698 168.232 77.7088ZM93.141 92.7491C91.2634 93.7587 89.7169 94.476 88.2211 95.3842C87.5082 95.7779 86.9161 96.2416 86.3241 96.7054C83.1416 98.5725 80.0097 100.631 76.3634 101.906C74.887 102.502 73.4807 102.978 71.8015 102.811C71.0573 102.702 70.243 102.714 69.4288 102.726C65.9808 102.824 63.0623 101.453 60.0737 100.204C59.8321 100.063 59.7814 99.8726 59.4891 99.5415C60.4436 99.288 61.398 99.0345 62.1616 98.8317C64.2107 98.0831 66.3105 97.5253 68.3089 96.5858C73.0185 94.3131 77.3151 91.6393 81.5102 88.5836C82.6242 87.7768 83.9098 87.231 85.1446 86.4943C85.9276 85.9798 86.6016 86.2095 87.307 86.9418C88.9087 88.3556 90.3895 89.6993 91.9211 91.2339C92.3342 91.635 92.6772 92.157 93.141 92.7491ZM181.195 136.901C179.364 136.161 177.494 136.045 175.604 136.24C173.142 136.588 170.579 136.554 168.085 136.398C164.968 136.204 161.801 135.82 158.914 134.952C157.928 134.703 157.203 134.282 156.759 133.378C155.87 131.571 154.529 129.985 153.379 128.349C153.208 128.088 153.157 127.898 152.935 127.446C153.438 127.414 153.628 127.364 153.94 127.383C159.34 128.095 164.608 127.922 170.015 127.507C172.91 127.249 175.785 127.303 178.571 127.789C179.989 128.128 181.216 128.517 182.545 129.288C182.511 131.852 182.044 134.326 181.195 136.901ZM155.466 38.4913C155.376 38.9238 155.427 39.1147 155.287 39.3562C153.967 42.4656 152.405 45.4348 150.24 48.0536C147.673 51.0854 144.815 53.7861 141.593 56.2766C140.148 57.3757 138.773 58.3539 137.207 59.3829C136.615 59.8467 136.023 60.3105 134.967 60.1822C134.811 57.6694 134.584 55.2773 134.548 52.8345C140.317 47.6239 145.431 41.8719 149.064 34.7763C151.398 35.4847 153.712 36.5048 155.466 38.4913ZM74.1402 79.3015C73.8092 79.5938 73.669 79.8354 73.408 80.0069C70.4671 82.0141 67.4561 84.1422 64.4644 85.9586C62.7076 87.0383 60.7599 88.1687 58.9017 88.8666C56.4709 89.7166 53.8178 90.1147 51.2154 90.7038C49.7495 87.1082 49.3201 83.9525 50.0986 81.4978C51.4348 81.1429 52.7711 80.788 54.0566 80.2422C55.6538 79.7158 57.1302 79.1193 58.3844 78.0709C59.7595 77.0926 61.2553 76.1844 62.7511 75.2762C63.9158 74.6603 65.1119 74.547 66.3899 75.1271C68.946 76.2874 71.3619 77.6893 74.1402 79.3015ZM182.712 127.609C181.294 127.27 180.016 126.69 178.578 126.663C176.276 126.457 173.903 126.372 171.511 126.599C166.676 126.861 161.911 127.003 157.045 126.763C156.231 126.775 155.487 126.666 154.743 126.557C153.515 126.168 152.218 125.899 151.321 125.218C150.425 124.536 149.739 123.492 149.244 122.398C149.435 122.347 149.575 122.105 149.696 122.175C151.878 122.311 153.907 121.874 155.937 121.437C158.208 121.14 160.601 120.914 162.942 120.496C167.052 119.813 171.003 119.684 175.054 119.936C177.357 120.142 179.519 120.589 181.433 122.022C182.158 122.443 182.621 123.035 182.824 123.798C182.938 124.994 183.102 126.381 182.712 127.609ZM63.0571 55.2701C66.7048 59.0015 69.5696 63.2473 71.5306 67.9376C72.8951 71.1514 73.5662 74.4472 74.5489 77.7624C74.5996 77.9533 74.4087 78.004 74.3386 78.1248C74.1477 78.1755 73.836 78.1561 73.7152 78.086C71.4708 76.9451 69.3666 75.5627 67.243 74.4919C65.7233 73.7715 64.6048 72.6381 63.8174 71.2124C62.4141 68.6219 60.298 66.4252 57.9716 64.5908C57.6092 64.3805 57.3169 64.0494 56.9038 63.6483C57.7599 59.9468 59.4421 57.0477 63.0571 55.2701ZM79.8833 80.5349C79.2092 80.3052 78.656 80.1456 78.2936 79.9354C76.7739 79.215 75.7062 78.2725 75.3199 76.4337C74.6802 73.6404 74.0405 70.8472 72.8281 68.206C71.4636 64.9922 69.9783 61.7083 67.8308 59.0089C66.7317 57.5638 65.7534 56.1888 64.6544 54.7437C66.602 53.6133 69.7771 52.8722 72.6524 52.9259C73.4591 54.0399 74.1451 55.0839 74.9519 56.1979C76.5461 58.7377 77.5482 61.7412 78.3087 64.6046C79.5062 69.4976 79.8894 74.4026 80.2025 79.4283C80.0623 79.6699 79.9728 80.1024 79.8833 80.5349ZM157.828 139.327C157.668 139.88 157.528 140.122 157.388 140.364C156.967 141.088 156.617 141.692 156.317 142.487C154.055 146.664 152.778 151.091 153.161 155.996C153.142 156.307 153.122 156.619 153.173 156.81C150.006 156.425 146.273 155.066 144.48 153.703C144.795 150.657 145.059 147.419 146.43 144.5C147.82 141.27 149.623 138.441 151.617 135.561C152.177 134.595 152.789 133.82 153.833 133.134C155.466 135.05 156.265 137.29 157.828 139.327ZM112.809 125.638C111.364 126.737 110.13 127.473 108.945 128.401C107.831 129.208 106.768 130.205 105.775 131.082C103.457 133.128 101.553 135.576 99.9406 138.354C99.0294 139.924 97.896 141.043 95.9051 140.856C95.0908 140.868 94.2065 141.001 93.3922 141.013C93.0805 140.993 92.648 140.904 92.3363 140.885C93.4251 133.443 99.1773 125.478 106.325 121.229C108.519 122.179 110.553 123.682 112.809 125.638ZM132.93 145.225C132.454 143.819 132.08 142.794 131.827 141.84C131.674 141.267 131.522 140.694 131.44 140.001C131.226 138.423 131.011 136.845 130.917 135.337C130.905 134.523 130.893 133.709 131.123 133.035C131.423 132.24 132.034 131.464 132.646 130.689C134.76 127.879 137.117 125.21 139.644 122.802C141.039 121.512 142.312 120.151 143.173 118.39C143.243 118.269 143.434 118.219 143.625 118.168C145.417 119.531 145.835 121.873 147.417 123.598C146.003 125.2 144.418 126.54 143.125 128.212C141.832 129.884 140.418 131.486 139.246 133.227C138.004 135.09 136.952 136.902 135.952 138.905C134.76 140.958 133.95 142.91 132.93 145.225ZM169.965 75.0006C169.871 73.4929 169.879 72.3669 169.956 71.1202C170.146 66.0631 171.512 61.2044 173.241 56.556C173.7 55.2078 174.452 54.1908 175.324 53.2438C175.725 52.8307 176.177 52.6085 176.8 52.6473C178.982 52.783 181.004 53.4721 183.007 54.4728C176.897 64.1678 177.552 64.7091 176.233 72.8249C174.254 73.4527 172.205 74.2013 169.965 75.0006ZM163.436 77.3479C163.304 76.4635 163.151 75.8908 163.14 75.0766C162.959 70.9352 163.09 66.8131 162.91 62.6717C162.898 61.8575 163.007 61.1133 163.669 60.5287C164.822 59.0986 165.905 57.7892 167.178 56.4291C168.783 54.7768 170.852 53.7165 173.333 53.0573C172.644 55.0796 171.974 56.7901 171.496 58.4499C170.947 60.2306 170.398 62.0112 169.97 63.8619C169.542 65.7126 169.355 67.7036 169.169 69.6945C168.932 71.4945 168.936 73.4347 168.699 75.2347C166.962 76.0027 165.294 76.65 163.436 77.3479ZM134.665 50.9644C134.201 50.3723 134.119 49.6788 134.087 49.1763C134.013 47.3568 133.868 45.6582 133.673 43.7687C133.61 42.7636 133.598 41.9493 134.331 41.2439C134.732 40.8308 135.012 40.3476 135.293 39.8645C136.586 38.1927 137.758 36.4509 139.051 34.7791C139.873 33.6412 140.644 32.3125 141.535 31.0538C142.623 31.6847 143.398 32.2961 144.364 32.8569C145.331 33.4176 146.488 33.9277 147.454 34.4884C146.707 37.4457 143.241 42.8621 139.421 46.9423C138.007 48.544 136.593 50.1457 134.665 50.9644ZM158.836 136.198C159.911 136.015 161.018 136.334 161.883 136.513C165.343 137.229 168.822 137.633 172.41 137.293C173.918 137.199 175.426 137.105 176.933 137.011C178.441 136.918 179.789 137.377 181.118 138.148C180.861 140.26 180.796 142.321 180.227 144.413C177.621 143.062 175.038 143.339 172.404 143.426C170.273 143.481 168.212 143.415 166.081 143.47C165.457 143.431 164.783 143.202 164.039 143.093C163.295 142.984 162.882 142.583 162.418 141.991C161.51 140.495 160.481 138.929 159.503 137.554C159.16 137.032 159.058 136.65 158.836 136.198ZM136.618 69.8595C138.305 68.9006 139.941 67.7508 141.748 66.862C143.887 65.6809 146.267 64.64 148.405 63.4589C149.64 62.7222 150.875 61.9855 151.868 61.1086C154.237 59.2535 156.675 57.2775 158.459 54.7602C158.599 54.5186 158.86 54.3471 159.121 54.1756C159.242 54.2457 159.362 54.3158 159.362 54.3158C159.161 58.5586 158.044 62.4315 154.612 65.2844C153.759 65.9197 152.836 66.6758 151.932 67.1202C150.246 68.0791 148.68 69.108 147.012 69.7553C144.13 70.8275 141.298 72.0906 138.567 73.7355C138.306 73.907 137.924 74.0084 137.472 74.2306C136.685 72.8048 136.782 71.2464 136.618 69.8595ZM154.33 157.32C153.16 150.989 155.048 145.788 158.304 140.734C158.666 140.944 158.787 141.014 158.958 141.275C159.956 142.338 160.813 143.643 161.881 144.586C162.949 145.528 163.323 146.553 162.985 147.971C162.895 148.403 162.876 148.715 162.786 149.148C162.358 150.998 162.242 152.868 162.437 154.758C162.621 155.833 162.683 156.838 162.415 158.136C159.762 158.534 157.027 158.239 154.33 157.32ZM132.158 44.9886C130.276 44.058 129.329 43.1855 127.988 41.6002C125.428 38.4997 124.032 34.7833 122.897 30.8954C122.846 30.7045 122.986 30.4629 122.936 30.2721C125.717 28.8181 129.967 27.8935 132.702 28.1888C132.726 29.8174 132.629 31.3758 132.291 32.794C132.201 33.2265 132.042 33.7798 132.143 34.1616C132.568 35.377 132.491 36.6238 132.292 37.8004C132.234 38.7355 132.367 39.6198 132.429 40.625C132.714 42.082 132.566 43.4496 132.158 44.9886ZM99.9958 140.485C102.826 134.215 107.831 129.208 113.636 126.44C114.653 127.192 115.199 128.477 115.885 129.521C116.056 129.782 116.087 130.285 115.877 130.647C115.788 131.079 115.386 131.493 115.176 131.855C113.291 133.99 111.336 136.247 110.296 138.873C106.86 139.786 103.615 140.648 99.9958 140.485ZM140.876 112.052C141.901 111.678 142.735 111.354 143.498 111.151C146.362 110.391 149.174 109.439 151.815 108.227C153.553 107.459 155.462 106.952 157.371 106.445C157.943 106.293 158.637 106.211 159.26 106.25C162.708 106.151 166.047 106.797 169.277 108.187C169.398 108.257 169.57 108.518 169.62 108.709C168.233 108.873 166.726 108.967 165.459 109.201C161.661 109.903 158.136 111.249 154.489 112.524C151.867 113.424 149.214 113.822 146.542 114.532C144.633 115.039 142.782 114.611 141.442 113.026C141.461 112.714 141.219 112.574 140.876 112.052ZM177.831 72.2985C177.483 69.8363 178.168 65.8739 179.418 62.8853C180.718 60.0876 181.948 57.4107 184.266 55.3646C186.791 56.0223 187.921 57.97 188.981 60.0385C187.688 61.7102 185.862 62.9107 185.122 64.7421C184.382 66.5734 183.572 68.5255 182.883 70.5477C181.286 71.0742 179.72 72.1031 177.831 72.2985ZM163.301 79.5297C165.318 78.2785 167.259 78.274 169.121 79.5163C169.484 79.7266 170.037 79.8862 170.399 80.0965C171.798 80.7467 173.006 81.4477 174.195 82.4603C175.021 83.2626 175.866 83.7533 176.763 84.4349C178.555 85.798 180.398 87.3519 182.172 89.0267C181.599 89.1788 181.408 89.2295 181.096 89.2101C178.895 89.3861 176.752 88.627 174.71 88.2496C173.534 88.0513 172.567 87.4905 171.691 86.4973C170.935 85.5741 170.058 84.5809 169.302 83.6577C169.009 83.3267 168.596 82.9255 168.176 83.6503C168.932 84.5734 169.618 85.6174 170.304 86.6613C170.113 86.712 169.922 86.7627 169.731 86.8134C166.774 86.0662 164.307 84.4734 162.051 82.5183C161.638 82.1171 161.415 81.6652 161.072 81.1432C160.901 80.8823 161.251 80.2783 161.563 80.2977C162.066 80.2664 162.619 80.4259 163.172 80.5855C163.262 80.153 163.281 79.8414 163.301 79.5297ZM122.215 141.429C122.855 144.223 122.38 147.823 121.31 149.946C119.459 149.518 117.557 148.899 115.936 147.797C113.54 146.084 111.143 144.37 108.747 142.656C108.505 142.516 108.022 142.236 108.252 141.562C109.919 140.915 111.777 140.217 113.565 139.64C113.947 139.538 114.45 139.507 114.882 139.596C117.458 140.445 119.792 141.153 122.215 141.429ZM174.666 152.327C173.63 151.887 172.523 151.568 171.557 151.007C170.177 150.046 168.989 149.033 167.609 148.071C167.488 148.001 167.438 147.81 167.317 147.74C166.822 146.645 166.046 146.034 165.22 145.231C165.049 144.97 164.686 144.76 165.088 144.347C166.213 144.355 167.53 144.311 168.656 144.319C171.099 144.283 173.472 144.368 175.915 144.332C177.352 144.359 178.7 144.819 179.889 145.831C179.212 148.668 177.155 150.542 174.666 152.327ZM67.2865 146.21C66.7869 143.175 66.7318 141.044 67.3 138.951C68.4246 133.952 70.1024 129.113 72.2127 124.363C72.4424 123.689 72.9837 123.035 73.6146 121.947C73.6071 123.073 73.5683 123.697 73.5295 124.32C73.2148 127.367 72.7092 130.464 72.5153 133.581C72.4034 137.392 71.1849 140.883 70.6405 144.604C69.5459 145.099 68.4512 145.594 67.2865 146.21ZM50.1955 79.9394C50.6818 77.1536 52.4028 73.6311 55.2185 69.6135C55.5302 69.6329 55.9627 69.7224 56.3251 69.9327C58.6202 71.2645 60.7945 72.5262 63.2805 73.8073C62.9494 74.0996 62.6885 74.2711 62.4275 74.4426C60.6707 75.5222 59.0347 76.672 57.348 77.6309C54.9484 78.9835 52.7785 79.662 50.1955 79.9394ZM93.8076 94.1047C94.7158 95.6005 95.0006 97.0575 95.2153 98.6354C93.4078 99.5242 91.7211 100.483 89.9136 101.372C89.08 101.695 88.1762 102.14 87.2918 102.273C85.2815 102.398 83.2205 102.332 81.2102 102.457C80.5869 102.419 80.0336 102.259 79.4803 102.099C79.6205 101.858 79.6205 101.858 79.6906 101.737C83.0133 99.6284 86.336 97.5197 89.7795 95.4811C91.0844 94.6236 92.3699 94.0778 93.8076 94.1047ZM163.77 157.469C163.36 154.002 163.262 150.554 164.29 147.113C165.478 148.126 166.425 148.999 167.512 149.629C169.083 150.541 170.844 151.401 172.414 152.312C172.656 152.453 173.018 152.663 173.311 152.994C171.024 155.543 167.028 157.422 163.77 157.469ZM153.09 67.6302C152.089 69.6331 150.383 70.9036 148.607 72.295C146.83 73.6864 145.054 75.0778 143.227 76.2782C141.471 77.3579 139.694 78.7493 137.575 79.6187C137.513 78.6136 137.38 77.7292 137.368 76.9149C137.286 76.2215 137.566 75.7383 138.158 75.2745C138.68 74.9315 139.082 74.5184 139.724 74.2455C141.602 73.2359 143.479 72.2263 145.338 71.5284C147.839 70.5576 150.219 69.5167 152.498 68.094C152.638 67.8524 152.829 67.8017 153.09 67.6302ZM134.07 28.3365C136.373 28.5423 138.325 29.3522 140.207 30.2828C139.008 33.4623 135.771 38.2046 133.664 39.8883C133.36 38.7429 133.176 37.6677 133.305 36.6118C133.53 33.9976 133.755 31.3833 134.07 28.3365ZM64.6528 146.296C65.0659 146.697 64.9764 147.13 64.6453 147.422C63.3911 148.47 62.1369 149.519 60.7619 150.497C56.1149 153.775 51.5379 156.932 46.8909 160.21C46.3689 160.553 45.847 160.896 45.325 161.239C43.2371 162.611 41.1999 164.174 39.1121 165.546C36.0503 167.483 32.9886 169.42 29.997 171.236C29.5451 171.459 29.1947 172.063 28.3998 171.763C28.9605 170.796 29.8136 170.161 30.7874 169.596C33.7284 167.589 36.5992 165.702 39.5401 163.695C43.9768 160.779 48.3629 157.673 52.8503 154.949C55.7719 153.253 58.7128 151.246 61.1705 148.958C62.3546 148.03 63.5388 147.103 64.6528 146.296ZM76.8235 144.8C80.7203 147.546 82.8603 151.371 85.2419 155.337C84.8094 155.247 84.4977 155.228 84.3769 155.158C82.7051 153.865 80.9126 152.502 78.8397 151.622C78.5981 151.482 78.4773 151.412 78.2357 151.271C77.238 150.208 76.291 149.336 75.2934 148.272C74.8803 147.871 74.2763 147.521 73.8632 147.119C73.4501 146.718 73.0877 146.508 72.5538 146.037C74.0497 145.129 75.4172 145.276 76.8235 144.8ZM139.552 113.221C140.83 113.801 141.306 115.208 142.113 116.322C142.163 116.513 142.335 116.774 142.195 117.015C141.825 117.931 141.576 118.917 141.085 119.762C140.735 120.366 140.193 121.021 139.722 121.555C139.181 122.209 138.518 122.794 137.977 123.449C136.232 125.343 134.487 127.237 132.672 129.251C132.832 128.698 132.731 128.316 132.871 128.075C133.431 127.108 133.942 125.951 134.502 124.985C136.605 121.361 138.587 117.667 139.291 113.393C139.361 113.272 139.361 113.272 139.552 113.221ZM189.457 61.4448C190.385 62.6289 191.527 65.3909 191.894 67.5414C190.036 68.2393 187.987 68.9879 186.008 69.6157C185.626 69.7171 185.193 69.6276 184.691 69.6589C185.138 67.4965 186.037 65.1119 186.999 63.7325C187.681 62.8362 188.363 61.9399 189.457 61.4448ZM135.698 80.6283C134.973 80.2077 134.54 80.1182 134.057 79.8379C133.695 79.6276 133.332 79.4173 133.161 79.1563C130.752 76.6285 127.923 74.8254 124.974 72.9523C124.611 72.742 124.44 72.481 123.957 72.2006C124.218 72.0291 124.408 71.9784 124.529 72.0485C127.436 72.6048 130.202 73.4027 132.949 74.5123C135.334 75.4116 135.556 75.8635 135.642 78.4972C135.795 79.0699 135.756 79.6932 135.698 80.6283ZM159.993 79.3864C159.147 78.8958 159.116 78.3932 159.034 77.6997C159.022 76.8855 159.08 75.9504 159.068 75.1362C159.211 71.8284 160.169 68.5087 161.177 65.3799C161.317 65.1384 161.387 65.0176 161.789 64.6045C161.879 69.1784 162.06 73.3198 162.221 77.7729C161.438 78.2874 160.776 78.8719 159.993 79.3864ZM111.722 138.086C113.143 135.358 114.838 133.273 116.894 131.399C117.701 132.513 118.508 133.627 119.314 134.741C117.258 136.615 115.049 137.917 111.722 138.086ZM62.7347 72.5217C61.4567 71.9416 60.1085 71.4822 58.9513 70.9722C57.4823 70.4427 56.4145 69.5002 55.6779 68.2654C55.9851 66.3446 55.9851 66.3446 56.7367 65.3275C58.6695 66.449 61.0272 68.7859 62.2784 70.8037C62.5006 71.2556 63.1046 71.6061 62.7347 72.5217ZM115.755 138.649C117.582 137.449 119.007 136.662 120.312 135.804C121.298 136.053 121.431 136.937 121.583 137.51C121.906 138.344 122.23 139.177 122.102 140.233C119.951 140.6 118.069 139.67 115.755 138.649ZM75.4574 149.659C75.2665 149.71 75.0055 149.881 75.0055 149.881C73.1235 148.951 71.2027 148.644 69.161 148.266C68.6078 148.107 67.9844 148.068 67.3103 147.838C67.0687 147.698 66.8271 147.558 66.414 147.157C68.062 146.821 69.3281 146.587 70.5942 146.353C72.2854 147.334 74.4478 147.782 75.4574 149.659ZM187.972 71.2398C189.709 70.4718 191.185 69.8753 192.853 69.2281C193.539 70.272 194.104 71.2459 194.026 72.4926C191.443 72.77 190.267 72.5716 187.972 71.2398ZM95.852 104.495C96.3709 107.218 95.5223 109.793 94.7438 112.248C94.7244 112.56 94.2726 112.782 94.0623 113.144C93.8908 112.883 93.8908 112.883 93.8908 112.883C94.3576 110.409 95.0153 107.885 95.4821 105.41C95.6924 105.048 95.7118 104.736 95.852 104.495ZM95.0676 100.003C95.0796 100.817 95.1109 101.32 95.1422 101.822C93.8761 102.056 92.6606 102.481 91.1917 101.952C92.4265 101.215 93.4704 100.529 95.0676 100.003ZM135.986 110.183C135.916 110.304 135.967 110.495 135.897 110.616C135.535 110.406 135.172 110.195 134.689 109.915L134.759 109.794C135.192 109.884 135.554 110.094 135.986 110.183ZM140.207 87.6048C140.157 87.4139 140.347 87.3632 140.347 87.3632C140.468 87.4333 140.398 87.5541 140.207 87.6048C140.328 87.6749 140.398 87.5541 140.207 87.6048ZM157.255 82.1573L157.185 82.2781L157.255 82.1573Z" fill="#D9A35A"></path> <path d="M102.284 142.943C106.605 146.904 109.973 151.118 114.754 153.731C114.333 154.456 114.092 154.316 113.85 154.176C111.434 152.774 109.209 151.321 107.335 149.265C105.339 147.138 103.134 145.374 100.877 143.419C100.464 143.017 99.9109 142.858 99.3576 142.698C98.4926 142.519 94.6435 143.031 93.2372 143.506C93.6309 144.219 94.2856 144.761 94.8702 145.423C95.3339 146.015 95.7977 146.607 96.3823 147.269C98.4284 149.587 100.334 152.146 102.641 154.292C102.934 154.623 103.105 154.884 102.825 155.367C102.704 155.297 102.392 155.278 102.271 155.208C101.324 154.335 100.307 153.583 99.5513 152.66C97.6767 150.604 95.9931 148.496 94.3094 146.389C93.4325 145.396 92.4348 144.333 91.558 143.339C90.1203 143.312 88.8736 143.235 87.3465 143.641C88.8705 146.301 90.9867 148.498 92.4601 150.968C93.9335 153.437 95.9288 155.564 97.8347 158.123C96.7594 158.306 96.4164 157.784 96.1242 157.453C94.3704 155.467 92.8776 153.309 91.3848 151.151C89.9114 148.681 88.1771 146.383 86.1116 144.377C85.87 144.237 85.6985 143.976 85.2153 143.696C83.3258 143.891 81.2454 144.137 79.3559 144.332C79.0055 144.936 79.4886 145.217 79.6601 145.478C81.4333 147.153 82.8053 149.24 84.0565 151.258C85.8027 154.371 87.7399 157.432 90.3393 159.909C92.8178 162.316 95.347 164.914 98.5071 166.425C100.51 167.426 101.998 167.644 104.772 167.316C104.48 166.985 104.238 166.844 103.946 166.513C103.412 166.042 102.757 165.501 102.224 165.029C102.103 164.959 102.192 164.527 102.142 164.336C102.784 164.063 103.006 164.515 103.248 164.655C104.024 165.267 104.799 165.878 105.765 166.439C107.094 167.21 108.481 167.046 109.837 166.379C110.55 165.985 111.142 165.522 111.855 165.128C111.27 164.466 110.806 163.874 110.342 163.282C111.075 162.576 111.347 163.219 111.831 163.499C112.314 163.78 112.797 164.06 113.35 164.22C115.96 162.505 118.036 160.319 119.527 157.47C118.994 156.999 118.46 156.528 117.805 155.986C118.728 155.23 119.414 156.274 120.108 156.192C121.14 154.692 121.669 153.223 121.805 151.041C121.01 150.741 120.215 150.442 119.42 150.142C117.156 149.313 115.033 148.242 113.069 146.618C111.346 145.134 109.484 143.891 107.691 142.528C107.157 142.057 106.534 142.018 105.961 142.17C104.625 142.525 103.741 142.658 102.284 142.943ZM104.742 158.74C104.037 158.008 103.834 157.245 104.216 157.143C104.98 156.94 105.062 157.634 105.545 157.914C105.666 157.984 105.767 158.366 105.818 158.557C105.868 158.748 105.798 158.869 105.607 158.919C105.537 159.04 105.346 159.091 105.226 159.021C105.105 158.951 104.863 158.811 104.742 158.74ZM101.124 163.584C100.037 162.953 99.2424 162.654 99.5109 161.356C100.427 161.726 100.84 162.127 101.124 163.584ZM108.581 162.421C108.34 162.281 108.098 162.141 107.736 161.93C107.615 161.86 107.564 161.67 107.443 161.599C107.393 161.409 107.463 161.288 107.533 161.167C107.603 161.046 107.794 160.995 107.914 161.066C108.659 161.174 108.83 161.435 108.581 162.421ZM98.3417 160.032C98.5326 159.981 98.7235 159.93 98.9144 159.88C98.9651 160.071 99.0158 160.262 99.0665 160.452L98.6847 160.554C98.4431 160.414 98.3924 160.223 98.3417 160.032ZM116.827 154.611C116.476 155.215 116.527 155.406 116.457 155.527C116.336 155.457 116.095 155.317 115.974 155.247C115.974 155.247 115.993 154.935 116.114 155.005C116.184 154.884 116.375 154.833 116.827 154.611Z" fill="white"></path> <path d="M135.171 74.0251C134.855 72.0654 134.691 70.6785 134.356 69.0306C133.37 68.7815 132.505 68.6026 131.589 68.2327C131.157 68.1432 130.915 68.003 130.623 67.6719C130.502 67.6018 130.451 67.411 130.521 67.2902C130.591 67.1694 130.732 66.9278 130.852 66.9979C131.164 67.0173 131.476 67.0366 131.787 67.056C132.532 67.1649 133.327 67.4647 134.191 67.6437C134.588 65.2904 133.769 63.3621 133.574 61.4726C131.661 60.0394 129.537 58.9686 128.165 56.8807C128.395 56.2066 128.827 56.2961 129.12 56.6272C130.378 57.519 131.567 58.5316 132.997 59.6844C133.157 59.1312 133.246 58.6987 133.215 58.1961C133.152 57.191 133.09 56.1858 133.027 55.1807C132.82 52.4769 132.612 49.7731 132.475 46.9485C131.992 46.6682 131.579 46.267 130.975 45.9165C129.062 44.4833 127.339 42.9994 126.088 40.9816C124.837 38.9639 123.706 37.0162 122.977 34.6554C122.673 33.51 122.108 32.5362 121.683 31.3208C119.092 32.7241 117.811 35.2101 115.876 37.1547C116.356 40.5013 116.906 43.727 119.053 46.4263C120.032 47.8014 121.201 49.1257 122.179 50.5007C122.643 51.0928 123.037 51.8056 123.5 52.3977C123.621 52.4678 123.411 52.8302 123.271 53.0718C122.113 52.5617 121.548 51.5879 120.843 50.8556C120.208 50.0026 119.381 49.2002 118.816 48.2264C118.06 47.3032 117.495 46.3294 117 45.2347C116.435 44.2609 116.251 43.1856 115.877 42.1611C115.503 41.1366 115.319 40.0613 114.964 38.7251C114.493 39.259 114.353 39.5006 114.143 39.8629C113.091 41.6749 112.351 43.5062 111.733 45.4076C111.433 46.2025 111.445 47.0168 111.959 47.7997C113.686 51.2238 115.935 54.305 118.515 57.0938C119.976 58.7492 121.578 60.163 123.039 61.8184C123.16 61.8885 123.262 62.2702 123.121 62.5118C123.051 62.6326 122.67 62.734 122.549 62.6639C121.945 62.3135 121.341 61.963 120.807 61.4917C117.623 58.3524 114.63 55.1624 112.369 51.2671C112.147 50.8152 111.855 50.4841 111.391 49.8921C111.282 50.6362 111.072 50.9986 111.173 51.3804C111.419 53.4608 111.544 55.4711 112.051 57.38C113.389 62.0315 115.962 65.9462 119.769 69.1243C120.01 69.2645 120.252 69.4047 120.685 69.4942C122.898 70.1325 125.181 70.65 127.515 71.3584C129.175 71.8372 130.834 72.3159 132.424 72.9155C133.028 73.2659 133.944 73.6358 135.171 74.0251ZM124.201 64.2686C125.105 63.8242 125.849 63.9331 126.484 64.7862C126.605 64.8563 126.586 65.1679 126.586 65.1679C126.516 65.2887 126.185 65.581 126.064 65.5109C125.129 65.4528 124.455 65.2231 124.201 64.2686ZM125.406 54.9568C125.718 54.9762 126.1 54.8748 126.341 55.015C126.704 55.2253 126.735 55.7279 126.404 56.0202C126.334 56.1409 125.831 56.1723 125.59 56.0321C125.348 55.8919 125.056 55.5608 125.406 54.9568ZM128.226 65.9584C128.659 66.0479 128.779 66.1179 129.091 66.1373C129.021 66.2581 129.002 66.5698 128.932 66.6906C128.861 66.8114 128.55 66.792 128.429 66.7219C128.187 66.5817 128.207 66.2701 128.226 65.9584Z" fill="white"></path> <path d="M86.841 63.2576C87.4957 63.799 87.3167 64.6639 87.3286 65.4782C87.9653 71.3376 87.3553 77.1195 86.1726 83.0534C86.9286 83.9766 87.8249 84.6581 88.7913 85.2189C89.5549 85.016 89.7144 84.4628 90.0649 83.8588C91.1044 81.2326 91.8322 78.587 92.1976 75.7311C92.2364 75.1077 92.396 74.5545 92.5556 74.0012C93.249 73.9192 93.3505 74.301 93.261 74.7334C92.9776 78.2828 92.1409 81.6725 90.8717 84.9728C90.7121 85.5261 90.5018 85.8885 90.3422 86.4418C91.8738 87.9764 93.2846 89.4409 94.8161 90.9755C95.2874 90.4416 95.6185 90.1493 95.7781 89.596C96.5178 87.7647 97.2068 85.7425 97.9465 83.9111C98.1061 83.3578 98.4566 82.7539 98.6162 82.2006C99.2396 82.2394 99.341 82.6211 99.3216 82.9328C98.6251 86.081 97.687 89.089 95.954 91.7972C95.8138 92.0388 95.7437 92.1596 95.6035 92.4012C95.8764 93.0439 95.9585 93.7374 96.2314 94.3802C96.4029 94.6412 96.5743 94.9022 96.6757 95.2839C97.7704 94.7888 98.0195 93.8031 98.6309 93.0276C98.8412 92.6652 99.2424 92.2521 99.897 92.7935C99.3482 94.5741 98.0239 95.7433 96.8204 96.9826C96.8636 98.2994 96.9068 99.6162 97.0708 101.003C97.8344 100.8 98.1849 100.196 98.5354 99.5924C99.6763 97.348 101.008 95.0529 102.149 92.8084C102.729 91.5304 103.188 90.1822 103.285 88.6238C102.834 88.846 102.452 88.9474 101.879 89.0995C102.039 88.5462 102.077 87.9229 102.338 87.7514C103.842 85.7172 104.168 83.4847 103.942 81.0926C103.785 78.5797 103.94 76.0862 103.09 73.6554C102.989 73.2736 102.817 73.0126 102.303 72.2297C102.175 73.2855 102.136 73.9089 101.976 74.4622C101.817 75.0154 101.727 75.4479 101.568 76.0012C101.478 76.4337 101.389 76.8662 101.108 77.3493C101.038 77.4701 100.777 77.6416 100.586 77.6923C100.275 77.673 100.103 77.412 100.193 76.9795C100.301 76.2353 100.601 75.4404 100.831 74.7664C101.22 73.539 101.247 72.1014 101.204 70.7845C101.122 70.0911 100.849 69.4483 100.576 68.8056C100.011 67.8317 99.3755 66.9786 98.8103 66.0048C98.0035 64.8908 97.076 63.7067 96.2692 62.5926C96.0977 62.3316 95.8561 62.1914 95.6145 62.0513C94.9016 62.445 95.689 63.8707 94.3215 63.723C94.2589 62.7179 94.317 61.7828 94.1843 60.8984C94.153 60.3959 94.1217 59.8933 93.8294 59.5622C91.7327 57.0538 89.2854 55.1493 85.915 54.0009C85.9464 54.5035 85.9777 55.0061 86.0791 55.3879C86.598 58.111 86.9961 60.7641 86.841 63.2576ZM101.42 90.4477C101.502 91.1411 101.412 91.5736 100.769 91.8465C100.579 91.8972 100.286 91.5661 100.286 91.5661C100.274 90.7519 100.676 90.3388 101.42 90.4477ZM94.3065 65.9749C94.7002 66.6878 94.5406 67.241 94.0694 67.7749C93.4341 66.9219 93.4341 66.9219 94.3065 65.9749ZM93.6026 70.249C93.6533 70.4399 93.8948 70.5801 93.8755 70.8918C93.9262 71.0827 93.786 71.3243 93.7159 71.4451C93.4743 71.3049 93.0925 71.4063 92.921 71.1453C92.7689 70.5726 93.0299 70.4011 93.6026 70.249ZM99.866 79.212L99.9868 79.2821C99.9674 79.5938 99.8779 80.0263 99.8585 80.3379C99.8585 80.3379 99.3559 80.3693 99.2351 80.2992C98.9428 79.9681 99.0323 79.5356 99.3634 79.2433C99.5543 79.1926 99.6751 79.2627 99.866 79.212Z" fill="white"></path> <path d="M71.9966 143.937C74.7898 143.297 77.2013 142.759 79.7336 142.291C80.3063 142.139 80.7581 141.916 80.9177 141.363C81.8364 138.667 82.946 135.92 83.7439 133.153C84.6701 129.331 85.9079 125.528 87.2666 121.796C87.9556 119.773 89.2486 118.102 90.904 116.64C91.4961 116.176 92.0375 115.522 92.5788 114.867C92.3372 114.727 91.9748 114.516 91.7332 114.376C85.768 112.691 80.7153 114.442 76.3218 118.674C75.6597 119.259 75.4807 120.124 75.4225 121.059C74.9169 124.156 74.6022 127.203 74.0966 130.3C73.4627 134.454 73.2613 138.696 72.1949 142.76C71.8639 143.053 72.0354 143.314 71.9966 143.937Z" fill="white"></path> <path d="M144.714 115.734C145.864 117.37 146.913 118.624 147.891 119.999C148.355 120.591 148.959 120.941 149.652 120.859C151.331 121.026 153.081 121.073 154.729 120.737C160.537 119.91 166.295 118.891 172.116 118.878C175.494 118.9 178.782 119.355 181.872 120.987C181.993 121.057 182.184 121.006 182.375 120.955C182.433 120.02 182.039 119.307 181.716 118.474C179.868 114.98 177.148 112.432 173.836 110.349C173.473 110.139 172.92 109.979 172.487 109.89C169.339 109.193 166.254 109.502 163.25 110.504C160.056 111.557 157.052 112.559 153.928 113.491C151.045 114.563 147.94 115.183 144.714 115.734Z" fill="white"></path> <path d="M90.9686 140.738C91.8128 136.222 94.0558 132.357 96.4196 128.561C97.0504 127.474 97.8722 126.336 99.0369 125.72C99.2278 125.67 99.2979 125.549 99.368 125.428C100.852 123.706 102.577 122.123 104.615 120.56C102.822 119.197 100.971 118.769 99.14 118.03C97.3086 117.29 95.5474 116.429 93.9069 115.639C90.7438 117.194 88.9602 119.712 87.8819 122.961C87.4225 124.309 86.8424 125.587 86.383 126.936C85.7835 128.525 85.254 129.994 84.8454 131.533C83.8372 134.662 82.8797 137.982 81.8715 141.111C81.7313 141.352 81.782 141.543 81.7627 141.855C83.512 141.901 86.0949 141.624 90.9686 140.738Z" fill="white"></path> <path d="M56.9331 98.3812C60.4004 97.9712 63.8872 97.2494 67.1711 95.7641C71.9314 93.6823 76.1773 90.8176 80.4231 87.9528C81.7281 87.0953 83.033 86.2378 84.3379 85.3803C83.118 83.8651 81.1972 83.5579 79.8177 82.596C78.4383 81.634 76.7277 80.9644 75.1574 80.0532C74.6354 80.3962 73.8018 80.7198 73.2798 81.0628C70.7401 82.6569 68.251 84.442 65.6412 86.157C62.1783 88.5073 58.5633 90.2849 54.3831 91.0886C53.4987 91.2213 52.6651 91.5449 51.7106 91.7984C52.8723 94.2487 54.8483 96.6871 56.9331 98.3812Z" fill="white"></path> <path d="M143.252 153.315C143.521 152.017 143.859 150.599 144.007 149.232C144.302 146.497 145.462 143.94 146.673 141.575C148.445 138.244 150.408 134.861 152.974 131.83C151.501 129.36 149.626 127.303 147.962 124.884C147.179 125.399 146.727 125.621 146.326 126.034C143.919 128.513 141.633 131.061 139.639 133.941C138.607 135.441 137.626 137.132 136.714 138.703C135.472 140.565 134.834 142.779 134.316 145.062C134.067 146.047 134.321 147.002 135.147 147.804C137.021 149.861 139.227 151.625 141.713 152.906C141.955 153.046 142.266 153.066 142.629 153.276C142.75 153.346 142.94 153.295 143.252 153.315Z" fill="white"></path> <path d="M135.062 61.6887C135.479 64.0301 135.846 66.1806 136.384 68.5921C137.027 68.3192 137.6 68.1671 138.052 67.9449C141.024 66.4402 143.875 64.8654 146.847 63.3607C151.436 61.0179 155.098 57.491 158.225 53.4928C159.378 52.0626 159.786 50.5236 159.712 48.7042C159.454 45.8095 159.005 42.9655 157.22 40.4765C157.099 40.4064 156.978 40.3363 156.737 40.1961C156.145 40.6599 155.845 41.4548 155.494 42.0588C154.003 44.9072 152.27 47.6154 150.124 49.9224C147.577 52.6426 144.909 55.2926 141.777 57.3506C139.377 58.7032 137.41 60.1452 135.062 61.6887Z" fill="white"></path> <path d="M168.232 77.7086C168.525 78.0396 168.454 78.1604 168.575 78.2305C173.395 80.22 177.323 83.4682 181.232 87.028C182.058 87.8304 182.954 88.5119 183.971 89.2636C185.549 89.0489 187.076 88.6433 188.642 87.6143C187.575 86.6717 186.557 85.9201 185.681 84.9269C184.804 83.9336 184.118 82.8897 183.432 81.8457C183.712 81.3626 184.024 81.3819 184.316 81.713C185.021 82.4453 185.778 83.3684 186.483 84.1007C187.068 84.7628 187.843 85.3743 188.689 85.8649C190.017 86.636 190.59 86.4839 191.533 85.4161C192.596 84.4184 193.176 83.1404 193.756 81.8623C193.966 81.4999 194.056 81.0674 194.216 80.5142C191.64 79.6656 188.924 79.0585 186.769 77.4852C186.286 77.2048 185.752 76.7335 185.339 76.3323C185.218 76.2623 185.238 75.9506 185.016 75.4987C186.313 75.7671 187.19 76.7604 188.226 77.2003C189.263 77.6403 190.229 78.2011 191.215 78.4501C192.322 78.7693 193.498 78.9677 194.605 79.2868C195.485 77.2139 195.613 76.158 194.884 73.7973C194.451 73.7078 194.069 73.8092 193.637 73.7197C191.576 73.654 189.414 73.2066 187.602 72.1552C186.877 71.7346 186.133 71.6257 185.299 71.9493C184.154 72.2536 182.938 72.6786 181.703 73.4153C182.117 73.8164 182.46 74.3384 182.752 74.6695C182.873 74.7396 182.732 74.9812 182.662 75.102C182.592 75.2228 182.401 75.2735 182.281 75.2034C181.677 74.8529 181.143 74.3816 180.488 73.8403C179.292 73.9536 178.127 74.5695 176.721 75.0452C177.076 76.3814 178.615 76.7901 178.919 77.9354C178.569 78.5394 178.206 78.3291 177.723 78.0487C176.776 77.1763 175.95 76.3739 175.073 75.3807C172.611 75.7281 170.492 76.5976 168.232 77.7086ZM180.54 79.0375L180.731 78.9868C181.234 78.9555 181.647 79.3567 181.799 79.9294C181.849 80.1202 181.779 80.241 181.588 80.2917C181.257 80.584 180.895 80.3738 180.552 79.8518C180.431 79.7817 180.381 79.5908 180.451 79.47C180.4 79.2791 180.47 79.1583 180.54 79.0375Z" fill="white"></path> <path d="M93.14 92.7478C92.6763 92.1558 92.3333 91.6338 91.9202 91.2326C90.3886 89.698 88.9077 88.3543 87.3061 86.9405C86.6514 86.3992 85.9773 86.1695 85.1437 86.4931C83.9088 87.2298 82.6233 87.7756 81.5093 88.5824C77.2634 91.4471 72.8968 94.2418 68.3079 96.5846C66.3096 97.5241 64.2098 98.0818 62.1607 98.8304C61.327 99.154 60.5635 99.3568 59.4882 99.5402C59.7805 99.8713 59.952 100.132 60.0728 100.202C63.0614 101.452 66.1007 102.893 69.4278 102.724C70.2421 102.712 70.9863 102.821 71.8005 102.809C73.3589 102.906 74.7653 102.431 76.3625 101.904C79.888 100.559 83.0705 98.6921 86.3231 96.7042C87.036 96.3105 87.6281 95.8467 88.2201 95.3829C89.7159 94.4747 91.2624 93.7574 93.14 92.7478Z" fill="white"></path> <path d="M181.196 136.902C181.924 134.256 182.511 131.852 182.616 129.168C181.408 128.467 180.13 127.887 178.641 127.669C175.735 127.113 172.91 127.25 170.086 127.387C164.678 127.801 159.29 127.904 154.011 127.263C153.699 127.243 153.508 127.294 153.005 127.325C153.228 127.777 153.208 128.089 153.45 128.229C154.6 129.865 155.94 131.45 156.829 133.258C157.274 134.162 157.998 134.582 158.984 134.831C161.992 135.769 165.039 136.084 168.156 136.278C170.649 136.433 173.092 136.398 175.675 136.12C177.494 136.046 179.364 136.162 181.196 136.902Z" fill="white"></path> <path d="M155.466 38.4898C153.712 36.5033 151.398 35.4832 148.943 34.7047C145.431 41.8705 140.317 47.6224 134.428 52.7629C134.654 55.155 134.811 57.6679 134.847 60.1107C135.902 60.2389 136.494 59.7751 137.087 59.3113C138.652 58.2824 140.027 57.3041 141.473 56.205C144.745 53.9054 147.553 51.0138 150.119 47.982C152.285 45.3633 153.967 42.4642 155.166 39.2847C155.357 39.234 155.376 38.9223 155.466 38.4898Z" fill="white"></path> <path d="M74.1397 79.302C71.4822 77.76 69.0156 76.1672 66.3894 75.1277C65.1113 74.5476 63.9854 74.5401 62.7506 75.2768C61.2547 76.185 59.829 76.9724 58.3839 78.0714C57.0089 79.0497 55.5325 79.6462 54.0561 80.2427C52.7705 80.7885 51.4343 81.1435 50.0981 81.4984C49.3196 83.9531 49.6789 87.2295 51.2149 90.7043C53.8173 90.1153 56.4703 89.7171 58.9012 88.8671C60.8802 88.2393 62.7071 87.0388 64.4639 85.9592C67.5256 84.022 70.4666 82.0147 73.4075 80.0074C73.6685 79.8359 73.7386 79.7151 74.1397 79.302Z" fill="white"></path> <path d="M86.8931 63.4495C86.2385 62.9082 86.2265 62.0939 86.1445 61.4004C85.9104 60.1343 85.988 58.8875 85.6838 57.7422C85.4497 56.4761 84.9546 55.3814 84.6503 54.2361C81.3307 53.2786 77.9021 53.0653 74.5944 52.9221C74.1932 53.3351 74.4855 53.6662 74.657 53.9272C76.5942 56.9889 77.8886 60.3235 78.8012 63.7596C80.2209 69.1045 80.4445 74.5627 81.0499 79.9196C81.1513 80.3014 81.1319 80.6131 81.1632 81.1156C82.2503 81.7465 83.4777 82.1357 84.9466 82.6652C85.227 82.182 85.4373 81.8196 85.5268 81.3871C86.0518 77.978 86.8184 74.709 86.9109 71.2104C86.9572 69.461 86.8125 67.7624 86.6679 66.0638C86.6754 64.9378 86.3518 64.1042 86.8931 63.4495C86.8931 63.4495 86.8424 63.2586 86.8931 63.4495Z" fill="white"></path> <path d="M182.712 127.609C183.171 126.26 183.128 124.944 182.894 123.677C182.691 122.914 182.227 122.322 181.502 121.901C179.519 120.589 177.427 120.021 175.124 119.815C171.072 119.563 167.001 119.622 163.011 120.375C160.67 120.793 158.348 120.899 156.007 121.316C153.926 121.562 151.827 122.12 149.766 122.054C149.645 121.984 149.505 122.226 149.314 122.276C149.618 123.422 150.495 124.415 151.391 125.097C152.408 125.848 153.706 126.117 154.812 126.436C155.486 126.666 156.3 126.654 157.115 126.642C161.981 126.882 166.746 126.74 171.581 126.478C173.903 126.372 176.275 126.457 178.648 126.542C179.825 126.741 181.173 127.2 182.712 127.609Z" fill="white"></path> <path d="M63.0571 55.2693C59.4421 57.0469 57.7599 59.946 56.9038 63.6474C57.3169 64.0486 57.6092 64.3797 57.9716 64.5899C60.298 66.4243 62.2934 68.551 63.8175 71.2115C64.6048 72.6372 65.7233 73.7707 67.243 74.491C69.4874 75.6319 71.6617 76.8936 73.7153 78.0852C73.9569 78.2254 74.1477 78.1747 74.3386 78.124C74.4087 78.0032 74.5489 77.7616 74.5489 77.7616C73.5662 74.4464 72.8951 71.1505 71.5306 67.9367C69.4488 63.1764 66.7049 59.0006 63.0571 55.2693Z" fill="white"></path> <path d="M79.884 80.5347C79.9735 80.1022 80.063 79.6697 80.0824 79.3581C79.7693 74.3323 79.3861 69.4273 78.1886 64.5343C77.4982 61.5501 76.426 58.6674 74.8318 56.1276C74.1458 55.0837 73.339 53.9697 72.5322 52.8556C69.8479 52.7512 66.4819 53.543 64.5342 54.6734C65.6333 56.1185 66.5415 57.6143 67.7107 58.9386C69.9789 61.7081 71.3435 64.9219 72.708 68.1357C73.9204 70.7769 74.5601 73.5701 75.1998 76.3634C75.5861 78.2022 76.6538 79.1447 78.1735 79.8651C78.6567 80.1455 79.2099 80.305 79.884 80.5347Z" fill="white"></path> <path d="M157.827 139.327C156.385 137.36 155.535 134.929 153.832 133.133C152.788 133.819 152.176 134.595 151.616 135.561C149.743 138.511 147.939 141.34 146.429 144.5C145.179 147.489 144.794 150.656 144.479 153.703C146.272 155.066 150.005 156.425 153.172 156.81C153.192 156.498 153.211 156.186 153.16 155.995C152.707 151.211 154.054 146.664 156.316 142.487C156.737 141.762 157.087 141.158 157.387 140.363C157.527 140.122 157.547 139.81 157.827 139.327Z" fill="white"></path> <path d="M112.809 125.637C110.673 123.751 108.518 122.178 106.204 121.158C99.056 125.407 93.3038 133.372 92.215 140.813C92.5267 140.833 92.9592 140.922 93.2709 140.942C94.0851 140.93 95.0396 140.676 95.7838 140.785C97.7747 140.972 98.9081 139.853 99.8193 138.283C101.361 135.625 103.266 133.178 105.654 131.011C106.717 130.013 107.831 129.207 108.824 128.33C110.129 127.472 111.313 126.545 112.809 125.637Z" fill="white"></path> <path d="M132.93 145.225C134.02 142.79 134.709 140.767 135.69 139.076C136.691 137.073 137.742 135.261 138.985 133.399C140.157 131.657 141.571 130.055 142.864 128.384C144.157 126.712 145.742 125.371 147.156 123.769C145.574 122.044 145.156 119.703 143.363 118.339C143.173 118.39 142.982 118.441 142.912 118.562C142.051 120.323 140.777 121.683 139.383 122.973C136.855 125.381 134.499 128.051 132.384 130.86C131.773 131.636 131.231 132.291 130.861 133.206C130.632 133.88 130.644 134.695 130.656 135.509C130.75 137.017 130.964 138.594 131.179 140.172C131.261 140.866 131.413 141.438 131.565 142.011C132.01 142.915 132.454 143.819 132.93 145.225Z" fill="white"></path> <path d="M169.965 74.9999C172.205 74.2006 174.254 73.452 176.112 72.7541C177.431 64.6383 176.655 64.0269 182.886 54.402C180.883 53.4013 178.861 52.7122 176.679 52.5765C176.056 52.5377 175.604 52.7599 175.203 53.173C174.33 54.12 173.629 55.3279 173.119 56.4852C171.391 61.1336 170.025 65.9923 169.835 71.0494C169.878 72.3662 169.871 73.4922 169.965 74.9999Z" fill="white"></path> <path d="M163.436 77.3474C165.294 76.6494 166.962 76.0022 168.629 75.355C168.745 73.4849 168.792 71.7356 169.099 69.8148C169.285 67.8239 169.592 65.903 169.9 63.9822C170.328 62.1315 170.877 60.3509 171.425 58.5702C171.974 56.7896 172.644 55.0791 173.263 53.1776C170.781 53.8368 168.713 54.8971 167.108 56.5494C165.905 57.7887 164.752 59.2188 163.599 60.649C163.058 61.3037 162.828 61.9778 162.84 62.792C162.899 66.8633 162.768 70.9854 163.069 75.1969C163.151 75.8903 163.303 76.463 163.436 77.3474Z" fill="white"></path> <path d="M134.664 50.9648C136.662 50.0253 137.955 48.3535 139.42 46.9428C143.311 42.7418 146.706 37.4461 147.454 34.4888C146.487 33.9281 145.33 33.418 144.364 32.8573C143.397 32.2965 142.622 31.6851 141.535 31.0542C140.643 32.3129 139.872 33.6417 139.05 34.7795C137.878 36.5214 136.585 38.1931 135.292 39.8649C135.011 40.3481 134.731 40.8312 134.33 41.2443C133.598 41.9497 133.539 42.8848 133.672 43.7691C133.938 45.5378 133.891 47.2872 134.087 49.1767C134.048 49.8 134.13 50.4935 134.664 50.9648Z" fill="white"></path> <path d="M158.836 136.199C159.058 136.651 159.16 137.033 159.331 137.294C160.239 138.789 161.339 140.235 162.247 141.73C162.64 142.443 163.124 142.724 163.868 142.832C164.612 142.941 165.286 143.171 165.909 143.21C167.97 143.275 170.102 143.22 172.233 143.165C174.866 143.079 177.519 142.681 180.056 144.153C180.624 142.06 180.69 139.999 180.947 137.887C179.618 137.116 178.27 136.657 176.762 136.751C175.254 136.845 173.817 136.818 172.239 137.033C168.651 137.373 165.171 136.969 161.711 136.253C161.018 136.335 159.911 136.016 158.836 136.199Z" fill="white"></path> <path d="M136.618 69.8599C136.712 71.3676 136.685 72.8052 137.282 74.2816C137.733 74.0594 138.115 73.958 138.376 73.7865C141.107 72.1417 143.869 70.9993 146.822 69.8063C148.489 69.1591 150.176 68.2002 151.741 67.1713C152.715 66.6061 153.568 65.9708 154.421 65.3355C157.853 62.4826 158.97 58.6097 159.171 54.3669C159.171 54.3669 159.051 54.2968 158.93 54.2267C158.669 54.3982 158.529 54.6398 158.268 54.8113C156.484 57.3286 154.116 59.1838 151.677 61.1597C150.684 62.0366 149.449 62.7733 148.215 63.51C146.076 64.6911 143.696 65.732 141.557 66.9131C139.941 67.7512 138.375 68.7802 136.618 69.8599Z" fill="white"></path> <path d="M154.33 157.32C157.097 158.118 159.762 158.534 162.485 158.015C162.683 156.838 162.691 155.712 162.507 154.637C162.312 152.747 162.428 150.877 162.856 149.027C162.946 148.594 162.965 148.282 163.055 147.85C163.323 146.552 163.019 145.407 161.951 144.465C160.884 143.522 160.026 142.217 159.028 141.154C158.908 141.084 158.666 140.944 158.374 140.612C155.169 145.857 153.09 151.11 154.33 157.32Z" fill="white"></path> <path d="M132.157 44.9875C132.686 43.5185 132.713 42.0809 132.428 40.6239C132.295 39.7395 132.233 38.7344 132.291 37.7993C132.369 36.5526 132.567 35.3759 132.142 34.1605C132.041 33.7787 132.2 33.2254 132.29 32.7929C132.698 31.2539 132.795 29.6955 132.701 28.1877C129.966 27.8924 125.716 28.817 122.935 30.271C122.985 30.4618 122.845 30.7034 122.896 30.8943C123.91 34.7121 125.306 38.4285 127.987 41.5991C129.328 43.1844 130.275 44.0569 132.157 44.9875Z" fill="white"></path> <path d="M99.9956 140.485C103.494 140.577 106.86 139.785 110.226 138.994C111.457 136.317 113.342 134.181 115.106 131.975C115.437 131.683 115.717 131.2 115.807 130.768C116.017 130.405 115.986 129.903 115.814 129.642C115.128 128.598 114.583 127.312 113.565 126.56C107.901 129.087 102.896 134.094 99.9956 140.485Z" fill="white"></path> <path d="M140.878 112.052C141.291 112.453 141.342 112.644 141.583 112.784C142.924 114.369 144.654 114.727 146.684 114.29C149.286 113.701 152.009 113.182 154.631 112.282C158.277 111.007 161.803 109.662 165.601 108.959C166.988 108.795 168.375 108.631 169.762 108.467C169.711 108.276 169.54 108.015 169.419 107.945C166.119 106.676 162.85 105.909 159.402 106.008C158.778 105.969 158.085 106.051 157.512 106.203C155.724 106.78 153.815 107.287 151.957 107.985C149.195 109.127 146.503 110.149 143.64 110.91C142.666 111.475 142.023 111.748 140.878 112.052Z" fill="white"></path> <path d="M177.832 72.2978C179.721 72.1024 181.408 71.1435 182.884 70.547C183.694 68.5949 184.434 66.7636 185.123 64.7414C185.933 62.7892 187.689 61.7095 188.982 60.0378C187.852 58.0901 186.722 56.1424 184.267 55.3639C181.949 57.41 180.649 60.2077 179.419 62.8846C178.048 65.8031 177.484 69.8356 177.832 72.2978Z" fill="white"></path> <path d="M163.301 79.5305C163.282 79.8422 163.262 80.1538 163.173 80.5863C162.62 80.4267 162.187 80.3373 161.564 80.2985C161.252 80.2791 160.902 80.8831 161.073 81.144C161.295 81.5959 161.638 82.1179 162.051 82.5191C164.308 84.4742 166.774 86.067 169.732 86.8142C169.852 86.8843 170.043 86.8336 170.304 86.6621C169.618 85.6182 168.862 84.695 168.176 83.6511C168.718 82.9964 169.01 83.3275 169.302 83.6586C170.058 84.5817 170.935 85.5749 171.691 86.4981C172.447 87.4212 173.414 87.982 174.711 88.2504C176.874 88.6979 178.896 89.3869 181.097 89.211C181.409 89.2304 181.67 89.0589 182.172 89.0275C180.278 87.2827 178.626 85.678 176.763 84.4357C175.867 83.7541 174.971 83.0726 174.195 82.4611C173.077 81.3277 171.869 80.6267 170.4 80.0973C170.037 79.887 169.484 79.7274 169.122 79.5171C167.259 78.2748 165.319 78.2793 163.301 79.5305ZM166.676 82.6191C165.671 82.6817 164.946 82.2611 164.451 81.1665C165.717 80.9324 166.091 81.9569 166.676 82.6191Z" fill="white"></path> <path d="M122.215 141.429C119.722 141.274 117.388 140.566 115.003 139.666C114.571 139.577 114.138 139.487 113.686 139.71C111.898 140.287 110.04 140.985 108.373 141.632C108.143 142.306 108.505 142.516 108.868 142.726C111.264 144.44 113.591 146.274 116.057 147.867C117.678 148.969 119.58 149.588 121.43 150.016C122.501 147.893 122.855 144.223 122.215 141.429Z" fill="white"></path> <path d="M174.666 152.328C177.155 150.543 179.212 148.668 179.959 145.711C178.771 144.698 177.422 144.239 175.985 144.212C173.542 144.248 171.099 144.284 168.727 144.198C167.48 144.121 166.284 144.234 165.158 144.227C164.877 144.71 165.049 144.971 165.291 145.111C165.996 145.843 166.892 146.525 167.387 147.62C167.438 147.81 167.559 147.881 167.68 147.951C168.989 149.033 170.177 150.046 171.627 150.887C172.453 151.689 173.439 151.939 174.666 152.328Z" fill="white"></path> <path d="M67.2856 146.209C68.4503 145.593 69.545 145.098 70.7097 144.482C71.2541 140.761 72.4726 137.27 72.5845 133.46C72.7784 130.343 73.284 127.245 73.5987 124.198C73.6375 123.575 73.6062 123.073 73.6838 121.826C72.9828 123.034 72.5116 123.568 72.2819 124.242C70.1716 128.992 68.4938 133.831 67.3692 138.83C66.7309 141.043 66.7861 143.174 67.2856 146.209Z" fill="white"></path> <path d="M50.1957 79.9386C52.8488 79.5405 55.1395 78.932 57.1572 77.6808C58.844 76.7219 60.6008 75.6423 62.2368 74.4925C62.4977 74.321 62.7587 74.1495 63.0898 73.8572C60.6739 72.4553 58.3787 71.1235 56.1343 69.9826C55.7719 69.7723 55.4602 69.7529 55.0278 69.6634C52.403 73.6303 50.6819 77.1528 50.1957 79.9386Z" fill="white"></path> <path d="M93.8069 94.1038C92.2485 94.0069 90.963 94.5527 89.8489 95.3595C86.5262 97.4681 83.0827 99.5067 79.76 101.615C79.76 101.615 79.6899 101.736 79.5498 101.978C80.103 102.137 80.6563 102.297 81.2797 102.336C83.3407 102.401 85.2809 102.397 87.3613 102.151C88.2457 102.018 89.0793 101.695 89.9831 101.25C91.7205 100.482 93.4072 99.5233 95.2848 98.5137C95.1207 97.1268 94.7151 95.5997 93.8069 94.1038Z" fill="white"></path> <path d="M163.771 157.469C167.098 157.301 171.025 155.542 173.381 152.873C173.019 152.663 172.847 152.402 172.485 152.192C170.915 151.28 169.154 150.42 167.583 149.509C166.496 148.878 165.428 147.935 164.36 146.993C163.193 150.675 163.361 154.002 163.771 157.469Z" fill="white"></path> <path d="M153.089 67.631C152.828 67.8025 152.637 67.8532 152.376 68.0247C150.097 69.4474 147.717 70.4883 145.216 71.4591C143.288 72.2778 141.41 73.2874 139.602 74.1762C139.08 74.5192 138.559 74.8622 138.037 75.2052C137.515 75.5482 137.164 76.1522 137.246 76.8456C137.258 77.6599 137.391 78.5442 137.453 79.5494C139.643 78.5592 141.349 77.2886 143.106 76.2089C145.053 75.0785 146.709 73.6171 148.485 72.2257C150.312 71.0252 152.088 69.6338 153.089 67.631Z" fill="white"></path> <path d="M134.071 28.3365C133.827 31.2625 133.411 33.9275 133.236 36.7327C133.108 37.7885 133.291 38.8638 133.596 40.0091C135.824 38.3955 139.06 33.6532 140.138 30.4036C138.326 29.3522 136.495 28.6125 134.071 28.3365Z" fill="white"></path> <path d="M136.529 88.3779C134.729 88.1408 132.941 88.7179 131.394 89.4352C129.396 90.3747 127.569 91.5752 125.742 92.7757C123.985 93.8554 122.47 95.0752 120.764 96.3458C118.205 98.2517 115.404 100.017 112.947 102.305C109.305 105.52 105.542 108.665 101.417 111.6C100.303 112.407 99.1889 113.214 98.0047 114.141C97.8139 114.192 97.7945 114.504 97.6543 114.745C98.1181 115.337 98.6713 115.497 99.1933 115.154C100.969 113.763 102.866 112.441 104.522 110.98C107.381 108.279 110.29 105.769 113.321 103.33C116.281 101.011 119.121 98.6215 122.202 96.3727C124.761 94.4668 127.441 92.631 130.222 91.177C131.578 90.5104 133.105 90.1048 134.581 89.5083C135.364 88.9938 136.179 88.9819 136.529 88.3779Z" fill="white"></path> <path d="M64.6535 146.296C63.6602 147.173 62.4761 148.101 61.4829 148.978C58.9043 151.195 56.0842 153.273 53.1627 154.968C48.5544 157.623 44.1684 160.729 39.8525 163.715C36.9115 165.722 34.0407 167.608 31.0998 169.616C30.2467 170.251 29.2729 170.816 28.7121 171.783C29.3862 172.012 29.8575 171.478 30.3093 171.256C33.3711 169.319 36.3627 167.503 39.4244 165.565C41.5123 164.193 43.4794 162.751 45.6373 161.259C46.1593 160.916 46.6813 160.573 47.2032 160.23C51.8503 156.952 56.4272 153.795 61.0742 150.517C62.4492 149.539 63.7034 148.49 64.9577 147.442C64.9771 147.13 65.0666 146.698 64.6535 146.296Z" fill="white"></path> <path d="M76.8238 144.8C75.4175 145.276 74.0499 145.128 72.5541 146.036C73.088 146.508 73.5712 146.788 73.8635 147.119C74.2766 147.52 74.8805 147.871 75.2936 148.272C76.3614 149.214 77.2383 150.208 78.236 151.271C78.4776 151.411 78.5283 151.602 78.8399 151.622C80.8428 152.622 82.5846 153.794 84.3772 155.158C84.498 155.228 84.8097 155.247 85.2421 155.337C82.8606 151.371 80.7907 147.425 76.8238 144.8Z" fill="white"></path> <path d="M139.553 113.221C139.483 113.342 139.292 113.393 139.292 113.393C138.588 117.667 136.606 121.361 134.503 124.985C133.942 125.951 133.312 127.038 132.872 128.075C132.731 128.316 132.763 128.819 132.673 129.251C134.488 127.237 136.233 125.343 137.978 123.449C138.519 122.794 139.181 122.209 139.723 121.555C140.194 121.021 140.856 120.436 141.086 119.762C141.577 118.917 141.826 117.931 142.196 117.015C142.266 116.894 142.164 116.513 142.114 116.322C141.307 115.208 140.831 113.801 139.553 113.221Z" fill="white"></path> <path d="M189.459 61.4451C188.364 61.9402 187.562 62.7664 187.001 63.7327C186.039 65.1122 185.14 67.4968 184.693 69.6592C185.195 69.6279 185.628 69.7174 186.009 69.616C187.988 68.9882 189.917 68.1695 191.896 67.5417C191.65 65.4613 190.507 62.6993 189.459 61.4451Z" fill="white"></path> <path d="M135.697 80.6286C135.755 79.6935 135.794 79.0701 135.833 78.4468C135.746 75.8131 135.454 75.482 133.139 74.4619C130.392 73.3523 127.626 72.5544 124.719 71.9981C124.599 71.928 124.458 72.1696 124.147 72.1502C124.509 72.3605 124.801 72.6916 125.164 72.9018C127.993 74.7049 130.943 76.5781 133.351 79.1059C133.643 79.437 133.885 79.5772 134.247 79.7874C134.419 80.0484 134.972 80.208 135.697 80.6286Z" fill="white"></path> <path d="M159.992 79.3874C160.775 78.8729 161.437 78.2883 162.22 77.7738C162.059 73.3207 161.879 69.1793 161.788 64.6054C161.457 64.8977 161.317 65.1393 161.176 65.3809C160.168 68.5097 159.211 71.8293 159.067 75.1371C159.079 75.9513 158.9 76.8163 159.033 77.7007C159.115 78.3941 159.076 79.0175 159.992 79.3874Z" fill="white"></path> <path d="M111.721 138.086C114.978 138.038 117.257 136.616 119.313 134.741C118.507 133.627 117.7 132.513 116.893 131.399C114.837 133.274 113.142 135.358 111.721 138.086Z" fill="white"></path> <path d="M62.7348 72.5207C63.1047 71.6051 62.5007 71.2546 62.1577 70.7326C60.9065 68.7149 58.5488 66.3779 56.616 65.2564C55.8644 66.2735 55.8644 66.2735 55.5572 68.1943C56.2938 69.4291 57.4824 70.4417 58.8306 70.9011C60.2995 71.4305 61.4568 71.9406 62.7348 72.5207Z" fill="white"></path> <path d="M115.755 138.65C118.069 139.67 119.83 140.53 122.102 140.234C122.351 139.248 121.906 138.344 121.583 137.51C121.31 136.868 121.228 136.174 120.312 135.804C119.007 136.662 117.702 137.519 115.755 138.65Z" fill="white"></path> <path d="M75.4573 149.658C74.4477 147.781 72.2853 147.333 70.6642 146.231C69.3981 146.465 68.0618 146.82 66.484 147.035C66.9672 147.315 67.1387 147.576 67.3803 147.716C67.9336 147.876 68.6077 148.106 69.231 148.144C71.2025 148.642 73.1934 148.829 75.0755 149.76C75.1262 149.95 75.1963 149.83 75.4573 149.658Z" fill="white"></path> <path d="M187.972 71.2393C190.267 72.5711 191.373 72.8902 193.905 72.422C193.983 71.1752 193.348 70.3222 192.732 69.1575C191.255 69.754 189.709 70.4713 187.972 71.2393Z" fill="white"></path> <path d="M95.8525 104.495C95.7123 104.736 95.5721 104.978 95.5528 105.289C94.9651 107.693 94.4282 110.288 93.9614 112.762C93.9614 112.762 94.0121 112.953 94.1329 113.023C94.4639 112.731 94.795 112.439 94.8144 112.127C95.5929 109.672 96.3714 107.218 95.8525 104.495Z" fill="white"></path> <path d="M152.073 84.9633C152.023 84.7724 151.902 84.7023 151.851 84.5114C151.73 84.4413 151.419 84.4219 151.228 84.4726C148.867 85.2018 146.506 85.931 144.216 86.5395C144.527 86.5589 144.89 86.7692 145.272 86.6677C146.799 86.2621 148.326 85.8565 149.853 85.4509C150.616 85.2481 151.31 85.1661 152.073 84.9633Z" fill="white"></path> <path d="M95.0673 100.002C93.5401 100.408 92.4261 101.214 91.1913 101.951C92.6602 102.481 93.8757 102.056 95.1418 101.821C95.1105 101.319 95.0792 100.816 95.0673 100.002Z" fill="white"></path> <path d="M135.986 110.183C135.553 110.094 135.191 109.884 134.758 109.794L134.688 109.915C135.051 110.125 135.413 110.335 135.896 110.616C135.966 110.495 136.036 110.374 135.986 110.183Z" fill="white"></path> <path d="M144.217 86.5396C143.714 86.5709 143.091 86.5321 142.589 86.5634C143.052 87.1554 143.364 87.1748 144.217 86.5396Z" fill="white"></path> <path d="M136.53 88.377C137.134 88.7275 137.827 88.6455 138.178 88.0415C137.574 87.691 137.122 87.9132 136.53 88.377Z" fill="white"></path> <path d="M153.137 83.9657C153.258 84.0358 153.378 84.1059 153.569 84.0552C153.76 84.0045 153.83 83.8837 153.9 83.7629C153.779 83.6928 153.589 83.7435 153.589 83.7435C153.328 83.915 153.258 84.0358 153.137 83.9657C153.137 83.9657 153.067 84.0865 153.137 83.9657Z" fill="white"></path> <path d="M132.616 109.035C132.928 109.054 133.119 109.003 133.431 109.023C133.088 108.501 132.947 108.742 132.616 109.035Z" fill="white"></path> <path d="M132.618 109.035C132.446 108.774 132.154 108.442 131.983 108.181L131.913 108.302C132.084 108.563 132.376 108.894 132.618 109.035Z" fill="white"></path> <path d="M140.207 87.6049C140.328 87.6752 140.399 87.5541 140.207 87.6049C140.399 87.5541 140.348 87.3628 140.348 87.3628C140.348 87.3628 140.278 87.4839 140.207 87.6049Z" fill="white"></path> <path d="M157.252 82.157L157.182 82.2781L157.303 82.3483L157.252 82.157Z" fill="white"></path> <path d="M156.02 82.8938L155.828 82.9446L155.949 83.0149L156.02 82.8938Z" fill="white"></path> <path d="M152.073 84.9633C152.404 84.671 152.805 84.2579 153.136 83.9656C152.443 84.0476 152.233 84.41 152.073 84.9633Z" fill="white"></path> <path d="M142.517 86.6843C142.447 86.8051 142.376 86.9259 142.115 87.0974L142.306 87.0467C142.376 86.9259 142.447 86.8051 142.517 86.6843Z" fill="white"></path> <path d="M138.178 88.041C138.369 87.9903 138.49 88.0604 138.681 88.0097C138.63 87.8188 138.63 87.8188 138.579 87.6279C138.509 87.7487 138.369 87.9903 138.178 88.041Z" fill="white"></path> <path d="M104.741 158.741C104.862 158.811 104.983 158.881 105.225 159.021C105.345 159.091 105.536 159.04 105.606 158.92C105.676 158.799 105.747 158.678 105.817 158.557C105.766 158.366 105.594 158.105 105.544 157.914C105.251 157.583 104.979 156.941 104.215 157.143C103.833 157.245 104.036 158.008 104.741 158.741Z" fill="#D9A35A"></path> <path d="M101.124 163.584C100.839 162.127 100.426 161.726 99.5105 161.356C99.3122 162.533 100.107 162.833 101.124 163.584Z" fill="#D9A35A"></path> <path d="M108.581 162.421C108.71 161.365 108.659 161.174 107.985 160.945C107.864 160.875 107.673 160.925 107.603 161.046C107.533 161.167 107.463 161.288 107.514 161.479C107.564 161.669 107.685 161.74 107.806 161.81C108.098 162.141 108.34 162.281 108.581 162.421Z" fill="#D9A35A"></path> <path d="M98.3418 160.031C98.3925 160.222 98.4432 160.413 98.4939 160.604L98.8757 160.502C98.825 160.311 98.7743 160.121 98.7236 159.93C98.7236 159.93 98.5327 159.98 98.3418 160.031Z" fill="#D9A35A"></path> <path d="M116.826 154.611C116.374 154.833 116.183 154.884 115.993 154.935C115.922 155.055 115.852 155.176 115.852 155.176C115.973 155.246 116.215 155.387 116.336 155.457C116.406 155.336 116.476 155.215 116.826 154.611Z" fill="#D9A35A"></path> <path d="M124.202 64.2676C124.455 65.2221 125.25 65.5218 126.064 65.5099C126.255 65.4592 126.516 65.2877 126.586 65.1669C126.656 65.0461 126.606 64.8553 126.485 64.7852C125.78 64.0529 125.035 63.944 124.202 64.2676Z" fill="#D9A35A"></path> <path d="M125.405 54.9571C125.054 55.5611 125.347 55.8922 125.709 56.1025C125.95 56.2427 126.453 56.2114 126.523 56.0906C126.854 55.7983 126.823 55.2957 126.461 55.0854C126.098 54.8751 125.716 54.9765 125.405 54.9571Z" fill="#D9A35A"></path> <path d="M128.226 65.9575C128.207 66.2692 128.187 66.5809 128.308 66.651C128.429 66.7211 128.741 66.7405 128.811 66.6197C128.881 66.4989 129.021 66.2573 128.97 66.0664C128.779 66.1171 128.538 65.9769 128.226 65.9575Z" fill="#D9A35A"></path> <path d="M101.419 90.4477C100.605 90.4596 100.274 90.7519 100.286 91.5662C100.216 91.687 100.578 91.8973 100.769 91.8466C101.412 91.5737 101.571 91.0204 101.419 90.4477Z" fill="#D9A35A"></path> <path d="M94.3074 65.9754C93.3142 66.8523 93.3142 66.8523 94.0702 67.7754C94.5415 67.2415 94.8219 66.7583 94.3074 65.9754Z" fill="#D9A35A"></path> <path d="M93.6015 70.2506C92.9781 70.2118 92.7678 70.5742 93.1108 71.0962C93.1615 71.287 93.6641 71.2557 93.9057 71.3959C93.9758 71.2751 93.9952 70.9634 94.0652 70.8426C93.8237 70.7025 93.6522 70.4415 93.6015 70.2506Z" fill="#D9A35A"></path> <path d="M99.8668 79.2132C99.6759 79.264 99.5551 79.1939 99.485 79.3147C99.1539 79.6069 99.1345 79.9186 99.3567 80.3705C99.4775 80.4406 99.91 80.5301 99.9801 80.4093C99.9995 80.0976 100.089 79.6651 100.108 79.3534C99.9876 79.2833 99.9876 79.2833 99.8668 79.2132Z" fill="#D9A35A"></path> <path d="M180.54 79.0368C180.47 79.1576 180.4 79.2783 180.33 79.3991C180.381 79.59 180.431 79.7809 180.431 79.7809C180.774 80.3029 181.328 80.4625 181.468 80.2209C181.538 80.1001 181.608 79.9793 181.678 79.8585C181.647 79.3559 181.234 78.9547 180.61 78.916L180.54 79.0368Z" fill="#D9A35A"></path> <path d="M166.674 82.6174C166.09 81.9552 165.715 80.9307 164.449 81.1648C164.944 82.2594 165.599 82.8008 166.674 82.6174Z" fill="#D9A35A"></path> </svg> 