<?xml version="1.0" encoding="UTF-8"?> <svg xmlns="http://www.w3.org/2000/svg" width="50" height="50" viewBox="0 0 50 50" fill="none"> <circle cx="25" cy="25" r="24.25" stroke="#D9A35A" stroke-width="1.5"></circle> <path d="M23.419 17.5259C24.0754 16.9072 25.0048 16.6969 25.8855 16.6726C26.8151 16.6644 27.7447 16.6685 28.6741 16.6685C28.6781 17.6431 28.6781 18.6136 28.6741 19.5882C28.0749 19.5882 27.4713 19.5882 26.8721 19.5882C26.4929 19.5639 26.1016 19.851 26.0323 20.2272C26.0241 20.8784 26.0282 21.5293 26.0282 22.1805C26.9087 22.1846 27.7895 22.1805 28.67 22.1846C28.6048 23.1267 28.4866 24.065 28.348 24.9952C27.5693 25.0033 26.7906 24.9952 26.0119 24.9993C26.0037 27.7775 26.0159 30.5516 26.0078 33.3301C24.8498 33.3341 23.6962 33.326 22.5382 33.3341C22.5177 30.5559 22.5382 27.7777 22.5259 24.9993C21.9633 24.9952 21.3966 25.0033 20.834 24.9952C20.8381 24.061 20.834 23.1269 20.834 22.1967C21.3966 22.1886 21.9633 22.1967 22.5259 22.1927C22.5423 21.2868 22.5096 20.3769 22.5423 19.471C22.6037 18.7473 22.8768 18.0233 23.419 17.5259Z" fill="#D9A35A"></path> </svg> 