<?xml version="1.0" encoding="UTF-8"?> <svg xmlns="http://www.w3.org/2000/svg" width="26" height="25" viewBox="0 0 26 25" fill="none"> <path d="M24.4777 0H24.0998C23.2625 0 22.5823 0.680167 22.5823 1.51753V18.4794C21.7419 18.4764 20.6748 18.3192 20.5297 17.5664L20.4844 6.01872C20.439 5.36274 20.1367 5.00301 19.8888 4.8186C19.251 4.33795 18.3773 4.51026 18.2806 4.53142L18.205 4.54654L17.0291 5.29623L16.5998 4.64025C15.9529 3.65476 14.6228 3.37967 13.6343 4.02659L12.6881 4.64932C12.5521 4.51631 12.3737 4.43167 12.1772 4.40446C11.9384 4.37423 11.6875 4.43167 11.4759 4.57374L11.095 4.82465C10.6386 5.12392 10.4935 5.71038 10.7685 6.13057L14.2238 11.3875C14.3931 11.6445 14.6772 11.7805 14.9795 11.7805C15.173 11.7805 15.3725 11.7231 15.5509 11.6052L15.9318 11.3543C16.1434 11.2152 16.2975 11.0096 16.3641 10.7769C16.4185 10.5864 16.4094 10.3899 16.3429 10.2146L17.2891 9.59187C18.2746 8.94495 18.5497 7.61485 17.9027 6.62634L17.5007 6.01268L18.5315 5.35669C18.725 5.32949 19.127 5.32042 19.3719 5.50482C19.523 5.61969 19.6077 5.80711 19.6228 6.04895L19.6651 17.6057L19.6712 17.6722C19.7709 18.3101 20.2909 19.3349 22.5793 19.3439V23.2798C22.5793 24.1172 23.2594 24.7974 24.0968 24.7974H24.4747C25.312 24.7974 25.9922 24.1172 25.9922 23.2798V1.51753C25.9952 0.680167 25.312 0 24.4777 0Z" fill="#D9A35A"></path> <path d="M0.429824 12.0042C0.266583 12.0042 0.112412 11.9105 0.0398611 11.7533C-0.0598968 11.5387 0.0338152 11.2817 0.251469 11.1819L1.50298 10.6046C1.71761 10.5048 1.97456 10.5985 2.07432 10.8162C2.17407 11.0308 2.08036 11.2877 1.86271 11.3875L0.611201 11.9649C0.550742 11.9921 0.490283 12.0042 0.429824 12.0042Z" fill="#D9A35A"></path> <path d="M3.04774 10.7979C2.8845 10.7979 2.73033 10.7042 2.65778 10.547C2.55802 10.3324 2.65174 10.0754 2.86939 9.97565L4.1209 9.39826C4.33855 9.2985 4.59248 9.39221 4.69224 9.60987C4.79199 9.8245 4.69828 10.0814 4.48063 10.1812L3.22912 10.7586C3.17169 10.7858 3.1082 10.7979 3.04774 10.7979Z" fill="#D9A35A"></path> <path d="M5.66859 9.59184C5.50535 9.59184 5.35118 9.49812 5.27863 9.34093C5.17887 9.1263 5.27258 8.86935 5.49024 8.76959L6.74175 8.1922C6.95638 8.09245 7.21333 8.18616 7.31309 8.40381C7.41284 8.61844 7.31913 8.87539 7.10148 8.97515L5.84997 9.55254C5.78951 9.57672 5.72905 9.59184 5.66859 9.59184Z" fill="#D9A35A"></path> <path d="M8.28663 8.38261C8.12339 8.38261 7.96922 8.2889 7.89667 8.1317C7.79691 7.91707 7.89063 7.66012 8.10828 7.56036L9.35979 6.98298C9.57442 6.88322 9.83137 6.97693 9.93113 7.19458C10.0309 7.40921 9.93717 7.66617 9.71952 7.76592L8.46801 8.34331C8.40755 8.37052 8.34709 8.38261 8.28663 8.38261Z" fill="#D9A35A"></path> <path d="M5.61721 19.6553C5.51141 19.6553 5.40561 19.616 5.32096 19.5374C5.14865 19.3741 5.13959 19.1021 5.30585 18.9298L6.25506 17.9292C6.4183 17.7569 6.69037 17.7508 6.86267 17.9141C7.03498 18.0773 7.04405 18.3494 6.87779 18.5217L5.92858 19.5223C5.84394 19.6099 5.73209 19.6553 5.61721 19.6553Z" fill="#D9A35A"></path> <path d="M7.60049 17.5635C7.49469 17.5635 7.38888 17.5242 7.30424 17.4456C7.13193 17.2823 7.12286 17.0103 7.28912 16.838L8.23833 15.8374C8.40157 15.6651 8.67364 15.659 8.84595 15.8223C9.01826 15.9855 9.02733 16.2576 8.86107 16.4299L7.91186 17.4305C7.82721 17.5181 7.71536 17.5635 7.60049 17.5635Z" fill="#D9A35A"></path> <path d="M9.58364 15.4685C9.47784 15.4685 9.37204 15.4292 9.28739 15.3506C9.11508 15.1874 9.10602 14.9153 9.27228 14.743L10.2215 13.7424C10.3847 13.5701 10.6568 13.564 10.8291 13.7273C11.0014 13.8905 11.0105 14.1626 10.8442 14.3349L9.89501 15.3355C9.81037 15.4232 9.69852 15.4685 9.58364 15.4685Z" fill="#D9A35A"></path> <path d="M11.5663 13.3765C11.4605 13.3765 11.3547 13.3372 11.2701 13.2586C11.0978 13.0953 11.0887 12.8233 11.2549 12.651L12.2042 11.6504C12.3674 11.4781 12.6395 11.472 12.8118 11.6352C12.9841 11.7985 12.9931 12.0706 12.8269 12.2429L11.8777 13.2435C11.793 13.3311 11.6812 13.3765 11.5663 13.3765Z" fill="#D9A35A"></path> <path d="M1.53358 14.4708C1.38243 14.4708 1.23733 14.3922 1.15873 14.2531C1.04084 14.0446 1.11641 13.7846 1.32197 13.6667L2.52209 12.9895C2.73067 12.8747 2.99065 12.9472 3.10854 13.1528C3.22644 13.3614 3.15087 13.6213 2.9453 13.7392L1.74519 14.4164C1.67868 14.4527 1.60311 14.4708 1.53358 14.4708Z" fill="#D9A35A"></path> <path d="M4.04533 13.0531C3.89418 13.0531 3.74908 12.9745 3.67048 12.8354C3.55259 12.6269 3.62514 12.3669 3.83372 12.249L5.03384 11.5718C5.24242 11.454 5.50542 11.5265 5.62029 11.7351C5.73819 11.9437 5.66564 12.2036 5.45705 12.3215L4.25694 12.9987C4.18741 13.035 4.11486 13.0531 4.04533 13.0531Z" fill="#D9A35A"></path> <path d="M6.55458 11.6351C6.40343 11.6351 6.25833 11.5565 6.17973 11.4174C6.06183 11.2089 6.13741 10.9489 6.34297 10.831L7.54309 10.1539C7.75167 10.039 8.01165 10.1115 8.12954 10.3171C8.24744 10.5257 8.17186 10.7857 7.9663 10.9035L6.76618 11.5807C6.69968 11.617 6.62713 11.6351 6.55458 11.6351Z" fill="#D9A35A"></path> <path d="M9.0662 10.2175C8.91506 10.2175 8.76995 10.1389 8.69136 9.99985C8.57346 9.79126 8.64601 9.53129 8.8546 9.41339L10.0547 8.73625C10.2633 8.61835 10.5233 8.69393 10.6412 8.89949C10.7591 9.10807 10.6865 9.36805 10.4779 9.48594L9.27781 10.1601C9.21131 10.1994 9.13876 10.2175 9.0662 10.2175Z" fill="#D9A35A"></path> <path d="M3.46194 17.1855C3.33196 17.1855 3.20499 17.1281 3.12035 17.0163C2.97525 16.8288 3.01152 16.5568 3.19895 16.4117L4.29326 15.5713C4.48068 15.4262 4.75275 15.4625 4.89785 15.6499C5.04295 15.8373 5.00668 16.1094 4.81926 16.2545L3.72494 17.0949C3.64635 17.1583 3.55566 17.1855 3.46194 17.1855Z" fill="#D9A35A"></path> <path d="M5.7504 15.4292C5.62041 15.4292 5.49344 15.3718 5.4088 15.2599C5.2637 15.0725 5.29998 14.8004 5.4874 14.6553L6.58171 13.8149C6.76914 13.6698 7.0412 13.7061 7.18631 13.8935C7.33141 14.081 7.29513 14.353 7.10771 14.4981L6.01339 15.3385C5.9348 15.399 5.84109 15.4292 5.7504 15.4292Z" fill="#D9A35A"></path> <path d="M8.03592 13.6726C7.90593 13.6726 7.77897 13.6152 7.69432 13.5033C7.54922 13.3159 7.5855 13.0438 7.77292 12.8987L8.86723 12.0583C9.05466 11.9132 9.32673 11.9495 9.47183 12.1369C9.61693 12.3244 9.58065 12.5964 9.39323 12.7415L8.29892 13.5819C8.22032 13.6424 8.12661 13.6726 8.03592 13.6726Z" fill="#D9A35A"></path> <path d="M10.3208 11.9136C10.1908 11.9136 10.0639 11.8561 9.97924 11.7443C9.83413 11.5569 9.87041 11.2848 10.0578 11.1397L11.1521 10.2993C11.3396 10.1542 11.6116 10.1905 11.7567 10.3779C11.9018 10.5653 11.8656 10.8374 11.6781 10.9825L10.5838 11.8229C10.5052 11.8864 10.4145 11.9136 10.3208 11.9136Z" fill="#D9A35A"></path> </svg> 