<?xml version="1.0" encoding="UTF-8"?> <svg xmlns="http://www.w3.org/2000/svg" width="30" height="30" viewBox="0 0 30 30" fill="none"> <path d="M28.969 20.9643H27.5687L29.3357 14.7797C29.3684 14.6647 29.3454 14.5409 29.2735 14.4455C29.2013 14.35 29.0885 14.2938 28.969 14.2938H27.0632C26.9266 14.2938 26.8 14.3671 26.7323 14.4859L23.0304 20.9643H15.0563V10.2915H25.1573C25.3148 10.2915 25.4562 10.1947 25.5128 10.0479C25.5698 9.90084 25.5303 9.73426 25.4138 9.62836L14.9316 0.0991079C14.7865 -0.033036 14.5639 -0.033036 14.4187 0.0991079L3.93651 9.62836C3.82 9.73426 3.78054 9.90084 3.83749 10.0479C3.89407 10.1947 4.03552 10.2915 4.19298 10.2915H14.294V20.9643H0.381278C0.170593 20.9643 0.000108319 21.1349 0.000108319 21.3454V23.2513C0.000108319 23.4618 0.170593 23.6324 0.381278 23.6324H2.62326L0.0403098 28.7983C-0.0188757 28.9165 -0.0125477 29.0569 0.0570605 29.1693C0.126669 29.2815 0.249134 29.35 0.381278 29.35H2.28713C2.43156 29.35 2.56333 29.2685 2.6281 29.1393L5.38153 23.6324H14.294V28.9688C14.294 29.1793 14.4645 29.35 14.6752 29.35C14.8858 29.35 15.0563 29.1793 15.0563 28.9688V23.6324H25.7291V28.9688C25.7291 29.1793 25.8996 29.35 26.1103 29.35H28.0161C28.2268 29.35 28.3973 29.1793 28.3973 28.9688V23.6324H28.969C29.1797 23.6324 29.3502 23.4618 29.3502 23.2513V21.3454C29.3502 21.1349 29.1797 20.9643 28.969 20.9643Z" fill="#D9A35A"></path> </svg> 