<?xml version="1.0" encoding="UTF-8"?> <svg xmlns="http://www.w3.org/2000/svg" width="43" height="20" viewBox="0 0 43 20" fill="none"> <path d="M40.6348 0H1.38822C0.62117 0 0 0.62117 0 1.38822V10.6587C0 11.4258 0.62117 12.0469 1.38822 12.0469H40.6348C41.4019 12.0469 42.0231 11.4258 42.0231 10.6587V1.38822C42.0231 0.62117 41.3972 0 40.6348 0ZM40.2584 10.0046C40.2584 10.2728 40.0419 10.494 39.769 10.494H2.25409C1.98586 10.494 1.76469 10.2775 1.76469 10.0046V8.20226C1.76469 7.93403 1.98115 7.71285 2.25409 7.71285H39.7737C40.0419 7.71285 40.2631 7.92932 40.2631 8.20226V10.0046H40.2584ZM39.769 6.85169H2.25409C1.98586 6.85169 1.76469 6.63522 1.76469 6.36228C1.76469 6.09405 1.98115 5.87287 2.25409 5.87287H39.7737C40.0419 5.87287 40.2631 6.08934 40.2631 6.36228C40.2584 6.63051 40.0419 6.85169 39.769 6.85169Z" fill="#D9A35A"></path> <path d="M39.2838 8.69116H2.74304V9.51468H39.2838V8.69116Z" fill="#D9A35A"></path> <path d="M0.305981 19.9991C0.202453 19.9991 0.10363 19.9332 0.0706896 19.825C0.0283372 19.6932 0.103631 19.5567 0.230688 19.5191C0.282452 19.5003 1.58597 19.0626 1.58597 17.0485C1.58597 14.6956 3.10124 13.8533 3.16242 13.8156C3.28006 13.7497 3.43065 13.7968 3.49183 13.9144C3.55771 14.0321 3.51065 14.1827 3.39301 14.2438C3.33654 14.2768 2.07067 15.0015 2.07067 17.0438C2.07067 19.4297 0.44245 19.9567 0.371863 19.9803C0.357745 19.9991 0.32951 19.9991 0.305981 19.9991Z" fill="#D9A35A"></path> <path d="M4.09456 19.9991C3.99103 19.9991 3.8922 19.9332 3.85926 19.825C3.81691 19.6932 3.8922 19.5567 4.01926 19.5191C4.07103 19.5003 5.37454 19.0626 5.37454 17.0485C5.37454 14.6956 6.88511 13.8533 6.95099 13.8156C7.06864 13.7497 7.21923 13.7968 7.2804 13.9144C7.34628 14.0321 7.29923 14.1827 7.18158 14.2438C7.12511 14.2768 5.85924 15.0015 5.85924 17.0438C5.85924 19.4297 4.23102 19.9567 4.16044 19.9803C4.14632 19.9991 4.11808 19.9991 4.09456 19.9991Z" fill="#D9A35A"></path> <path d="M7.88313 19.9991C7.7796 19.9991 7.68078 19.9332 7.64784 19.825C7.60549 19.6932 7.68078 19.5567 7.80784 19.5191C7.86431 19.5003 9.16311 19.0626 9.16311 17.0485C9.16311 14.6956 10.6737 13.8533 10.7396 13.8156C10.8572 13.7497 11.0078 13.7968 11.069 13.9144C11.1349 14.0321 11.0878 14.1827 10.9702 14.2438C10.9184 14.2721 9.64782 14.9968 9.64782 17.0438C9.64782 19.4297 8.01489 19.9567 7.94901 19.9803C7.93019 19.9991 7.90666 19.9991 7.88313 19.9991Z" fill="#D9A35A"></path> <path d="M11.6716 19.9991C11.5681 19.9991 11.4692 19.9332 11.4363 19.825C11.3939 19.6932 11.4692 19.5567 11.5963 19.5191C11.6481 19.5003 12.9516 19.0626 12.9516 17.0485C12.9516 14.6956 14.4668 13.8533 14.528 13.8156C14.6457 13.7497 14.7963 13.7968 14.8574 13.9144C14.9233 14.0321 14.8763 14.1827 14.7586 14.2438C14.7068 14.2721 13.4363 14.9968 13.4363 17.0438C13.4363 19.4297 11.8081 19.9567 11.7375 19.9803C11.7186 19.9991 11.6951 19.9991 11.6716 19.9991Z" fill="#D9A35A"></path> <path d="M15.4582 19.9991C15.3547 19.9991 15.2559 19.9332 15.2229 19.825C15.1806 19.6932 15.2559 19.5567 15.3829 19.5191C15.4347 19.5003 16.7382 19.0626 16.7382 17.0485C16.7382 14.6956 18.2535 13.8533 18.3146 13.8156C18.4323 13.7497 18.5829 13.7968 18.644 13.9144C18.7099 14.0321 18.6629 14.1827 18.5452 14.2438C18.4935 14.2721 17.2229 14.9968 17.2229 17.0438C17.2229 19.4297 15.5947 19.9567 15.5241 19.9803C15.5053 19.9991 15.4817 19.9991 15.4582 19.9991Z" fill="#D9A35A"></path> <path d="M41.7173 20.0002C41.6938 20.0002 41.6703 19.9955 41.6468 19.9908C41.5762 19.9719 39.9479 19.4402 39.9479 17.0543C39.9479 15.0073 38.6821 14.2826 38.6256 14.2543C38.508 14.1885 38.4656 14.0426 38.5268 13.9249C38.5927 13.8073 38.7386 13.7602 38.8562 13.8261C38.9221 13.8591 40.4326 14.7061 40.4326 17.059C40.4326 19.0684 41.7315 19.5108 41.7879 19.5296C41.915 19.5719 41.9856 19.7084 41.9479 19.8355C41.915 19.9343 41.8209 20.0002 41.7173 20.0002Z" fill="#D9A35A"></path> <path d="M37.9288 20.0002C37.9052 20.0002 37.8817 19.9955 37.8582 19.9908C37.7876 19.9719 36.1594 19.4402 36.1594 17.0543C36.1594 15.0073 34.8935 14.2826 34.837 14.2543C34.7194 14.1885 34.677 14.0426 34.7382 13.9249C34.8041 13.8073 34.95 13.7602 35.0676 13.8261C35.1335 13.8591 36.6441 14.7061 36.6441 17.059C36.6441 19.0684 37.9429 19.5108 37.9994 19.5296C38.1264 19.5719 38.197 19.7084 38.1594 19.8355C38.1264 19.9343 38.0323 20.0002 37.9288 20.0002Z" fill="#D9A35A"></path> <path d="M34.1402 20.0002C34.1167 20.0002 34.0931 19.9955 34.0696 19.9908C33.999 19.9719 32.3708 19.4402 32.3708 17.0543C32.3708 15.0073 31.1049 14.2826 31.0485 14.2543C30.9308 14.1885 30.8885 14.0426 30.9496 13.9249C31.0155 13.8073 31.1614 13.7602 31.279 13.8261C31.3449 13.8591 32.8555 14.7061 32.8555 17.059C32.8555 19.0684 34.1543 19.5108 34.2108 19.5296C34.3378 19.5719 34.4084 19.7084 34.3708 19.8355C34.3378 19.9343 34.2437 20.0002 34.1402 20.0002Z" fill="#D9A35A"></path> <path d="M30.3536 20.0002C30.33 20.0002 30.3065 19.9955 30.283 19.9908C30.2124 19.9719 28.5842 19.4402 28.5842 17.0543C28.5842 15.0073 27.3183 14.2826 27.2618 14.2543C27.1442 14.1885 27.1018 14.0426 27.163 13.9249C27.2289 13.8073 27.3748 13.7602 27.4924 13.8261C27.5583 13.8591 29.0689 14.7061 29.0689 17.059C29.0689 19.0684 30.3677 19.5108 30.4242 19.5296C30.5512 19.5719 30.6218 19.7084 30.5842 19.8355C30.5512 19.9343 30.4571 20.0002 30.3536 20.0002Z" fill="#D9A35A"></path> <path d="M26.5651 20.0002C26.5416 20.0002 26.5181 19.9955 26.4945 19.9908C26.4239 19.9719 24.7957 19.4402 24.7957 17.0543C24.7957 15.0073 23.5299 14.2826 23.4734 14.2543C23.3557 14.1885 23.3134 14.0426 23.3746 13.9249C23.4404 13.8073 23.5863 13.7602 23.704 13.8261C23.7699 13.8591 25.2804 14.7061 25.2804 17.059C25.2804 19.0684 26.5792 19.5108 26.6357 19.5296C26.7628 19.5719 26.8334 19.7084 26.7957 19.8355C26.7628 19.9343 26.6686 20.0002 26.5651 20.0002Z" fill="#D9A35A"></path> </svg> 