<?xml version="1.0" encoding="UTF-8"?> <svg xmlns="http://www.w3.org/2000/svg" width="25" height="25" viewBox="0 0 25 25" fill="none"> <path d="M8.77163 10.3826L9.51958 12.6125C10.0554 14.2101 10.3288 15.884 10.3289 17.569C10.3292 17.6445 10.3003 17.7171 10.2483 17.7717C10.1963 17.8263 10.1252 17.8587 10.0498 17.8621H5.02631C4.95235 17.8619 4.88149 17.8324 4.8292 17.7801C4.77691 17.7278 4.74744 17.6569 4.74722 17.583C4.74742 15.9499 4.4816 14.3276 3.9602 12.7799L3.29319 10.804C4.56114 11.2713 5.95194 11.2841 7.22829 10.8403C7.72506 10.6673 8.23951 10.5147 8.77163 10.3826ZM4.74722 5.86141H5.86356C6.0116 5.86141 6.15357 5.8026 6.25825 5.69792C6.36293 5.59325 6.42173 5.45127 6.42173 5.30324C6.42173 5.1552 6.36293 5.01323 6.25825 4.90855C6.15357 4.80387 6.0116 4.74507 5.86356 4.74507H4.74722C4.59919 4.74507 4.45721 4.80387 4.35254 4.90855C4.24786 5.01323 4.18905 5.1552 4.18905 5.30324C4.18905 5.45127 4.24786 5.59325 4.35254 5.69792C4.45721 5.8026 4.59919 5.86141 4.74722 5.86141V5.86141ZM1.35324 8.83855C0.851417 8.28187 0.474341 7.62439 0.247264 6.91014C0.0201868 6.19589 -0.0516486 5.44136 0.036569 4.69709C0.125184 3.92556 0.382203 3.18292 0.789454 2.52166C1.19671 1.86041 1.74425 1.29669 2.39337 0.870364C3.04249 0.444036 3.77733 0.165509 4.54596 0.0544733C5.31458 -0.0565622 6.09821 0.00260532 6.84145 0.227793C9.14354 0.968035 11.5429 1.36176 13.9609 1.39604H18.7015C18.7468 1.39607 18.7914 1.4071 18.8314 1.4282C18.8715 1.4493 18.9058 1.47983 18.9315 1.51715C18.9571 1.55448 18.9733 1.59748 18.9786 1.64245C18.984 1.68742 18.9783 1.73301 18.962 1.77529L16.1712 9.03151C16.1509 9.08418 16.1152 9.12947 16.0687 9.16141C16.0222 9.19335 15.9671 9.21045 15.9106 9.21043H14.1544C11.7392 9.17787 9.33562 9.5505 7.04368 10.3128C6.05551 10.6558 4.98797 10.6989 3.9754 10.4365C2.96283 10.1742 2.05047 9.61827 1.35313 8.83864L1.35324 8.83855ZM8.9335 5.30324C8.9335 5.37726 8.96291 5.44824 9.01524 5.50058C9.06758 5.55292 9.13857 5.58232 9.21259 5.58232H13.1198C13.1938 5.58232 13.2648 5.55292 13.3171 5.50058C13.3695 5.44824 13.3989 5.37726 13.3989 5.30324C13.3989 5.22922 13.3695 5.15823 13.3171 5.1059C13.2648 5.05356 13.1938 5.02415 13.1198 5.02415H9.21259C9.13857 5.02415 9.06758 5.05356 9.01524 5.1059C8.96291 5.15823 8.9335 5.22922 8.9335 5.30324ZM3.63088 5.30324C3.63119 5.59922 3.7489 5.88298 3.95819 6.09227C4.16748 6.30156 4.45125 6.41927 4.74722 6.41958H5.86356C6.15964 6.41958 6.44358 6.30197 6.65294 6.09261C6.86229 5.88326 6.9799 5.59931 6.9799 5.30324C6.9799 5.00717 6.86229 4.72322 6.65294 4.51387C6.44358 4.30451 6.15964 4.1869 5.86356 4.1869H4.74722C4.45125 4.18721 4.16748 4.30492 3.95819 4.51421C3.7489 4.7235 3.63119 5.00726 3.63088 5.30324V5.30324ZM18.7015 20.0948H8.09625C8.02225 20.0947 7.9513 20.0653 7.89898 20.0129C7.84665 19.9606 7.81723 19.8897 7.81716 19.8157V19.5366H8.65442C8.72837 19.5364 8.79923 19.5069 8.85152 19.4546C8.90382 19.4023 8.93329 19.3315 8.9335 19.2575V18.4202H6.14265V19.2575C6.14286 19.3315 6.17233 19.4023 6.22463 19.4546C6.27692 19.5069 6.34778 19.5364 6.42173 19.5366H7.25899V19.8157C7.25923 20.0377 7.34752 20.2505 7.50449 20.4074C7.66145 20.5644 7.87427 20.6527 8.09625 20.6529H18.7015C18.9235 20.6529 19.1365 20.7411 19.2935 20.8982C19.4505 21.0552 19.5387 21.2681 19.5387 21.4902C19.5387 21.7122 19.4505 21.9252 19.2935 22.0822C19.1365 22.2392 18.9235 22.3274 18.7015 22.3274H4.16084C4.09611 22.0125 3.92478 21.7295 3.67573 21.5262C3.42668 21.3228 3.11515 21.2115 2.79362 21.2111H1.67728C1.60327 21.2111 1.53228 21.2405 1.47994 21.2928C1.4276 21.3452 1.3982 21.4162 1.3982 21.4902V21.7693H0.560942C0.486924 21.7693 0.415938 21.7987 0.363599 21.851C0.311261 21.9034 0.281857 21.9743 0.281857 22.0484C0.281857 22.1224 0.311261 22.1934 0.363599 22.2457C0.415938 22.298 0.486924 22.3274 0.560942 22.3274H1.3982V22.8856H0.560942C0.486924 22.8856 0.415938 22.915 0.363599 22.9674C0.311261 23.0197 0.281857 23.0907 0.281857 23.1647C0.281857 23.2387 0.311261 23.3097 0.363599 23.362C0.415938 23.4144 0.486924 23.4438 0.560942 23.4438H1.3982V23.7229C1.3982 23.7969 1.4276 23.8679 1.47994 23.9202C1.53228 23.9726 1.60327 24.002 1.67728 24.002H2.79362C3.11515 24.0015 3.42668 23.8902 3.67573 23.6869C3.92478 23.4835 4.09611 23.2006 4.16084 22.8856H18.7015C19.0716 22.8856 19.4265 22.7386 19.6882 22.4769C19.9499 22.2152 20.0969 21.8603 20.0969 21.4902C20.0969 21.1201 19.9499 20.7652 19.6882 20.5035C19.4265 20.2418 19.0716 20.0948 18.7015 20.0948ZM23.725 5.02415H18.7015C18.6275 5.02415 18.5565 5.05356 18.5041 5.1059C18.4518 5.15823 18.4224 5.22922 18.4224 5.30324C18.4224 5.37726 18.4518 5.44824 18.5041 5.50058C18.5565 5.55292 18.6275 5.58232 18.7015 5.58232H23.725C23.799 5.58232 23.87 5.55292 23.9224 5.50058C23.9747 5.44824 24.0041 5.37726 24.0041 5.30324C24.0041 5.22922 23.9747 5.15823 23.9224 5.1059C23.87 5.05356 23.799 5.02415 23.725 5.02415ZM20.9342 6.69866H18.1433C18.0693 6.69866 17.9983 6.72807 17.946 6.78041C17.8936 6.83275 17.8642 6.90373 17.8642 6.97775C17.8642 7.05177 17.8936 7.12275 17.946 7.17509C17.9983 7.22743 18.0693 7.25684 18.1433 7.25684H20.9342C21.0082 7.25684 21.0792 7.22743 21.1315 7.17509C21.1839 7.12275 21.2133 7.05177 21.2133 6.97775C21.2133 6.90373 21.1839 6.83275 21.1315 6.78041C21.0792 6.72807 21.0082 6.69866 20.9342 6.69866ZM19.2597 3.90781H22.0505C22.1245 3.90781 22.1955 3.87841 22.2479 3.82607C22.3002 3.77373 22.3296 3.70274 22.3296 3.62873C22.3296 3.55471 22.3002 3.48372 22.2479 3.43138C22.1955 3.37904 22.1245 3.34964 22.0505 3.34964H19.2597C19.1856 3.34964 19.1147 3.37904 19.0623 3.43138C19.01 3.48372 18.9806 3.55471 18.9806 3.62873C18.9806 3.70274 19.01 3.77373 19.0623 3.82607C19.1147 3.87841 19.1856 3.90781 19.2597 3.90781Z" fill="#D9A35A"></path> </svg> 