<?xml version="1.0" encoding="UTF-8"?> <svg xmlns="http://www.w3.org/2000/svg" width="34" height="38" viewBox="0 0 34 38" fill="none"> <path d="M25.1033 30.2373L24.625 28.8024V27.0386H24.2063C24.2113 28.9081 24.2153 30.3339 24.2161 30.6485C24.703 30.5896 25.1033 30.2373 25.1033 30.2373Z" fill="#D9A35A"></path> <path d="M32.9276 10.5067C32.7582 7.27802 29.699 5.84305 27.9849 5.44449C26.6122 5.12533 22.9906 5.08731 21.6022 5.08479C21.1481 4.27153 20.7605 3.85396 20.6731 3.76487L20.6672 3.75745C18.7965 1.36955 15.9957 0 12.9827 0C9.96989 0 7.16896 1.36955 5.29825 3.75745L5.23905 3.83291C5.09747 3.98908 4.78967 4.35966 4.43308 4.9798C4.2585 4.96079 4.06585 4.95087 3.85515 4.95087C2.27263 4.95087 0.141703 5.49161 0.120298 5.49711L0 5.52784L0.0670851 5.63247C0.0894467 5.66715 2.15747 8.9195 2.64667 12.0482C2.63208 12.3864 2.62395 12.7357 2.62395 13.0975V32.5262C2.31663 32.6919 1.98587 32.9406 2.01804 33.2321C2.03813 33.4145 2.19514 33.5739 2.49301 33.7136L2.30503 33.8607V36.0992C2.28602 36.1525 2.25839 36.2853 2.36279 36.4577C2.71148 37.0332 4.57502 37.9984 13.1349 38H13.1569C21.717 37.9983 23.5806 37.0332 23.9293 36.4577C24.0337 36.2853 24.0062 36.1525 23.9871 36.0992V33.8606L23.7122 33.6456C23.9271 33.5215 24.0414 33.383 24.0567 33.2278C24.0878 32.9109 23.6981 32.6463 23.3525 32.4756V32.2582C23.9409 31.9203 24.1183 30.7156 24.1183 30.7156C24.1183 30.7156 24.1182 30.691 24.118 30.6483C24.1172 30.3337 24.1133 28.9079 24.1082 27.0384C24.0964 22.6917 24.0785 15.9592 24.0785 15.2897C24.0785 14.2932 23.9754 11.742 24.7162 11.0247C25.344 10.4168 26.6279 10.1806 27.6758 10.7157C29.0809 11.4332 29.1805 13.0176 29.1805 13.0176C29.1805 13.0176 29.5792 22.9428 29.7386 24.4575C29.898 25.9723 30.695 26.8265 31.9807 26.7096C33.6249 26.5601 33.6449 24.5373 33.6449 24.5373C33.6449 24.5373 33.0281 12.421 32.9276 10.5067Z" fill="#D9A35A"></path> </svg> 