<?xml version="1.0" encoding="UTF-8"?> <svg xmlns="http://www.w3.org/2000/svg" width="39" height="37" viewBox="0 0 39 37" fill="none"> <path d="M29.5975 24.9121C29.8502 24.4415 30.0914 23.7779 29.9068 23.2851C29.7697 22.6151 29.3883 21.9113 29.677 21.0703C30.1593 19.743 30.9345 19.7449 30.7505 18.7774C30.6762 18.3458 30.5535 17.9172 30.3935 17.5101C30.2226 17.0844 30.1619 16.7198 29.7051 16.5341C29.5112 16.3713 29.2453 16.3001 29.0248 16.1776C28.7718 15.999 28.7444 15.865 28.4057 15.7109C28.325 15.6577 28.1636 15.5511 27.812 15.5044C27.4949 15.3877 27.1887 15.2898 26.8349 15.3692C25.8674 15.5532 25.1221 16.8576 24.1126 16.6663C24.1363 16.5776 24.1413 16.4998 24.1543 16.3925C24.1989 16.1669 24.3508 15.9543 24.4358 15.7554C24.8693 14.9058 25.7976 13.7455 27.0417 13.0023C27.3975 12.7968 27.7613 12.5618 28.1172 12.3564C28.473 12.1509 28.8318 11.9937 29.1552 11.7321C29.5053 11.4301 29.8474 11.1576 30.1168 10.8023C30.3141 10.5386 30.4603 10.2294 30.6173 9.93902C31.0681 9.37905 31.3908 8.94304 30.8032 7.70901C30.2804 6.58736 29.9083 5.55356 28.4939 5.39623C27.9089 5.33445 27.233 5.37501 26.7691 5.39317C26.5277 5.40766 26.3417 5.21535 26.132 5.11166C25.4489 4.70696 24.6441 4.69713 23.8933 4.78095C23.0648 4.85975 21.0144 5.24444 20.3826 5.53428C19.5901 5.8919 19.728 6.73628 18.8095 7.09179C18.4774 7.20861 18.5119 7.13871 18.1661 7.18854C17.4932 7.27738 17.3536 7.85743 16.2484 7.84625C15.5214 7.84144 14.7656 8.00308 14.1692 8.39738C13.8616 8.59994 13.6455 8.87452 13.3271 9.05835C12.8214 9.35031 11.9411 9.85855 12.1964 10.5602C12.2072 10.579 12.2288 10.6164 12.2397 10.6352C11.5459 10.8609 10.8415 11.7171 10.4015 12.2958C9.58897 12.9647 8.68896 12.6602 7.96353 13.0041C7.51112 13.2153 7.25258 13.5894 6.93495 13.9476C6.86293 14.0391 6.80173 14.1493 6.74052 14.2596C6.62602 14.4506 6.05699 14.9789 5.89422 15.1727C5.61907 15.4315 5.40301 15.7061 5.06588 15.9007C4.32751 16.352 4.2468 16.2987 3.58356 17.3559C3.44241 17.5872 3.32289 17.856 3.14139 18.0607C2.29799 19.0221 2.44783 18.9356 2.00722 19.9891C1.98057 20.0295 2.01302 20.0856 2.08002 20.0719C2.08292 20.1202 2.10454 20.1577 2.15282 20.1548C2.3488 20.1914 2.39495 20.3146 2.52684 20.4133C2.95995 20.6877 3.27411 20.756 3.67478 20.9742C4.44657 21.4027 4.32706 21.6714 4.95326 21.9342C5.6789 22.2395 5.8963 21.6645 7.03032 21.5092C7.12976 21.5517 7.26377 21.5242 7.34159 21.5293C7.60458 21.5522 7.85965 21.6047 8.10391 21.6385C8.42598 21.6773 9.12498 22.023 9.41829 22.2282C9.46946 22.2736 9.49109 22.311 9.56099 22.3456C9.8514 22.5026 9.97325 22.7569 10.237 22.9542C10.4741 23.1919 10.8099 23.2977 11.1169 23.5699C11.5804 24.0266 11.7721 24.3155 12.3717 24.6186C12.665 24.8238 13.0037 24.9779 13.3315 25.1133C13.7293 25.2832 13.9182 25.5238 14.3505 25.6238C14.7187 25.7858 14.5731 25.6201 15.2051 25.9794C15.4826 26.2438 15.6095 26.4202 16.17 26.3963C16.4114 26.3818 16.7255 26.4502 16.9972 26.6179C17.2581 26.767 17.2847 26.7266 17.5189 26.9161C17.5809 26.9802 17.6429 27.0443 17.7236 27.0976C17.7561 27.1538 17.7964 27.1804 17.8663 27.215C18.0306 27.3698 18.1575 27.5463 18.3298 27.6716C19.0108 28.2024 19.6217 28.0495 19.9301 28.0213C20.0079 28.0263 20.0965 28.05 20.1635 28.0363C20.5389 27.9944 20.9604 28.0757 21.3466 28.0525C21.8214 28.0531 22.2991 28.1019 22.766 28.132C24.0032 28.2419 24.4054 28.8088 26.0478 27.7606C26.3928 27.5365 26.6464 27.2402 26.9806 26.9973C27.3235 26.8992 27.6527 26.7341 27.9711 26.5503C28.4394 26.28 28.8918 26.0687 29.1928 25.5952C29.4197 25.3394 29.4938 25.1218 29.5975 24.9121ZM2.85988 18.6977C3.97129 17.6814 3.95659 16.7909 4.76698 16.2481C5.17613 15.9619 5.60981 15.7615 5.9678 15.4299C6.1522 15.2735 6.33949 15.1654 6.5347 15.0277C6.97764 14.4973 7.39103 13.9589 7.94713 13.538C8.66097 13.001 9.25897 12.9554 9.97437 12.7671C9.9931 12.7563 10.0414 12.7534 10.0601 12.7426C10.1537 12.6885 10.2179 12.6265 10.282 12.5646C10.5146 12.4053 10.7257 12.2085 10.8855 11.9664C11.2968 11.5541 11.7902 10.8947 12.4681 10.728C12.5009 9.66023 12.9886 9.55344 13.8689 9.04521C14.4121 8.73161 14.9948 8.27031 16.1404 8.30813C16.5 8.3253 16.4704 8.31738 16.5857 8.30078C16.902 8.24303 17.108 8.12409 17.3781 7.94316C17.6295 7.77304 17.8298 7.55754 18.1028 7.42488C18.489 7.4017 18.6201 7.32601 18.9846 7.26537C19.0783 7.2113 19.0596 7.22212 19.1049 7.17095C19.3347 6.96337 19.5537 6.73706 19.7834 6.52948C20.3293 5.61499 20.6672 5.59471 23.155 5.23222C25.8063 4.85023 25.7907 5.55848 26.4752 5.66274C26.7785 5.71235 27.1135 5.6438 27.414 5.64514C29.2858 5.51341 29.7168 5.91387 30.3447 7.17455C30.7968 8.08728 31.0297 8.57715 30.893 9.20547C30.8325 9.49009 30.6028 9.69766 30.502 9.95563C30.3421 10.1978 30.1931 10.4586 30.0036 10.6929C29.7156 11.059 29.3172 11.3639 28.9563 11.6471C28.6034 11.9009 28.1963 12.061 27.8326 12.296C27.4501 12.5418 27.0459 12.7501 26.6634 12.9959C25.5346 13.7226 24.0531 15.3521 23.8359 16.5763C23.8251 16.5576 23.8063 16.5684 23.7955 16.5496C23.7955 16.5496 23.7955 16.5496 23.7847 16.5309C23.8222 16.5093 23.8567 16.4394 23.8646 16.4098C22.6111 16.8339 21.2444 17.1485 19.9165 17.141C19.5628 17.2203 19.2141 17.2219 18.83 17.119C18.6232 17.0636 18.443 16.9678 18.2629 16.872C18.0236 16.7604 17.7873 16.6971 17.5589 16.6042C17.36 16.5193 17.1906 16.4422 16.9838 16.3868C16.1991 16.0657 15.5874 16.0443 14.4592 16.2961C13.6198 16.3562 12.8274 16.7138 11.9851 16.7256C11.7329 16.7214 11.462 16.728 11.2099 16.7237C10.9577 16.7195 10.7084 16.7635 10.4562 16.7593C10.204 16.755 9.97851 16.7104 9.74796 16.7436L9.71842 16.7357C9.05554 16.6689 8.41874 17.0366 7.77246 17.0851C7.41582 17.1162 7.09587 16.9513 6.73923 16.9824C5.78459 17.059 5.36095 17.1039 3.99524 18.242C3.40459 18.7328 2.7873 19.264 2.28025 19.8564C2.40981 19.432 2.5019 19.0292 2.85988 18.6977ZM25.1976 27.802C24.354 28.1142 24.1003 27.7613 22.7233 27.5823C22.1887 27.3915 21.7542 27.4176 21.1887 27.5194C20.7355 27.5563 20.6526 27.6291 20.3443 27.6573C19.2102 27.8125 18.6669 27.477 17.9159 26.9116C17.3581 26.3347 17.4367 26.514 17.1621 26.298C16.5942 25.8767 16.4019 26.0626 15.9508 25.9734C15.5747 25.841 15.4608 25.5571 14.9585 25.4226C14.2387 25.2139 14.9564 25.5487 13.3163 24.6975C13.3055 24.6788 13.3055 24.6788 13.2946 24.6601C13.1628 24.5614 13.0201 24.444 12.8774 24.3266C12.4147 24.0443 12.0212 23.6223 11.6867 23.216C11.1418 22.5317 10.5085 22.4728 10.1374 22.2626C9.84907 21.9795 8.94539 21.4524 8.50804 21.4302C7.70034 21.3721 6.87314 21.1504 5.91503 21.6536C5.58582 21.8187 5.30622 21.6805 5.0158 21.5235C4.79529 21.4011 4.67345 21.1468 4.45294 21.0244C3.92039 20.7075 3.0982 20.4081 2.89931 20.3231C2.68961 20.2194 2.57066 20.0134 2.36386 19.958L2.35305 19.9393C3.65175 18.8149 5.13174 16.8366 7.01169 17.3245C7.33666 17.4116 7.61336 17.5016 7.96208 17.5C8.61126 17.4998 9.22933 17.143 9.88352 17.0649C10.0953 17.0425 10.3367 17.028 10.5593 17.0244C10.6962 17.0452 10.7741 17.0502 10.9859 17.0278C12.2842 17.0274 12.1632 16.9475 12.9809 16.85C13.308 16.8109 13.6351 16.7719 13.9701 16.7034C15.6156 16.3527 16.112 16.3907 17.1115 16.7377C17.5417 16.9638 18.5485 17.756 19.5327 17.6872C20.486 17.911 22.4319 17.5617 22.9226 17.5031C23.3462 17.4583 23.826 17.3811 24.1927 17.1944C24.2864 17.1403 24.3908 17.105 24.4737 17.0322C25.5702 16.8985 26.4445 15.6446 27.2061 15.5795C27.4208 15.6053 27.4049 15.6644 27.5044 15.7069C27.6226 15.7386 27.7328 15.7998 27.851 15.8314C28.109 15.9322 28.297 15.9985 28.5125 16.1987C28.6768 16.3535 28.8304 16.4897 29.0401 16.5934C29.2498 16.697 29.4566 16.7525 29.6396 16.8965C29.8227 17.0405 29.9229 17.2574 30.0418 17.4634C30.2473 17.8193 30.3966 18.2076 30.5163 18.5879C30.5437 18.722 30.5632 18.8855 30.5906 19.0195C30.6607 19.7032 29.8351 19.8303 29.4047 21.3774C29.3306 21.595 29.3451 21.8363 29.3675 22.0482C29.6394 22.8651 29.7303 23.412 29.7369 23.6829C29.7031 23.9271 29.6917 24.3832 29.3324 25.0152C28.9889 25.5881 28.4732 26.0357 27.9063 26.4379C26.8055 26.8237 26.3359 27.3945 25.1976 27.802Z" fill="#D9A35A"></path> <path d="M23.877 16.6038C23.8986 16.6413 23.9202 16.6787 23.9231 16.727L23.9152 16.7566C23.9073 16.7861 23.9073 16.7861 23.8994 16.8156C23.921 16.8531 23.9318 16.8718 23.9347 16.9201C23.9722 16.8985 23.9988 16.8581 24.0067 16.8286C24.2133 16.2348 24.3825 15.6627 24.6481 15.0848C24.9376 14.4182 25.5224 13.8308 25.9625 13.2521C26.4025 12.6734 26.8829 12.1213 27.4145 11.6147C27.9273 11.1188 28.4322 10.6525 28.8427 10.0658C28.8507 10.0363 28.8103 10.0097 28.8024 10.0392C28.3328 10.61 27.7904 11.0979 27.2401 11.6154C26.6632 12.1733 26.1482 12.7952 25.6549 13.4547C25.2228 14.0038 24.7719 14.5638 24.391 15.1583C24.2044 15.4408 24.0366 15.7125 23.92 16.0296C23.8934 16.0699 23.8963 16.1182 23.8696 16.1585C23.8617 16.1881 23.8833 16.2256 23.8754 16.2551C23.8625 16.3625 23.8416 16.4994 23.877 16.6038Z" fill="#D9A35A"></path> <path d="M23.5184 16.4603C23.5075 16.4416 23.5155 16.4121 23.5155 16.4121C23.5205 16.3343 23.5176 16.286 23.5226 16.2082C23.4216 15.817 23.3984 15.4308 23.394 15.0338C23.3901 14.162 23.5418 13.3002 23.6158 12.4334C23.6818 11.5962 23.6109 10.7381 23.4543 9.90453C23.3691 9.45424 23.2278 9.03639 23.0864 8.61855C22.9667 8.23816 22.775 7.9493 22.5803 7.61217C22.5695 7.59344 22.532 7.61507 22.5429 7.6338C23.4274 9.29571 23.7343 11.3411 23.3804 13.1936C23.2287 14.0554 23.1735 14.9114 23.2364 15.799C23.2451 15.9438 23.2646 16.1074 23.3137 16.2788C23.3353 16.3163 23.3677 16.3725 23.3894 16.41C23.4376 16.4071 23.478 16.4337 23.5184 16.4603Z" fill="#D9A35A"></path> <path d="M23.8158 17.0617C23.7971 17.0725 23.7971 17.0725 23.8158 17.0617C23.7676 17.0645 23.7488 17.0754 23.7193 17.0674C23.6897 17.0595 23.671 17.0703 23.6415 17.0624C23.6955 17.1561 23.7683 17.2389 23.8944 17.241C24.0205 17.2432 24.0572 17.0472 23.939 17.0155C23.939 17.0155 23.9282 16.9968 23.9095 17.0076C23.9016 17.0371 23.8641 17.0588 23.8158 17.0617Z" fill="#D9A35A"></path> <path d="M25.4318 10.8604C25.3044 11.1587 25.1179 11.4412 24.9609 11.7316C24.8118 11.9925 24.6253 12.275 24.5353 12.5517C24.652 12.2346 24.8759 11.9305 25.0329 11.6401C25.2274 11.3281 25.411 10.9973 25.5759 10.6773C25.9086 10.0857 26.0827 9.43574 26.1978 8.76996C26.3128 8.10418 26.3393 7.41466 26.28 6.74965C26.2344 6.15165 26.1535 5.44919 25.7945 4.9572C25.7729 4.91975 25.7246 4.92264 25.7088 4.98173C25.675 5.22599 25.8235 5.43993 25.9237 5.65677C26.0484 5.95934 26.0608 6.32679 26.0998 6.65389C26.1541 7.3967 26.1601 8.14242 26.0479 8.85647C25.9545 9.55971 25.7508 10.2017 25.4318 10.8604Z" fill="#D9A35A"></path> <path d="M25.0695 13.2174C25.5009 12.4939 26.196 11.9677 26.7376 11.3054C27.2417 10.6647 27.7106 9.91953 27.9942 9.15643C28.262 8.45241 28.4383 7.67638 28.3544 6.92564C28.3371 6.63601 28.1407 5.30098 27.6321 5.54467C27.6133 5.55549 27.6054 5.58503 27.5975 5.61457C27.6819 5.8905 27.8412 6.12317 27.9256 6.39909C28.0237 6.74202 28.0548 7.09866 28.0563 7.44738C28.0623 8.1931 27.8565 8.96122 27.5671 9.62777C27.2402 10.316 26.8139 10.9617 26.3256 11.5433C26.072 11.8395 25.7969 12.0982 25.5513 12.3649C25.3431 12.6099 25.1753 12.8816 25.0479 13.1799C25.0105 13.2016 25.0508 13.2282 25.0695 13.2174Z" fill="#D9A35A"></path> <path d="M23.5201 16.46C23.59 16.4946 23.6412 16.5399 23.6924 16.5853C23.7436 16.6307 23.7465 16.679 23.7385 16.7085C23.7681 16.7164 23.7897 16.7539 23.8193 16.7618C23.8488 16.7697 23.8596 16.7884 23.8704 16.8072C23.8892 16.7964 23.8783 16.7776 23.8863 16.7481L23.8942 16.7185C23.91 16.6595 23.8884 16.622 23.848 16.5954C23.8127 16.4909 23.8523 16.3432 23.8169 16.2387C23.8061 16.22 23.8032 16.1717 23.8111 16.1422C23.7808 15.9599 23.8175 15.7639 23.8463 15.5975C23.9275 15.1759 23.9793 14.7465 24.1088 14.3221C24.2305 13.9272 24.3925 13.559 24.5732 13.18C24.6769 12.9703 24.7806 12.7606 24.9138 12.5588C25.0125 12.4269 25.0708 12.2684 25.1802 12.1552L25.1694 12.1365C25.0196 12.223 24.9613 12.3815 24.8518 12.4947C24.7157 12.6482 24.6199 12.8283 24.5241 13.0085C24.2793 13.4495 24.064 13.8985 23.8891 14.374C23.7329 14.8388 23.5875 15.3223 23.5199 15.8108C23.4991 15.9477 23.497 16.0738 23.5136 16.1891C23.5086 16.2669 23.5115 16.3152 23.5064 16.393C23.5281 16.4305 23.5389 16.4492 23.5201 16.46Z" fill="#D9A35A"></path> <path d="M23.8998 16.8155C23.889 16.7968 23.8782 16.778 23.8486 16.7701C23.8191 16.7622 23.7787 16.7356 23.7679 16.7168C23.7629 16.7947 23.6721 16.897 23.5648 16.8841C23.4682 16.8899 23.3796 16.8661 23.291 16.8424C23.4041 16.9518 23.5065 17.0426 23.6434 17.0634C23.6729 17.0714 23.6916 17.0605 23.7212 17.0685C23.7507 17.0764 23.7803 17.0843 23.799 17.0735L23.8177 17.0627C23.866 17.0598 23.8927 17.0194 23.9193 16.9791C23.9272 16.9495 23.9351 16.92 23.9243 16.9012C23.9135 16.8825 23.9214 16.853 23.8998 16.8155Z" fill="#D9A35A"></path> <path d="M23.3988 16.3801C23.3771 16.3426 23.3447 16.2864 23.3231 16.249C23.2366 16.0991 23.1796 15.9572 23.1118 15.7966C22.9597 15.36 22.8233 14.8643 22.816 14.4191C22.8036 14.0516 22.7105 13.6309 22.6686 13.2555C22.6051 12.8427 22.512 12.4219 22.4297 12.0199C22.4189 12.0012 22.4002 12.012 22.411 12.0307C22.5763 13.0091 22.5406 14.0286 22.6577 15.0099C22.7025 15.4336 22.7955 15.8543 22.9448 16.2426C23.0925 16.2822 23.2402 16.3218 23.3988 16.3801Z" fill="#D9A35A"></path> <path d="M20.254 8.38154C20.8839 8.86696 21.222 9.49585 21.5817 10.1622C21.5925 10.1809 21.63 10.1593 21.6192 10.1406C21.1886 8.61613 19.9562 7.7793 18.5295 7.25451C18.4005 7.20412 18.2528 7.16454 18.1051 7.12496C17.9711 7.15238 17.8666 7.18772 17.7729 7.24179C17.8911 7.27345 18.0093 7.30511 18.157 7.34469C18.9172 7.58005 19.6349 7.91486 20.254 8.38154Z" fill="#D9A35A"></path> <path d="M21.4218 15.8977C21.6805 16.1729 21.9659 16.4077 22.3313 16.5214C22.3716 16.548 22.4199 16.5451 22.4603 16.5718C22.6159 16.5818 22.7715 16.5919 22.9351 16.5724C23.1469 16.55 23.3962 16.5059 23.6059 16.6096C23.6462 16.6363 23.6707 16.722 23.6333 16.7436C23.5317 16.8272 23.4726 16.8114 23.3278 16.8201C23.3278 16.8201 23.3091 16.8309 23.2983 16.8122C23.3869 16.8359 23.4755 16.8597 23.5721 16.8539C23.6794 16.8668 23.7623 16.794 23.7752 16.6866C23.7723 16.6384 23.7694 16.5901 23.7291 16.5635C23.6779 16.5181 23.6267 16.4727 23.5568 16.4381C23.5165 16.4115 23.4761 16.3849 23.417 16.369C23.2772 16.2999 23.1 16.2524 22.9522 16.2128C22.8636 16.1891 22.8045 16.1732 22.7346 16.1387C22.5062 16.0458 22.2699 15.9825 22.076 15.8197C21.9037 15.6944 21.769 15.5475 21.6342 15.4005C21.3538 15.0879 21.1267 14.6946 20.9025 14.3495C20.6567 13.967 20.3922 13.5953 20.1276 13.2236C19.8955 12.9081 19.6181 12.6438 19.3593 12.3687C19.0602 12.0669 18.7878 11.7247 18.4807 11.4525C17.8775 10.9267 17.2289 10.4521 16.4421 10.2571C16.4421 10.2571 16.4233 10.2679 16.4341 10.2866C17.2347 10.5486 17.9453 11.0873 18.5435 11.6909C18.8131 11.9848 19.0452 12.3003 19.296 12.605C19.6088 12.9738 19.8733 13.3455 20.1112 13.7575C20.4552 14.483 20.8423 15.2833 21.4218 15.8977Z" fill="#D9A35A"></path> <path d="M19.8413 10.8666C20.5261 11.62 21.0451 12.519 21.5159 13.4209C21.5267 13.4396 21.5454 13.4288 21.5533 13.3993C21.1496 12.4837 20.6521 11.6221 19.997 10.8766C19.2985 10.0562 18.397 9.40297 17.4746 8.88666C16.7028 8.45821 15.8431 8.18037 14.9893 7.99908C14.8178 8.04813 14.6759 8.10509 14.5261 8.1916C15.5139 8.34547 16.5076 8.59589 17.4055 9.02646C18.3221 9.44622 19.1566 10.1131 19.8413 10.8666Z" fill="#D9A35A"></path> <path d="M24.2815 7.0538C24.3983 7.38591 24.4777 7.73965 24.5866 8.10131C24.6955 8.46297 24.8152 8.84335 24.8679 9.23745C24.8788 9.25618 24.8975 9.24537 24.8867 9.22664C24.8245 8.51336 24.6657 7.80588 24.4695 7.12002C24.2409 6.37798 23.7551 5.70951 23.2938 5.12678C23.221 5.04394 23.1482 4.96111 23.0646 4.85954C22.9976 4.87326 22.9306 4.88696 22.8636 4.90068C22.9472 5.00224 23.0416 5.12253 23.1252 5.2241C23.5757 5.78811 24.0183 6.38166 24.2815 7.0538Z" fill="#D9A35A"></path> <path d="M24.8963 10.971C24.9071 10.9898 24.9071 10.9898 24.8963 10.971C25.558 9.56511 25.5885 7.97424 25.075 6.52259C24.863 5.89582 24.5652 5.29358 24.2113 4.72378C24.1926 4.73459 24.163 4.72667 24.1443 4.73749C24.5249 5.26693 24.8306 5.83964 25.0318 6.44767C25.497 7.90222 25.4773 9.51182 24.8963 10.971Z" fill="#D9A35A"></path> <path d="M27.0895 7.15634C27.0947 7.72769 27.0841 8.35813 26.9445 8.93818C26.797 9.54777 26.5717 10.1523 26.3464 10.7569C26.3385 10.7865 26.3572 10.7756 26.3759 10.7648C26.6741 10.2431 26.8216 9.6335 26.9907 9.06137C27.1598 8.48924 27.1704 7.8588 27.1839 7.27663C27.2054 6.66492 27.1223 6.08855 26.8945 5.52086C26.8728 5.4834 26.8591 5.4164 26.8375 5.37894L26.8188 5.38975C26.7892 5.38184 26.7409 5.38474 26.7114 5.37682C26.7114 5.37682 26.7114 5.37682 26.7222 5.39555C27.0063 5.93079 27.1001 6.5259 27.0895 7.15634Z" fill="#D9A35A"></path> <path d="M28.9084 6.80622C28.9967 7.95395 28.7333 9.05496 28.1825 10.0473C28.1745 10.0768 28.2149 10.1035 28.2228 10.0739C28.8407 9.06789 29.0853 7.9777 29.0345 6.80834C29.0055 6.32562 28.8987 5.83787 28.6875 5.38546C28.6392 5.38836 28.5801 5.37253 28.5506 5.36461C28.7431 5.82783 28.8686 6.30476 28.9084 6.80622Z" fill="#D9A35A"></path> <path d="M30.2642 7.59609C30.3335 8.10547 30.1802 8.61851 30.024 9.08329C29.852 9.60715 29.6317 10.1339 29.3818 10.6527C29.3552 10.6931 29.4143 10.7089 29.4222 10.6794C29.9385 9.75698 30.5131 8.67604 30.409 7.5874C30.3613 7.11549 30.1904 6.68973 30.0382 6.25316C30.0166 6.2157 30.0137 6.16742 29.9921 6.12996C29.8977 6.00967 29.7953 5.91892 29.6822 5.80944C29.7499 5.97009 29.8177 6.13074 29.8963 6.31012C30.0189 6.73878 30.1978 7.13499 30.2642 7.59609Z" fill="#D9A35A"></path> <path d="M21.193 17.8785C21.1397 17.9592 21.0756 18.0212 21.0223 18.1019C20.5931 18.6994 20.3707 19.3522 20.2693 20.085C20.1679 20.8178 20.0666 21.5506 19.5704 22.1617C19.3543 22.4363 19.0871 22.6655 18.8602 22.9213C18.6146 23.188 18.2962 23.3718 18.021 23.6306C18.0023 23.6414 18.0318 23.6493 18.0318 23.6493C18.302 23.4684 18.5887 23.4027 18.8372 23.1843C19.0857 22.9659 19.3313 22.6993 19.5877 22.4513C20.0444 21.9879 20.3425 21.4662 20.4979 20.827C20.5742 20.4833 20.6613 20.1584 20.7375 19.8147C20.8217 19.4414 21.0241 19.0998 21.1781 18.7611C21.2818 18.5514 21.4338 18.3388 21.5778 18.1558C21.6095 18.0376 21.6303 17.9007 21.6807 17.7717C21.5172 17.7912 21.3536 17.8107 21.193 17.8785Z" fill="#D9A35A"></path> <path d="M22.6411 17.3165C22.6944 17.2358 22.6296 17.1234 22.533 17.1292C22.2808 17.125 22.0611 17.1769 21.8551 17.2959C21.9812 17.298 22.0885 17.3109 22.2067 17.3426C22.2945 17.192 22.5251 17.1588 22.6411 17.3165Z" fill="#D9A35A"></path> <path d="M19.7313 17.4246C19.753 17.462 19.7184 17.5319 19.681 17.5536C19.7213 17.5802 19.7055 17.6393 19.668 17.6609C19.4324 17.772 19.0945 17.7922 18.8373 17.8658C18.6846 17.9041 18.5506 17.9315 18.4087 17.9884C18.1415 18.2176 17.9175 18.5218 17.7605 18.8122C17.561 19.202 17.2139 19.5523 16.8717 19.8248C16.2436 20.3373 15.5889 20.8901 14.8014 21.1699C14.4023 21.3004 14.014 21.4497 13.6149 21.5802C13.2453 21.7187 12.7547 21.7772 12.3685 21.8004C12.3498 21.8112 12.3606 21.8299 12.3606 21.8299C12.7093 21.8284 13.1063 21.8239 13.4521 21.7741C13.8167 21.7135 14.2158 21.5829 14.5775 21.474C15.3303 21.2641 15.9858 20.8856 16.6277 20.4402C16.9432 20.2081 17.2558 19.9277 17.5497 19.6581C17.8435 19.3886 18.0351 19.0282 18.2965 18.7025C18.5846 18.3364 18.8518 18.1072 19.2855 17.9068C19.4836 17.8173 19.6522 17.72 19.8611 17.6493C19.9656 17.614 20.0917 17.6161 20.2177 17.6182C20.0434 17.619 19.8928 17.5312 19.7313 17.4246Z" fill="#D9A35A"></path> <path d="M20.4304 17.4689C20.4333 17.5171 20.4362 17.5654 20.3987 17.587C20.3987 17.587 20.3987 17.587 20.4175 17.5762C20.5032 17.5517 20.5053 17.4256 20.4167 17.4019C20.4383 17.4393 20.4491 17.458 20.4304 17.4689Z" fill="#D9A35A"></path> <path d="M21.681 17.7717C21.6969 17.7126 21.7235 17.6722 21.7394 17.6131C21.771 17.495 21.8755 17.4596 21.9828 17.4726C22.0361 17.3918 22.1111 17.3486 22.1997 17.3723C22.1002 17.3299 21.9741 17.3277 21.8481 17.3256C21.5772 17.3322 21.3012 17.4166 21.1031 17.506C20.6774 17.6769 20.2869 17.9522 19.9585 18.2917C19.6301 18.6311 19.4847 19.1147 19.2665 19.5153C18.9871 20.0262 18.6133 20.4169 18.2532 20.8745C18.2344 20.8853 18.2561 20.9228 18.2935 20.9012C18.5953 20.6021 18.9187 20.3404 19.1694 19.9959C19.4387 19.6406 19.6086 19.2429 19.8484 18.8797C20.1228 18.4465 20.5723 18.187 21.0139 17.957C21.0701 17.9246 21.1371 17.9109 21.1746 17.8893C21.3539 17.8107 21.5175 17.7912 21.681 17.7717Z" fill="#D9A35A"></path> <path d="M19.6813 17.5524C19.7187 17.5307 19.7533 17.4608 19.7317 17.4234C19.7021 17.4155 19.6805 17.378 19.6509 17.3701C19.393 17.2693 19.1112 17.2571 18.8483 17.2342C18.537 17.2141 18.2336 17.1645 17.9224 17.1444C17.2811 17.1151 16.7142 17.5173 16.233 17.895C15.9925 18.0838 15.7843 18.3289 15.5545 18.5365C15.2952 18.7361 15.0683 18.992 14.7903 19.2024C14.4856 19.4533 14.2025 19.7416 13.8762 19.9549C13.5795 20.1762 13.2286 20.3039 12.8669 20.4128C12.8482 20.4236 12.859 20.4423 12.8778 20.4315C13.4995 20.2973 13.9707 20.0752 14.4706 19.6867C14.9784 19.2687 15.5265 18.8773 16.0236 18.4405C16.5206 18.0037 17.0579 17.5936 17.7308 17.5047C18.0097 17.4686 18.3426 17.5261 18.6164 17.5678C18.6942 17.5729 18.7828 17.5966 18.8793 17.5908C18.8981 17.58 18.9276 17.5879 18.9651 17.5663C19.1956 17.5331 19.4687 17.4004 19.6813 17.5524Z" fill="#D9A35A"></path> <path d="M14.5762 16.4544C14.6244 16.4515 14.6619 16.4298 14.6885 16.3895L14.6965 16.3599C14.7231 16.3196 14.7173 16.223 14.6849 16.1669C14.5688 16.0091 14.3887 15.9133 14.2085 15.8176C13.9181 15.6606 13.6198 15.5332 13.3214 15.4057C13.0526 15.2862 12.7868 15.215 12.5101 15.125C12.2146 15.0458 11.9458 14.9263 11.6238 14.8875C10.3837 14.7294 9.1574 14.6383 7.92182 14.8772C7.87355 14.8801 7.88727 14.9471 7.93554 14.9442C9.11783 14.786 10.4061 14.9412 11.5554 15.2017C12.1247 15.3225 12.7105 15.5587 13.2481 15.7977C13.5168 15.9172 13.7669 16.0475 14.017 16.1779C14.1971 16.2736 14.4018 16.4551 14.5762 16.4544Z" fill="#D9A35A"></path> <path d="M20.3422 17.271C20.2478 17.1507 20.0785 17.0737 19.9466 16.975C19.6828 16.7777 19.499 16.4593 19.2806 16.2108C18.8546 15.7325 18.402 15.2946 17.9681 14.8459C17.5667 14.4533 17.0587 14.2222 16.5852 13.9212C16.5045 13.8679 16.3863 13.8362 16.2977 13.8125C16.1391 13.7542 16.0073 13.6555 15.8408 13.6267C15.4863 13.5317 15.0893 13.5362 14.7319 13.3929L14.7132 13.4037C14.9632 13.5341 15.1916 13.6269 15.4575 13.6982C15.7825 13.7853 16.065 13.9718 16.3741 14.1179C16.5947 14.2404 16.8397 14.4485 17.0523 14.6005C17.3456 14.8057 17.6014 15.0326 17.8307 15.2998C18.2271 15.7702 18.6797 16.2081 19.0574 16.6893C19.1518 16.8096 19.2571 16.9486 19.3918 17.0955L19.4214 17.1034C19.7247 17.1531 20.0814 17.122 20.3422 17.271Z" fill="#D9A35A"></path> <path d="M19.7311 17.423C19.8737 17.5404 20.0431 17.6174 20.1987 17.6274C20.247 17.6245 20.2953 17.6216 20.3435 17.6187C20.3623 17.6079 20.381 17.5971 20.381 17.5971C20.4185 17.5755 20.4343 17.5164 20.4127 17.4789C20.4018 17.4602 20.4018 17.4602 20.4098 17.4307C20.3881 17.3932 20.3665 17.3558 20.3449 17.3183C20.3665 17.3558 20.3399 17.3961 20.2916 17.399C20.061 17.4322 19.8463 17.4064 19.6208 17.3618C19.6316 17.3805 19.6316 17.3805 19.6611 17.3884C19.6907 17.3963 19.7202 17.4042 19.7311 17.423Z" fill="#D9A35A"></path> <path d="M15.4967 17.9194C15.7048 17.6743 15.9317 17.4185 16.1103 17.1655C16.2089 17.0337 16.2968 16.883 16.3767 16.762C16.3847 16.7324 16.3926 16.7029 16.4005 16.6733C16.4084 16.6438 16.4696 16.5335 16.4055 16.5955C16.6165 16.3988 16.2317 16.1215 16.0906 16.3528C16.0185 16.4443 16.0056 16.5517 15.9444 16.662C15.7687 16.9632 15.5526 17.2378 15.307 17.5044C14.8907 17.9945 14.4744 18.4846 13.9666 18.9026C13.4963 19.2991 12.956 19.6609 12.3991 19.9075C11.8797 20.1325 11.3445 20.4165 10.7926 20.5853C10.7739 20.5961 10.7847 20.6148 10.8035 20.604C11.9778 20.4754 13.1182 19.9419 14.0755 19.2643C14.6129 18.8542 15.0696 18.3907 15.4967 17.9194Z" fill="#D9A35A"></path> <path d="M12.0616 16.8569C11.9917 16.8224 11.8873 16.8577 11.8822 16.9355C11.8152 16.9492 11.7778 16.9709 11.7432 17.0408C11.2931 17.7751 10.593 18.3791 9.90581 18.8758C9.19989 19.3832 8.4536 19.864 7.60709 20.128C7.58836 20.1388 7.59126 20.1871 7.62872 20.1655C8.07611 20.032 8.49685 19.9389 8.93053 19.7385C9.36421 19.5381 9.76834 19.3297 10.1696 19.0731C10.5521 18.8273 10.8942 18.5548 11.2148 18.2449C11.5166 17.9458 11.9041 17.6222 12.074 17.2244C12.1864 17.1595 12.2122 16.9448 12.0616 16.8569Z" fill="#D9A35A"></path> <path d="M8.80808 17.0626C8.64029 17.3343 8.40261 17.5714 8.20238 17.7869C7.96469 18.024 7.73781 18.2799 7.48931 18.4983C7.23289 18.7462 6.94692 18.9862 6.64725 19.1592C6.31012 19.3539 5.98882 19.4894 5.61925 19.6279C5.60052 19.6387 5.61133 19.6574 5.63006 19.6466C5.80153 19.5976 5.9838 19.5673 6.16608 19.5369C6.34836 19.5066 6.52484 19.3798 6.71503 19.3199C7.02842 19.2139 7.35184 18.9522 7.60034 18.7338C8.12689 18.305 8.72546 17.7846 9.05814 17.1929C9.14599 17.0423 8.88512 16.8933 8.80808 17.0626Z" fill="#D9A35A"></path> <path d="M27.5391 20.7827C27.3956 20.4909 27.1772 20.2424 26.9509 20.0235C26.7434 19.7937 26.525 19.5452 26.2799 19.3371C25.7711 18.9316 25.1399 18.7466 24.6232 18.3707C24.4401 18.2266 24.2492 18.1121 24.0582 17.9976C24.0286 17.9897 23.9883 17.9631 23.9587 17.9552C23.5502 17.7665 23.1495 17.5483 22.805 17.2977C22.7538 17.2523 22.7322 17.2149 22.7293 17.1666C22.7214 17.1962 22.7322 17.2149 22.7243 17.2444C22.7575 17.475 22.8923 17.6219 23.0753 17.766C23.3096 17.9554 23.5733 18.1527 23.8263 18.3313C24.1088 18.5178 24.3913 18.7043 24.6925 18.8801C24.9937 19.0558 25.3187 19.1428 25.6012 19.3294C25.8729 19.4971 26.1121 19.6087 26.3384 19.8277C26.5756 20.0654 26.8127 20.3031 27.0498 20.5408C27.2977 20.7972 27.4412 21.0889 27.5955 21.3994C27.7606 21.7286 27.9149 22.0391 27.9755 22.4037C27.9863 22.4224 28.0051 22.4116 28.0051 22.4116C27.9141 21.8648 27.7828 21.2913 27.5391 20.7827Z" fill="#D9A35A"></path> <path d="M22.7851 17.3081C23.1404 17.5774 23.5598 17.7848 23.9388 17.9655C23.9684 17.9734 24.0087 18.0001 24.0383 18.008C24.5247 18.2017 25.0614 18.2663 25.5529 18.3822C26.0443 18.498 26.5782 18.5144 27.0775 18.6007C27.5473 18.6791 28.0142 18.7092 28.4653 18.7984C28.4948 18.8063 28.5106 18.7472 28.4811 18.7393C27.6294 18.432 26.746 18.2427 25.8359 18.0939C25.6104 18.0493 25.4115 17.9643 25.2047 17.9089C24.9979 17.8535 24.7724 17.8089 24.5656 17.7535C24.5468 17.7643 24.536 17.7456 24.5173 17.7564C24.1902 17.7954 23.809 17.7408 23.5186 17.5838C23.4084 17.5226 23.1417 17.277 23.0235 17.2453C22.9378 17.2698 22.8088 17.2195 22.8109 17.0934L22.8001 17.0746C22.7864 17.0076 22.8318 16.9565 22.888 16.924L22.9067 16.9132C22.7727 16.9406 22.6632 17.0538 22.6907 17.1878C22.7123 17.2252 22.7339 17.2627 22.7851 17.3081Z" fill="#D9A35A"></path> <path d="M22.8298 17.0835C22.8385 17.2283 22.9488 17.2895 23.0532 17.2542C23.2009 17.2938 23.4489 17.5502 23.5483 17.5927C23.8575 17.7388 24.2199 17.8043 24.547 17.7653C24.5657 17.7545 24.5765 17.7732 24.5953 17.7624C24.9411 17.7126 25.2603 17.7031 25.6061 17.6533C25.9894 17.5818 26.3402 17.4542 26.6882 17.2783C26.6882 17.2783 26.6961 17.2487 26.6773 17.2595C26.2999 17.4275 25.8949 17.4615 25.4713 17.5063C25.0959 17.5482 24.624 17.5959 24.2508 17.5118C23.8883 17.4463 23.6541 17.2569 23.3795 17.0408C23.2477 16.9422 23.0862 16.8356 22.9256 16.9034L22.9069 16.9142C22.8694 16.9358 22.8348 17.0057 22.8298 17.0835Z" fill="#D9A35A"></path> <path d="M23.3985 19.6258C23.2067 19.337 23.0229 19.0186 22.8499 18.7189C22.7742 18.5878 22.7093 18.4754 22.6444 18.363C22.4772 18.1599 22.3395 17.9647 22.2285 17.7291C22.2206 17.7587 22.2126 17.7882 22.1968 17.8473C22.1356 17.9576 22.1039 18.0757 22.0615 18.1752C22.2215 18.5822 22.4861 18.9539 22.7132 19.3472C23.2293 20.198 23.8953 20.9622 24.3553 21.8454C24.4281 21.9282 24.4929 22.0406 24.547 22.1343C24.7741 22.5276 24.945 22.9533 25.0676 23.382C25.1794 23.7919 25.243 24.2047 25.269 24.6392C25.3221 23.9093 25.2599 23.196 25.1012 22.4886C24.6592 21.4202 23.96 20.4254 23.3985 19.6258Z" fill="#D9A35A"></path> <path d="M22.1882 17.3537C22.0996 17.3299 22.0247 17.3732 21.9714 17.4539C22.0492 17.4589 22.1083 17.4747 22.1595 17.5201C22.1458 17.4531 22.1616 17.394 22.1882 17.3537Z" fill="#D9A35A"></path> <path d="M22.2489 17.7184C22.2272 17.6809 22.2056 17.6434 22.1948 17.6247C22.1732 17.5872 22.1624 17.5685 22.1703 17.539C22.1191 17.4936 22.06 17.4778 21.9822 17.4727C21.8748 17.4598 21.7812 17.5139 21.7387 17.6133C21.7229 17.6724 21.6962 17.7128 21.6804 17.7718C21.63 17.9008 21.5983 18.019 21.5775 18.1559C21.1595 20.0704 22.2841 22.0183 21.8877 23.9703C21.7748 24.5099 21.4413 24.9272 21.2772 25.4215C21.6756 25.1166 22.0082 24.525 22.1961 23.9421C22.2782 23.6949 22.3307 23.4398 22.3565 23.2251C22.478 22.1811 22.2312 20.975 22.0334 19.9404C21.9288 19.3266 21.9048 18.7661 22.0927 18.1831C22.1243 18.065 22.1668 17.9655 22.228 17.8553C22.233 17.7774 22.241 17.7479 22.2489 17.7184Z" fill="#D9A35A"></path> <path d="M22.1866 17.3542C22.1599 17.3945 22.1441 17.4536 22.1578 17.5206C22.1499 17.5502 22.1715 17.5876 22.1823 17.6064C22.2039 17.6438 22.2256 17.6813 22.2364 17.7C22.3474 17.9356 22.4959 18.1495 22.6523 18.3339C22.9759 18.7215 23.3637 19.047 23.786 19.3026C24.1384 19.5237 24.4612 19.7369 24.7603 20.0387C25.0486 20.3217 25.4168 20.4837 25.6785 20.8072C25.6893 20.8259 25.708 20.8151 25.6972 20.7963C25.5429 20.4859 25.3944 20.2719 25.1386 20.045C24.8316 19.7728 24.5887 19.4386 24.2629 19.1771C23.9292 18.9452 23.5848 18.6946 23.3231 18.3712C23.0427 18.0586 22.8186 17.7135 22.621 17.3281C22.6102 17.3094 22.5994 17.2907 22.5886 17.2719C22.5237 17.1596 22.2931 17.1928 22.1866 17.3542Z" fill="#D9A35A"></path> <path d="M19.5817 24.3019C20.1795 23.6071 20.6483 22.862 20.9744 21.9995C20.9823 21.9699 20.9528 21.962 20.934 21.9728C20.2328 23.5264 18.9622 24.9592 17.5475 25.9258C17.2961 26.096 17.0526 26.2365 16.7904 26.3879C16.8495 26.4038 16.9086 26.4196 16.9597 26.465C17.222 26.3136 17.4654 26.173 17.7168 26.0029C18.4257 25.5437 19.0372 24.9159 19.5817 24.3019Z" fill="#D9A35A"></path> <path d="M20.284 24.6964C19.6416 25.6167 18.827 26.4117 17.9908 27.1692C18.0311 27.1959 18.0635 27.252 18.1039 27.2787C18.9697 26.5291 19.7036 25.6808 20.3244 24.7231C20.351 24.6827 20.3215 24.6748 20.284 24.6964Z" fill="#D9A35A"></path> <path d="M23.2926 24.1579C23.3847 23.7551 23.4472 23.3444 23.4507 22.9178C23.465 22.51 23.3265 22.1404 23.1881 21.7709C23.1773 21.7521 23.129 21.755 23.1398 21.7738C23.6029 23.3544 22.857 25.1336 22.1175 26.5344C21.8568 27.0346 21.5558 27.508 21.2144 27.9548C21.2923 27.9599 21.3405 27.957 21.4184 27.962C21.4666 27.9591 21.4962 27.967 21.5444 27.9641C21.8296 27.5497 22.0932 27.0979 22.3272 26.6381C22.7557 25.8663 23.0738 25.0333 23.2926 24.1579Z" fill="#D9A35A"></path> <path d="M24.0275 26.2065C24.1218 25.6776 24.1677 25.1516 24.058 24.6156C24.0472 24.5969 23.9989 24.5998 24.0097 24.6185C24.0712 25.1574 23.9424 25.7562 23.8374 26.2663C23.7273 26.8543 23.5286 27.4185 23.3595 27.9907C23.3516 28.0202 23.3357 28.0793 23.3091 28.1196C23.3682 28.1355 23.4273 28.1513 23.4864 28.1671C23.4864 28.1671 23.4864 28.1671 23.5051 28.1563C23.7383 27.5222 23.9125 26.8723 24.0275 26.2065Z" fill="#D9A35A"></path> <path d="M24.8724 24.6436C24.8334 24.3165 24.7461 23.9923 24.7071 23.6652C24.6494 23.3489 24.5246 23.0463 24.4482 22.7409C24.4374 22.7221 24.4186 22.7329 24.4294 22.7517C24.5637 23.3734 24.7087 24.0139 24.7759 24.6494C24.8352 25.3144 24.8354 25.9635 24.7981 26.6343C24.7551 27.2086 24.653 27.767 24.5213 28.3175C24.5696 28.3146 24.5991 28.3225 24.6474 28.3196C24.7524 27.8095 24.8574 27.2993 24.9221 26.7625C24.9565 26.0435 24.9534 25.346 24.8724 24.6436Z" fill="#D9A35A"></path> <path d="M26.4659 23.424C26.2892 22.9017 26.1096 22.3311 25.7723 21.8766C26.0505 22.3153 26.1415 22.8621 26.3261 23.3549C26.5136 23.8959 26.6341 24.4507 26.6876 25.0192C26.7556 25.829 26.66 26.6583 26.4946 27.4531C26.54 27.4019 26.5961 27.3695 26.6415 27.3183C26.8286 26.561 26.868 25.7641 26.8216 24.9917C26.7602 24.4528 26.6426 23.9463 26.4659 23.424Z" fill="#D9A35A"></path> <path d="M27.5328 23.2826C27.522 23.2639 27.5033 23.2747 27.5141 23.2934C27.7889 24.1586 27.8519 25.0463 27.8478 25.9476C27.8515 26.1703 27.8364 26.4037 27.8214 26.6372C27.8588 26.6155 27.8963 26.5939 27.9338 26.5723C27.9517 26.3871 27.9618 26.2315 27.961 26.0571C27.9808 25.0967 27.848 24.1745 27.5328 23.2826Z" fill="#D9A35A"></path> <path d="M27.8719 19.5418C27.8532 19.5526 27.8532 19.5526 27.8719 19.5418C28.5334 19.909 29.1583 20.4723 29.5368 21.1278C29.5692 21.184 29.6016 21.2402 29.6341 21.2964C29.6391 21.2185 29.6737 21.1486 29.6974 21.06C29.4948 20.7524 29.2952 20.4931 28.999 20.2396C28.6516 19.9407 28.2913 19.7491 27.8719 19.5418Z" fill="#D9A35A"></path> <path d="M27.6478 17.5979C27.6291 17.6087 27.6399 17.6274 27.6694 17.6353C28.1759 17.5177 28.8287 17.7402 29.2856 17.9259C29.7533 18.1304 30.1676 18.4156 30.5287 18.7815C30.6419 18.8909 30.7255 18.9925 30.8199 19.1128C30.8141 19.0163 30.8271 18.9089 30.8104 18.7936C30.7376 18.7108 30.6757 18.6467 30.5841 18.5747C29.8649 17.8911 28.6391 17.3252 27.6478 17.5979Z" fill="#D9A35A"></path> <path d="M27.1222 16.2536C27.0739 16.2565 27.0876 16.3235 27.1251 16.3019C27.5408 16.2866 27.9378 16.2822 28.3456 16.2965C28.8608 16.3237 29.3767 16.5253 29.8256 16.7406C29.9654 16.8097 30.0757 16.8709 30.1968 16.9508C30.0994 16.7823 29.9647 16.6353 29.7254 16.5237C29.6743 16.4783 29.6339 16.4517 29.5748 16.4359C29.2469 16.3005 28.8924 16.2055 28.5408 16.1588C28.0926 16.1179 27.5941 16.2059 27.1222 16.2536Z" fill="#D9A35A"></path> <path d="M17.154 23.556C17.44 23.3159 17.7152 23.0572 17.9608 22.7905C18.2064 22.5239 18.4974 22.206 18.6918 21.894C18.6997 21.8644 18.6702 21.8565 18.6514 21.8673C18.457 22.1794 18.1552 22.4785 17.8988 22.7264C17.6157 23.0147 17.3218 23.2843 16.9876 23.5272C16.3595 24.0397 15.7018 24.5442 15.0305 24.9818C14.7603 25.1627 14.4794 25.3249 14.1876 25.4684C14.228 25.495 14.2871 25.5109 14.3462 25.5267C14.5896 25.3861 14.8519 25.2347 15.0845 25.0754C15.8337 24.6429 16.4993 24.1088 17.154 23.556Z" fill="#D9A35A"></path> <path d="M17.103 21.2638C17.1217 21.253 17.0921 21.245 17.0921 21.245C15.9 22.208 14.589 22.965 13.2267 23.6765C12.8039 23.8957 12.3781 24.0666 11.9228 24.2296C11.9336 24.2483 11.9631 24.2562 11.9848 24.2937C12.3464 24.1848 12.716 24.0463 13.0639 23.8704C14.504 23.1638 15.895 22.2858 17.103 21.2638Z" fill="#D9A35A"></path> <path d="M12.5723 20.9834C13.2236 20.8571 13.8403 20.8007 14.4779 20.6074C14.4966 20.5966 14.4937 20.5483 14.4562 20.57C13.8187 20.7633 13.1911 20.8009 12.5506 20.946C11.8432 21.1047 11.1249 21.2447 10.434 21.5187C10.0457 21.668 9.63866 21.8281 9.25326 22.0256C9.2828 22.0335 9.29361 22.0522 9.32315 22.0602C9.72729 21.8518 10.153 21.6809 10.5414 21.5316C11.184 21.2605 11.8727 21.1126 12.5723 20.9834Z" fill="#D9A35A"></path> <path d="M7.16468 20.8326C7.76982 20.5831 8.42902 20.4273 9.04788 20.2448C9.72292 20.0299 10.398 19.8149 11.0622 19.5813C11.0809 19.5705 11.0701 19.5517 11.0514 19.5626C10.3871 19.7962 9.68758 19.9254 9.00173 20.1216C8.29714 20.3286 7.56803 20.4499 6.87716 20.7239C6.29075 20.9626 5.79876 21.3215 5.3284 21.718C5.24557 21.7908 5.16274 21.8636 5.06909 21.9176C5.19807 21.968 5.30543 21.981 5.41279 21.9939C5.43152 21.9831 5.43152 21.9831 5.45025 21.9723C5.99263 21.4843 6.52208 21.1037 7.16468 20.8326Z" fill="#D9A35A"></path> <path d="M3.5249 19.7631C3.97653 19.3775 4.46349 19.0964 5.02326 18.8981C5.5643 18.7106 6.10533 18.5231 6.64347 18.2873C6.6622 18.2765 6.65139 18.2577 6.63266 18.2685C6.02752 18.518 5.4274 18.6897 4.80854 18.8722C4.25669 19.041 3.77263 19.3704 3.33972 19.7452C3.09914 19.934 2.86936 20.1416 2.63959 20.3492C2.63959 20.3492 2.63959 20.3492 2.6504 20.3679C2.69076 20.3946 2.76066 20.4291 2.80101 20.4558C2.84639 20.4046 2.90258 20.3722 2.92923 20.3318C3.09991 20.1084 3.33258 19.9491 3.5249 19.7631Z" fill="#D9A35A"></path> <path d="M5.10971 20.646C5.28619 20.5191 5.53547 20.4751 5.73358 20.3857C6.12188 20.2364 6.50516 20.1649 6.88265 19.9969C6.92011 19.9753 6.88767 19.9191 6.86894 19.9299C6.47272 20.1088 6.04117 20.1831 5.63414 20.3432C5.47349 20.411 5.32076 20.4492 5.16011 20.517C4.94327 20.6172 4.75887 20.7736 4.57157 20.8817C4.44046 20.9574 4.30144 21.0627 4.18115 21.1571C4.2215 21.1837 4.23232 21.2025 4.27267 21.2291C4.39297 21.1347 4.51326 21.0403 4.61482 20.9567C4.78339 20.8593 4.94115 20.7433 5.10971 20.646Z" fill="#D9A35A"></path> <path d="M7.05993 16.0237C7.40576 15.9738 7.77611 16.0097 8.12483 16.0082C8.52182 16.0037 8.93465 15.9402 9.32875 15.8875C9.34748 15.8767 9.35539 15.8471 9.32585 15.8392C8.53476 15.8964 7.74289 15.7792 6.94388 15.8659C6.1636 15.9418 5.39994 16.133 4.66079 16.4099C4.48141 16.4885 4.27248 16.5592 4.10392 16.6565C4.0319 16.748 3.95988 16.8395 3.89075 16.9793C4.20124 16.8251 4.51173 16.6708 4.8143 16.546C5.5239 16.2612 6.3092 16.1075 7.05993 16.0237Z" fill="#D9A35A"></path> <path d="M12.4244 13.8512C13.4901 14.0101 14.5054 14.298 15.4732 14.7631C15.5135 14.7898 15.5481 14.7199 15.5077 14.6932C15.0775 14.4671 14.6099 14.2627 14.1638 14.0957C13.6587 13.9128 13.1111 13.8294 12.5635 13.746C11.5165 13.5763 10.435 13.4765 9.37803 13.4624C8.66978 13.4468 7.9565 13.509 7.26485 13.6086C7.21948 13.6598 7.1741 13.711 7.11 13.773C7.85783 13.6409 8.6302 13.5945 9.37591 13.5885C10.4034 13.5947 11.4179 13.7082 12.4244 13.8512Z" fill="#D9A35A"></path> <path d="M16.0095 12.7531C17.0601 13.1454 18.0682 13.6372 18.9244 14.3416C18.9352 14.3603 18.9619 14.32 18.9431 14.3308C18.1431 13.594 17.1833 13.0993 16.1809 12.704C15.1973 12.298 14.187 11.9323 13.1214 11.7734C12.4073 11.6613 11.6695 11.6377 10.9642 11.6704C10.9001 11.7323 10.8468 11.8131 10.7827 11.875C11.5442 11.8099 12.3116 11.8414 13.0926 11.9399C14.0805 12.0937 15.0583 12.4032 16.0095 12.7531Z" fill="#D9A35A"></path> <path d="M15.8672 11.1634C16.5367 11.5011 17.1046 11.9224 17.6862 12.4107C17.697 12.4294 17.7236 12.3891 17.7236 12.3891C17.2119 11.9353 16.7218 11.519 16.1223 11.2159C15.5011 10.8753 14.8749 10.6125 14.1846 10.4117C13.5534 10.2268 12.933 10.0605 12.2967 9.95338C12.2888 9.98292 12.2622 10.0233 12.2543 10.0528C12.8206 10.1254 13.3819 10.2758 13.9432 10.4262C14.604 10.6191 15.2381 10.8523 15.8672 11.1634Z" fill="#D9A35A"></path> <path d="M23.2907 16.842C23.4355 16.8333 23.4759 16.86 23.5962 16.7656C23.6415 16.7144 23.6278 16.6474 23.5687 16.6316C23.359 16.5279 23.1393 16.5798 22.8979 16.5943C22.7531 16.603 22.5788 16.6038 22.4231 16.5937C22.1897 16.5787 21.975 16.5528 21.7494 16.5082C21.0029 16.3399 20.3789 15.951 19.8426 15.4115C19.8318 15.3928 19.8239 15.4223 19.8239 15.4223C20.0935 15.7162 20.296 16.0238 20.611 16.2665C20.8855 16.4826 21.2538 16.6446 21.5975 16.7208C21.952 16.8158 22.3144 16.8813 22.6927 16.8876C22.8671 16.8868 23.0601 16.8753 23.2532 16.8637C23.2799 16.8233 23.2907 16.842 23.2907 16.842Z" fill="#D9A35A"></path> <path d="M20.3102 17.3887C20.3585 17.3858 20.3664 17.3562 20.3635 17.308C20.3635 17.308 20.3527 17.2892 20.3419 17.2705C20.081 17.1214 19.7244 17.1525 19.4397 17.0921L19.4102 17.0842C19.037 17 18.6766 16.8085 18.3084 16.6465C17.693 16.4024 17.1172 16.0107 16.6084 15.6052C16.5976 15.5865 16.5601 15.6081 16.5818 15.6455C17.0747 16.1101 17.6131 16.5235 18.2314 16.8158C18.699 17.0203 19.1401 17.2651 19.6394 17.3514C19.8649 17.396 20.0984 17.4111 20.3102 17.3887Z" fill="#D9A35A"></path> <path d="M18.8558 17.8542C19.1238 17.7994 19.4322 17.7712 19.6865 17.6493C19.7239 17.6277 19.721 17.5794 19.6994 17.542C19.4868 17.39 19.203 17.5039 18.9832 17.5559C18.9645 17.5667 18.935 17.5588 18.8975 17.5804C18.525 17.6706 18.1555 17.809 17.8371 17.9929C17.4812 18.1983 17.2464 18.4837 16.9525 18.7533C16.6133 19.074 16.3036 19.4027 15.9939 19.7313C15.9751 19.7421 16.0047 19.75 16.0047 19.75C16.2986 19.4805 16.6407 19.208 16.9641 18.9464C17.2609 18.7251 17.477 18.4505 17.7846 18.248C17.9798 18.1103 18.2074 18.0288 18.4351 17.9473C18.5503 17.9307 18.7031 17.8924 18.8558 17.8542Z" fill="#D9A35A"></path> <path d="M21.4879 17.6577C20.7314 17.645 20.2027 18.2 19.8109 18.7758C19.5898 19.1282 19.417 19.4777 19.1851 19.8113C18.9237 20.1371 18.6731 20.4816 18.3821 20.7994C18.663 20.6372 18.882 20.4109 19.1118 20.2033C19.3603 19.9849 19.5872 19.7291 19.7845 19.4653C19.9789 19.1533 20.2029 18.8491 20.4485 18.5825C20.7316 18.2942 21.1091 18.1262 21.5031 18.0735C21.7928 18.0561 21.7696 17.6699 21.4879 17.6577Z" fill="#D9A35A"></path> <path d="M21.4504 17.8541C21.1642 17.445 20.5129 17.5713 20.0785 17.5973C19.4992 17.6321 19.0872 17.87 18.6326 18.2073C18.1594 18.5555 17.8317 19.0693 17.4313 19.5003C17.0042 19.9717 16.4776 20.4005 15.9561 20.7516C15.9373 20.7624 15.9402 20.8107 15.959 20.7998C16.4201 20.7334 16.8559 20.4069 17.2276 20.1423C17.6446 19.8266 18.0372 19.4252 18.3923 19.0454C18.7099 18.6872 19.1694 18.272 19.6464 18.1465C20.142 18.0102 20.7458 18.0611 21.2372 18.177C21.4116 18.1762 21.5448 17.9744 21.4504 17.8541Z" fill="#D9A35A"></path> <path d="M21.0236 19.7972C21.1719 19.3619 21.4246 18.8914 21.694 18.5361C21.9446 18.1916 22.33 17.994 22.5403 17.6229C22.6015 17.5127 22.4883 17.4032 22.3838 17.4385C21.564 17.6621 21.0506 18.6328 20.7749 19.3664C20.6079 19.8124 20.5216 20.3118 20.3841 20.7657C20.2704 21.131 20.0493 21.4834 19.9356 21.8488C19.9276 21.8783 19.9572 21.8862 19.9759 21.8754C20.2028 21.6196 20.4405 21.3824 20.5758 21.0546C20.7645 20.646 20.8832 20.2028 21.0236 19.7972Z" fill="#D9A35A"></path> <path d="M24.9169 22.4712C24.5881 21.5123 23.93 20.7186 23.2265 19.976C23.0406 19.7836 22.9 19.5402 22.7515 19.3262C22.5922 19.0935 22.4142 18.8717 22.2736 18.6282C22.133 18.3847 22.0515 18.1571 21.978 17.8999C21.9368 17.6989 21.81 17.5224 21.614 17.4857C21.5362 17.4807 21.4317 17.516 21.4267 17.5938C21.3829 17.9937 21.6157 18.4836 21.7996 18.802C22.0886 19.2594 22.4714 19.6628 22.8166 20.0878C23.1727 20.5315 23.6865 20.8591 24.0159 21.3432C24.2913 21.7336 24.5666 22.1241 24.8874 22.4633C24.909 22.5008 24.9277 22.49 24.9169 22.4712Z" fill="#D9A35A"></path> <path d="M24.764 22.2085C24.6147 21.8202 24.3934 21.5234 24.1505 21.1892C23.8968 20.8362 23.718 20.44 23.408 20.1195C23.106 19.7694 22.9214 19.2767 22.6835 18.8646C22.5646 18.6586 22.4377 18.4821 22.3188 18.2761C22.2106 18.0888 22.14 17.8799 22.0506 17.6818C21.9258 17.3792 21.4921 17.5796 21.6356 17.8714C21.8144 18.2676 22.0199 18.6235 22.2657 19.006C22.5115 19.3885 22.7307 19.8113 23.0139 20.1722C23.1408 20.3487 23.313 20.474 23.4212 20.6613C23.5589 20.8565 23.6778 21.0626 23.8342 21.247C23.9611 21.4234 24.0959 21.5704 24.2415 21.736C24.3979 21.9204 24.4952 22.089 24.6782 22.2331C24.7373 22.2489 24.7748 22.2273 24.764 22.2085Z" fill="#D9A35A"></path> <path d="M27.1925 20.5317C27.1493 20.4568 27.114 20.3523 27.052 20.2882C26.8365 20.088 26.6693 19.8848 26.4163 19.7062C26.2145 19.573 26.0581 19.3886 25.8376 19.2662C25.6171 19.1438 25.3937 18.9731 25.1998 18.8103C25.0059 18.6475 24.7804 18.6029 24.5707 18.4993C24.3098 18.3502 24.0302 18.212 23.7694 18.0629C23.5085 17.9138 23.2635 17.7057 23.0293 17.5163C22.9377 17.4443 22.8354 17.3535 22.7518 17.2519C22.6898 17.1878 22.6199 17.1533 22.55 17.1187C22.5284 17.0812 22.4772 17.0359 22.4181 17.02L22.3886 17.0121C22.23 16.9538 22.0673 17.1477 22.1242 17.2896C22.1841 17.4798 22.3613 17.5273 22.504 17.6447C22.7491 17.8528 23.002 18.0314 23.2442 18.1913C23.4971 18.3699 23.7285 18.5111 24.016 18.6198C24.145 18.6702 24.266 18.7501 24.395 18.8005C24.5348 18.8696 24.7013 18.8984 24.8411 18.9675C25.0399 19.0525 25.2713 19.1936 25.4622 19.3081C25.5429 19.3614 25.6424 19.4039 25.7418 19.4463C25.9112 19.5234 26.0351 19.6516 26.1966 19.7582C26.4495 19.9368 26.6729 20.1075 26.8884 20.3077C26.9612 20.3905 27.1277 20.4193 27.1817 20.5129C27.1846 20.5612 27.2034 20.5504 27.1925 20.5317Z" fill="#D9A35A"></path> <path d="M22.8987 16.9433C22.6508 16.6869 22.1335 16.7858 21.8143 16.7952C21.3208 16.8055 20.9101 16.7429 20.4907 16.5356C20.2918 16.4506 20.085 16.3952 19.894 16.2807C19.6627 16.1396 19.4422 16.0171 19.2296 15.8652C19.0278 15.732 18.8635 15.5771 18.6617 15.4439C18.5003 15.3373 18.3309 15.2603 18.1616 15.1832C18.1321 15.1753 18.0946 15.1969 18.1162 15.2344C18.1436 15.3684 18.2568 15.4779 18.3591 15.5686C18.5235 15.7235 18.7252 15.8567 18.8708 16.0224C19.1916 16.3616 19.727 16.7267 20.1623 16.875C20.3799 16.9492 20.5737 17.1119 20.8101 17.1753C21.0464 17.2386 21.2907 17.2724 21.5429 17.2766C21.7763 17.2917 22.0177 17.2772 22.259 17.2627C22.4709 17.2403 22.7338 17.2633 22.9103 17.1364C22.9449 17.0665 22.9607 17.0074 22.8987 16.9433Z" fill="#D9A35A"></path> <path d="M21.2581 17.0897C21.1636 16.9694 21.0671 16.9752 20.9115 16.9651C20.6593 16.9609 20.5461 16.8514 20.3364 16.7477C20.1858 16.6599 20.0165 16.5828 19.8392 16.5353C19.8097 16.5274 19.4119 16.3575 19.4011 16.3388C19.3795 16.3013 19.3125 16.315 19.3154 16.3633C19.314 16.6638 19.6902 16.7962 19.9294 16.9078C20.1686 17.0194 20.3546 17.2117 20.583 17.3046C20.7524 17.3816 21.0045 17.3859 21.1868 17.3556C21.3021 17.339 21.3417 17.1912 21.2581 17.0897Z" fill="#D9A35A"></path> <path d="M21.3159 17.4067C21.0817 17.2173 20.8079 17.1756 20.5125 17.0964C20.217 17.0173 19.9424 16.8012 19.6391 16.7516C19.5505 16.7278 19.4893 16.8381 19.5512 16.9022C19.926 17.3351 20.7137 17.7045 21.2843 17.5249C21.3433 17.5407 21.3671 17.4521 21.3159 17.4067Z" fill="#D9A35A"></path> <path d="M23.815 16.7142C23.6902 16.4117 23.2954 16.29 23.0237 16.1223C22.623 15.9041 22.2036 15.6967 21.875 15.387C21.5651 15.0665 21.2285 14.7863 20.9186 14.4658C20.7946 14.3376 20.6598 14.1906 20.5546 14.0516C20.533 14.0141 20.1964 13.734 20.2072 13.7527L20.1964 13.734C20.1698 13.7743 20.1698 13.7743 20.2022 13.8305C20.2621 14.0207 20.4156 14.1568 20.4942 14.3362C20.7212 14.7295 21.0715 15.0767 21.3922 15.416C21.5782 15.6083 21.7454 15.8114 21.958 15.9634C22.1411 16.1074 22.3508 16.2111 22.5526 16.3443C22.8646 16.5388 23.3734 16.9442 23.7646 16.8432C23.7833 16.8324 23.8287 16.7812 23.815 16.7142Z" fill="#D9A35A"></path> <path d="M23.6357 16.9668C23.7098 16.7492 23.5484 16.6426 23.4244 16.5144C23.1765 16.258 23.0064 16.0066 22.9162 15.6341C22.8397 15.3287 22.8598 15.0174 22.802 14.7011C22.7551 14.4036 22.6895 14.1168 22.6425 13.8193C22.6317 13.8005 22.613 13.8114 22.613 13.8114C22.5217 14.3885 22.5002 15.0002 22.4976 15.6011C22.4854 15.8828 22.6022 16.2149 22.7241 16.4692C22.8351 16.7048 23.0852 16.8351 23.2228 17.0304C23.3764 17.1665 23.5694 17.1549 23.6357 16.9668Z" fill="#D9A35A"></path> <path d="M15.0183 16.2737C14.9326 16.2982 14.8872 16.3494 14.8634 16.438C14.8634 16.438 14.8555 16.4675 14.8663 16.4863C14.736 16.7363 14.6057 16.9864 14.4537 17.199C14.2672 17.4815 13.9891 17.692 13.7515 17.9291C13.284 18.3738 12.6818 18.6715 12.2035 19.0975C12.1847 19.1083 12.2064 19.1458 12.2251 19.135C12.4873 18.9836 12.7632 18.8992 13.0334 18.7183C13.341 18.5157 13.6485 18.3131 13.9158 18.0839C14.4502 17.6255 14.8961 17.1434 15.2367 16.5222C15.3166 16.4011 15.171 16.2354 15.0183 16.2737Z" fill="#D9A35A"></path> </svg> 